SplineFontDB: 3.0
FontName: Laksaman-Italic
FullName: Laksaman Italic
FamilyName: Laksaman
Weight: Book
Copyright: Laksaman, based on TH Sarabun New.\n\nCopyright (c) 2014 Theppitak Karoonboonyanan.\n\nTH Sarabun New:\n\nCopyright (c) 2010-2011 by Software Industry Promotion Agency (Public Organization) (SIPA). All rights reserved.\nCreated by : Suppakit CHALERMLARP.
Version: 3.0: 2014-04-30
ItalicAngle: -12
UnderlinePosition: -20
UnderlineWidth: 30
Ascent: 800
Descent: 200
LayerCount: 2
Layer: 0 0 "Back"  1
Layer: 1 0 "Fore"  0
XUID: [1021 373 914837695 4926798]
FSType: 0
OS2Version: 3
OS2_WeightWidthSlopeOnly: 0
OS2_UseTypoMetrics: 1
CreationTime: 1308745587
ModificationTime: 1398927669
PfmFamily: 33
TTFWeight: 400
TTFWidth: 5
LineGap: 30
VLineGap: 0
Panose: 2 11 5 0 4 2 0 2 0 3
OS2TypoAscent: 1279
OS2TypoAOffset: 0
OS2TypoDescent: -376
OS2TypoDOffset: 0
OS2TypoLinegap: 60
OS2WinAscent: 1270
OS2WinAOffset: 0
OS2WinDescent: 687
OS2WinDOffset: 0
HheadAscent: 1270
HheadAOffset: 0
HheadDescent: -687
HheadDOffset: 0
OS2SubXSize: 700
OS2SubYSize: 650
OS2SubXOff: 0
OS2SubYOff: 140
OS2SupXSize: 700
OS2SupYSize: 650
OS2SupXOff: 0
OS2SupYOff: 477
OS2StrikeYSize: 30
OS2StrikeYPos: 250
OS2FamilyClass: 2053
OS2Vendor: 'psk '
OS2CodePages: 60010183.80000000
OS2UnicodeRanges: a100006f.5000205a.00000000.00000000
Lookup: 4 0 0 "'frac' Diagonal Fractions in Latin lookup 0"  {"'frac' Diagonal Fractions in Latin lookup 0 subtable"  } ['frac' ('latn' <'dflt' > ) ]
Lookup: 4 0 1 "'rlig' Required Ligatures in Latin lookup 1"  {"'rlig' Required Ligatures in Latin lookup 1 subtable"  } ['rlig' ('latn' <'dflt' > ) ]
Lookup: 4 0 1 "'rlig' Required Ligatures in Latin lookup 2"  {"'rlig' Required Ligatures in Latin lookup 2 subtable"  } ['rlig' ('latn' <'dflt' > ) ]
Lookup: 6 0 0 "'rlig' Required Ligatures in Latin lookup 3"  {"'rlig' Required Ligatures in Latin lookup 3 subtable"  } ['rlig' ('latn' <'dflt' > ) ]

StartChar: .notdef
Encoding: 65536 -1 0
Width: 1040
VWidth: 1504
Flags: HW
LayerCount: 2
Fore
SplineSet
966 0 m 1
 75 0 l 1
 75 1217 l 1
 966 1217 l 1
 966 0 l 1
921 42 m 1
 921 1175 l 1
 120 1175 l 1
 120 42 l 1
 921 42 l 1
EndSplineSet
EndChar

StartChar: exclam
Encoding: 33 33 2
Width: 221
VWidth: 1504
Flags: HW
LayerCount: 2
Fore
SplineSet
105 181 m 1
 57 181 l 1
 159 714 l 1
 230 714 l 1
 105 181 l 1
104 42 m 256
 100.667 28 92.8333 16 80.5 6 c 128
 68.1667 -4 55 -9 41 -9 c 256
 27 -9 16.1667 -4 8.5 6 c 128
 0.833333 16 -2 28 0 42 c 0
 3.33333 56 11.1667 68.3333 23.5 79 c 128
 35.8333 89.6667 49 95 63 95 c 256
 77 95 88.1667 89.6667 96.5 79 c 128
 104.833 68.3333 107.333 56 104 42 c 256
EndSplineSet
EndChar

StartChar: quotedbl
Encoding: 34 34 3
Width: 312
VWidth: 1504
Flags: HW
LayerCount: 2
Fore
SplineSet
284 508 m 1
 244 508 l 1
 281 751 l 1
 352 751 l 1
 284 508 l 1
153 508 m 1
 113 508 l 1
 150 751 l 1
 221 751 l 1
 153 508 l 1
EndSplineSet
EndChar

StartChar: numbersign
Encoding: 35 35 4
Width: 606
VWidth: 1504
Flags: HW
LayerCount: 2
Fore
SplineSet
525 224 m 1
 417 224 l 1
 341 0 l 1
 289 0 l 1
 364 224 l 1
 171 224 l 1
 98 0 l 1
 45 0 l 1
 119 224 l 1
 23 224 l 1
 33 271 l 1
 135 271 l 1
 194 450 l 1
 92 450 l 1
 102 498 l 1
 211 498 l 1
 284 714 l 1
 334 714 l 1
 262 498 l 1
 456 498 l 1
 526 714 l 1
 579 714 l 1
 507 498 l 1
 605 498 l 1
 594 450 l 1
 490 450 l 1
 432 271 l 1
 535 271 l 1
 525 224 l 1
381 271 m 1
 439 450 l 1
 245 450 l 1
 188 271 l 1
 381 271 l 1
EndSplineSet
EndChar

StartChar: dollar
Encoding: 36 36 5
Width: 543
VWidth: 1504
Flags: HW
LayerCount: 2
Fore
SplineSet
441 200 m 0
 431.667 160 410 124 376 92 c 0
 338 56.6667 291 34 235 24 c 1
 211 -87 l 1
 158 -87 l 1
 182 24 l 1
 118 24 67 41.6667 29 77 c 1
 66 123 l 1
 99.3333 89 146 72 206 72 c 0
 251.333 72 290.333 83.8333 323 107.5 c 128
 355.667 131.167 375.333 161 382 197 c 1
 395.333 255 361.666 302.667 281 340 c 0
 171 390 124 452 140 526 c 0
 149.333 569.333 171.667 606 207 636 c 128
 242.333 666 285 684.667 335 692 c 1
 360 806 l 1
 411 806 l 1
 387 692 l 1
 436.333 688.667 479.333 674 516 648 c 1
 478 600 l 1
 450 629.333 408 644 352 644 c 0
 308 644 271.333 631.333 242 606 c 0
 218 586 203 562 197 534 c 0
 191 504 196.333 479.167 213 459.5 c 128
 229.667 439.833 261.333 418.666 308 396 c 0
 362 370 399.333 344.333 420 319 c 0
 444 287 451 247.333 441 200 c 0
EndSplineSet
EndChar

StartChar: percent
Encoding: 37 37 6
Width: 879
VWidth: 1504
Flags: HW
LayerCount: 2
Fore
SplineSet
769 716 m 1
 177 -14 l 1
 126 -14 l 1
 718 716 l 1
 769 716 l 1
414 502 m 0
 384 359.333 315.333 288.333 208 289 c 256
 100.667 289 62 360 92 502 c 0
 123.333 644.667 192.333 716 299 716 c 256
 407 716 445.333 644.667 414 502 c 0
360 502 m 0
 384 612 360.333 667.333 289 668 c 256
 217.667 668 170 612.667 146 502 c 0
 122.667 392 146.667 337 218 337 c 256
 289.333 337 336.667 392 360 502 c 0
806 209 m 256
 776 66.3333 707.333 -5 600 -5 c 256
 492.667 -5.00001 454 66.3333 484 209 c 256
 514 351.667 582.667 423 690 423 c 256
 797.333 423 836 351.667 806 209 c 256
752 209 m 256
 775.333 319 751.333 374.333 680 375 c 256
 608.667 375 561.667 319.667 539 209 c 256
 515.667 99 539.667 44 611 44 c 256
 681.667 44 728.667 99 752 209 c 256
EndSplineSet
EndChar

StartChar: ampersand
Encoding: 38 38 7
Width: 636
VWidth: 1504
Flags: HW
LayerCount: 2
Fore
SplineSet
638 385 m 1
 586.666 257.667 534.332 169.333 481 120 c 1
 510.333 82 544 42 582 0 c 1
 507 0 l 1
 491 18 468.333 44.6667 439 80 c 1
 351.667 18 264.333 -13.3333 177 -14 c 0
 117 -14 70.1667 5.83333 36.5 45.5 c 128
 2.83333 85.1667 -7.66667 134.333 5 193 c 0
 25 288.333 91 361 203 411 c 1
 171.667 468.334 160.667 519.334 170 564 c 0
 180 612 204.833 653.667 244.5 689 c 128
 284.167 724.333 331 742 385 742 c 0
 429 742 462.333 728.167 485 700.5 c 128
 507.667 672.833 514 637.333 504 594 c 0
 486.667 514 411.333 446.333 278 391 c 1
 322 327 380.333 247.333 453 152 c 1
 497 198 540 275.667 582 385 c 1
 638 385 l 1
451 588 m 0
 457 617.333 454 642 442 662 c 0
 428 685.333 404 696.667 370 696 c 0
 334.667 696 303.833 683.5 277.5 658.5 c 128
 251.166 633.5 234.333 604 227 570 c 0
 219 530.666 230 483.666 260 429 c 1
 375.333 479 439 532 451 588 c 0
412 116 m 1
 340 207.333 277.333 293 224 373 c 1
 132 329 78.3333 271.333 63 200 c 0
 51.6667 150.667 59.3333 110.833 86 80.5 c 128
 112.667 50.1667 150.667 35 200 35 c 0
 275.333 35 346 62 412 116 c 1
EndSplineSet
EndChar

StartChar: quotesingle
Encoding: 39 39 8
Width: 180
VWidth: 1504
Flags: HW
LayerCount: 2
Fore
SplineSet
153 508 m 1
 113 508 l 1
 150 751 l 1
 220 751 l 1
 153 508 l 1
EndSplineSet
EndChar

StartChar: parenleft
Encoding: 40 40 9
Width: 285
VWidth: 1504
Flags: HW
LayerCount: 2
Fore
SplineSet
170 -87 m 1
 113 -87 l 1
 29 34.3333 4.33333 180.667 39 352 c 1
 74.3333 514.667 161.667 664 301 800 c 1
 361 800 l 1
 220.333 671.333 132 522 96 352 c 0
 62 192.667 86.6667 46.3333 170 -87 c 1
EndSplineSet
EndChar

StartChar: parenright
Encoding: 41 41 10
Width: 285
VWidth: 1504
Flags: HW
LayerCount: 2
Fore
SplineSet
265 356 m 0
 229.667 189.333 142.333 41.6667 3 -87 c 1
 -53 -87 l 1
 87.6667 52.3333 174.667 200 208 356 c 0
 241.333 514.667 217 662.667 135 800 c 1
 193 800 l 1
 277 674.667 301 526.667 265 356 c 0
EndSplineSet
EndChar

StartChar: asterisk
Encoding: 42 42 11
Width: 428
VWidth: 1504
Flags: HW
LayerCount: 2
Fore
SplineSet
450 535 m 1
 298 549 l 1
 367 420 l 1
 310 388 l 1
 262 537 l 1
 152 388 l 1
 110 420 l 1
 233 549 l 1
 75 535 l 1
 87 593 l 1
 241 582 l 1
 171 710 l 1
 236 743 l 1
 278 605 l 1
 379 743 l 1
 429 710 l 1
 305 582 l 1
 462 593 l 1
 450 535 l 1
EndSplineSet
EndChar

StartChar: plus
Encoding: 43 43 12
Width: 618
VWidth: 1504
Flags: HW
LayerCount: 2
Fore
SplineSet
549 248 m 1
 323 248 l 1
 271 0 l 1
 218 0 l 1
 271 248 l 1
 45 248 l 1
 56 298 l 1
 281 298 l 1
 331 537 l 1
 384 537 l 1
 334 298 l 1
 560 298 l 1
 549 248 l 1
EndSplineSet
EndChar

StartChar: comma
Encoding: 44 44 13
Width: 243
VWidth: 1504
Flags: HW
LayerCount: 2
Fore
SplineSet
128 41 m 0
 114.667 -13 88 -60.6667 48 -102 c 0
 20.6667 -131.333 -6.33333 -152 -33 -164 c 1
 -48 -141 l 1
 10 -105.667 47.6667 -62.3333 65 -11 c 1
 49 -11 36.5 -5.33333 27.5 6 c 128
 18.5 17.3333 15.3333 30.3333 18 45 c 256
 21.3333 60.3333 29.6667 73.6667 43 85 c 128
 56.3333 96.3333 70.6667 102 86 102 c 0
 102 102 114 96.1667 122 84.5 c 128
 130 72.8333 132 58.3333 128 41 c 0
EndSplineSet
EndChar

StartChar: hyphen
Encoding: 45 45 14
AltUni2: 0000ad.ffffffff.0
Width: 324
VWidth: 1504
Flags: HW
LayerCount: 2
Fore
SplineSet
269 248 m 1
 8 248 l 1
 29 298 l 1
 290 298 l 1
 269 248 l 1
EndSplineSet
EndChar

StartChar: period
Encoding: 46 46 15
Width: 243
VWidth: 1504
Flags: HW
LayerCount: 2
Fore
SplineSet
116 42 m 256
 112.667 28 104.833 16 92.5 6 c 128
 80.1667 -4 67 -9 53 -9 c 256
 39 -9 28 -4 20 6 c 128
 12 16 9.33333 28 12 42 c 256
 15.3333 56 23.1667 68.3333 35.5 79 c 128
 47.8333 89.6667 61 95 75 95 c 256
 89 95 100.167 89.6667 108.5 79 c 128
 116.833 68.3333 119.333 56 116 42 c 256
EndSplineSet
EndChar

StartChar: slash
Encoding: 47 47 16
Width: 406
VWidth: 1504
Flags: HW
LayerCount: 2
Fore
SplineSet
510 742 m 1
 -44 -44 l 1
 -101 -44 l 1
 448 742 l 1
 510 742 l 1
EndSplineSet
EndChar

StartChar: zero
Encoding: 48 48 17
Width: 544
VWidth: 1504
Flags: HW
LayerCount: 2
Fore
SplineSet
504 341 m 0
 486 257.667 454 182 408 114 c 0
 348 26.6667 279.667 -17 203 -17 c 0
 125.667 -17 76 26.6667 54 114 c 1
 36 181.333 36 257 54 341 c 0
 75.3333 442.334 111 528.334 161 599 c 0
 219 680.333 285.333 721 360 721 c 256
 434 721 483 680.333 507 599 c 1
 526.333 528.333 525.333 442.333 504 341 c 0
444 343 m 0
 462 430.333 465 504 453 564 c 0
 437.667 634 403 669 349 669 c 0
 293.667 669 243.667 634 199 564 c 0
 161.667 504.667 133.333 431 114 343 c 0
 98.6667 271 96.6667 205.667 108 147 c 0
 122 71.6667 157.333 34.3333 214 35 c 0
 269.333 35 320 72.3333 366 147 c 1
 402.667 205.667 428.667 271 444 343 c 0
EndSplineSet
EndChar

StartChar: one
Encoding: 49 49 18
Width: 544
VWidth: 1504
Flags: HW
LayerCount: 2
Fore
SplineSet
367 0 m 1
 81 0 l 1
 92 54 l 1
 205 54 l 1
 326 627 l 1
 193 529 l 1
 168 567 l 1
 373 719 l 1
 395 719 402 700 394 662 c 2
 265 54 l 1
 378 54 l 1
 367 0 l 1
EndSplineSet
EndChar

StartChar: two
Encoding: 50 50 19
Width: 544
VWidth: 1504
Flags: HW
LayerCount: 2
Fore
SplineSet
451 59 m 1
 427 0 l 1
 -26 0 l 1
 -16 25.3333 -2.66667 54 14 86 c 1
 66 130 123.333 177 186 227 c 128
 248.667 277 320.667 340.667 402 418 c 1
 443.334 461.334 467.668 502.667 475 542 c 256
 483 581.333 476.833 611.333 456.5 632 c 128
 436.167 652.667 406 663 366 663 c 0
 276 663 215.333 618 184 528 c 1
 132 543 l 1
 151.333 601 184 645.667 230 677 c 0
 272 705 321.667 719 379 719 c 0
 435 719 477.667 701.667 507 667 c 128
 536.333 632.333 545.333 589 534 537 c 0
 518 461 437.667 365.333 293 250 c 1
 187.667 164 112.667 100.333 68 59 c 1
 451 59 l 1
EndSplineSet
EndChar

StartChar: three
Encoding: 51 51 20
Width: 544
VWidth: 1504
Flags: HW
LayerCount: 2
Fore
SplineSet
480 242 m 0
 464 166 424.833 104.333 362.5 57 c 128
 300.167 9.66667 227.333 -15 144 -17 c 0
 78 -19 28.3333 -0.333332 -5 39 c 1
 30 86 l 1
 61.3333 58 107 44 167 44 c 0
 225 44 278.667 63.5 328 102.5 c 128
 377.333 141.5 407.333 187 418 239 c 0
 427.33 278.333 422.663 311 404 337 c 128
 385.333 363 357.333 376 320 376 c 0
 276.667 376 240.667 364.333 212 341 c 1
 194 390 l 1
 260 434 260 434 326 478 c 1
 393.333 526 430 563.667 436 591 c 0
 446 640.333 417 665 349 665 c 0
 273.667 665 210 627.333 158 552 c 1
 120 575 l 1
 145.333 619 180.333 654 225 680 c 128
 269.667 706 316.667 719 366 719 c 0
 408 719 441.667 707.667 467 685 c 128
 492.335 662.333 500.669 631.667 492 593 c 0
 482 547 429.333 492.667 334 430 c 1
 343 430 l 2
 396.333 430 435.333 412.167 460 376.5 c 128
 484.667 340.833 491.333 296 480 242 c 0
EndSplineSet
EndChar

StartChar: four
Encoding: 52 52 21
Width: 544
VWidth: 1504
Flags: HW
LayerCount: 2
Fore
SplineSet
334 223 m 1
 426 657 l 1
 350 623 280.333 563.333 217 478 c 0
 157 396.667 116.333 311.667 95 223 c 1
 334 223 l 1
481 167 m 1
 382 167 l 1
 347 0 l 1
 287 0 l 1
 322 167 l 1
 18 167 l 1
 52 316.333 112.833 442.667 200.5 546 c 128
 288.167 649.333 388.667 712 502 734 c 1
 394 223 l 1
 501 223 l 1
 481 167 l 1
EndSplineSet
EndChar

StartChar: five
Encoding: 53 53 22
Width: 544
VWidth: 1504
Flags: HW
LayerCount: 2
Fore
SplineSet
465 247 m 0
 449 169.667 409.833 107.167 347.5 59.5 c 128
 285.167 11.8333 213 -12 131 -12 c 0
 61.6667 -12 12 6.66667 -18 44 c 1
 15 90 l 1
 27 80.6667 40.6667 72.3333 56 65 c 0
 81.3334 51.6667 114.333 45 155 45 c 0
 209 45 260.667 62.5 310 97.5 c 128
 359.333 132.5 390.333 181.667 403 245 c 0
 415 299 405.667 339.667 375 367 c 1
 349.667 391 313 403 265 403 c 0
 223 403 185.667 386.333 153 353 c 1
 122 350 l 1
 221 714 l 1
 542 714 l 1
 519 657 l 1
 266 657 l 1
 208 445 l 1
 237.333 455 266.667 460 296 460 c 0
 354 460 399.667 442 433 406 c 1
 468.333 366 479 313 465 247 c 0
EndSplineSet
EndChar

StartChar: six
Encoding: 54 54 23
Width: 544
VWidth: 1504
Flags: HW
LayerCount: 2
Fore
SplineSet
465 218 m 1
 451.667 152.667 422 98 376 54 c 128
 330 10 275.333 -12 212 -12 c 0
 140.667 -12 90 15 60 69 c 0
 34 117 29 177.667 45 251 c 0
 69 366.333 126.333 469.333 217 560 c 128
 307.667 650.667 410.333 706.667 525 728 c 1
 520 684 l 1
 448.667 664.665 380 629.332 314 578 c 0
 240 520 183 450.667 143 370 c 1
 150.333 385.333 168.333 401.333 197 418 c 0
 233 438 272 448 314 448 c 0
 373.333 448 416.833 425.5 444.5 380.5 c 128
 472.167 335.5 479 281.333 465 218 c 1
405 218 m 0
 416.33 268 412.164 310.667 392.5 346 c 128
 372.833 381.333 339.333 399 292 399 c 0
 248.667 399 208.167 381.333 170.5 346 c 128
 132.833 310.667 108.667 268 98 218 c 0
 88 168.667 94.1667 126.5 116.5 91.5 c 128
 138.833 56.5 171.667 39 215 39 c 0
 263 39 304.167 56.5 338.5 91.5 c 128
 372.833 126.5 395 168.667 405 218 c 0
EndSplineSet
EndChar

StartChar: seven
Encoding: 55 55 24
Width: 544
VWidth: 1504
Flags: HW
LayerCount: 2
Fore
SplineSet
196 0 m 1
 132 0 l 1
 164 151.333 224.667 296.333 314 435 c 0
 335.333 467 369 511.833 415 569.5 c 128
 461 627.168 484.667 656.335 486 657 c 1
 123 657 l 1
 158 714 l 1
 581 714 l 1
 557 654 l 1
 471 566 396.833 470.667 334.5 368 c 128
 272.167 265.333 226 142.667 196 0 c 1
EndSplineSet
EndChar

StartChar: eight
Encoding: 56 56 25
Width: 544
VWidth: 1504
Flags: HW
LayerCount: 2
Fore
SplineSet
408 188 m 0
 416 227.333 410.167 264.667 390.5 300 c 128
 370.833 335.334 334.333 354.667 281 358 c 1
 227 354.667 182.667 335.333 148 300 c 128
 113.333 264.667 92 227.333 84 188 c 0
 74.6667 142.667 82.3333 106.833 107 80.5 c 128
 131.667 54.1667 167.667 41 215 41 c 0
 261 41 302.333 54.1667 339 80.5 c 128
 375.667 106.833 398.667 142.667 408 188 c 0
460 543 m 0
 468 578.333 461.833 607.5 441.5 630.5 c 128
 421.167 653.5 389.667 665 347 665 c 0
 303.667 665 267.333 653.5 238 630.5 c 128
 208.667 607.5 190 578.333 182 543 c 0
 168.667 481 205.667 438.333 293 415 c 1
 391 438.333 446.667 481 460 543 c 0
469 193 m 0
 455 129 424.167 78.8333 376.5 42.5 c 128
 328.833 6.16667 271 -12 203 -12 c 0
 135.667 -12 85.8333 6 53.5 42 c 128
 21.1667 78 12 128.333 26 193 c 0
 36 242.333 59 284.667 95 320 c 128
 131 355.334 172 377.667 218 387 c 1
 182.667 398.334 156 418.167 138 446.5 c 128
 120 474.834 114.667 505.667 122 539 c 0
 133.333 592.333 161 636 205 670 c 128
 249 704 300.667 721 360 721 c 0
 418 721 462 703.833 492 669.5 c 128
 522 635.167 531.333 591.667 520 539 c 0
 512.666 505.667 493.666 474.667 463 446 c 128
 432.333 417.333 397.333 397.666 358 387 c 1
 400 377.667 431.5 355.333 452.5 320 c 128
 473.5 284.667 479 242.333 469 193 c 0
EndSplineSet
EndChar

StartChar: nine
Encoding: 57 57 26
Width: 544
VWidth: 1504
Flags: HW
LayerCount: 2
Fore
SplineSet
516 459 m 0
 492 343.667 434.667 240.667 344 150 c 128
 253.333 59.3333 150.667 3.33333 36 -18 c 1
 41 26 l 1
 112.333 45.3333 181 80.6667 247 132 c 0
 322.333 190 380 259.333 420 340 c 1
 412 324.667 394 308.667 366 292 c 1
 328.667 272 289 262 247 262 c 0
 187.667 262 144.5 284.5 117.5 329.5 c 128
 90.5 374.5 83.3333 428.667 96 492 c 0
 110 557.333 140.167 612 186.5 656 c 128
 232.833 700 287.333 722 350 722 c 0
 421.333 722 471.667 695 501 641 c 0
 527 593 532 532.333 516 459 c 0
463 492 m 0
 473 541.333 466.833 583.5 444.5 618.5 c 128
 422.167 653.5 389.333 671 346 671 c 0
 298 671 256.833 653.5 222.5 618.5 c 128
 188.167 583.5 166 541.333 156 492 c 0
 144.667 442 149 399.333 169 364 c 128
 189 328.667 222.333 311 269 311 c 0
 312.334 311 352.667 328.667 390 364 c 128
 427.334 399.333 451.668 442 463 492 c 0
EndSplineSet
EndChar

StartChar: colon
Encoding: 58 58 27
Width: 243
VWidth: 1504
Flags: HW
LayerCount: 2
Fore
SplineSet
116 42 m 256
 112.667 28 104.833 16 92.5 6 c 128
 80.1667 -4 67 -9 53 -9 c 256
 39 -9 28 -4 20 6 c 128
 12 16 9.33333 28 12 42 c 256
 15.3333 56 23.1667 68.3333 35.5 79 c 128
 47.8333 89.6667 61 95 75 95 c 256
 89 95 100.167 89.6667 108.5 79 c 128
 116.833 68.3333 119.333 56 116 42 c 256
199 426 m 256
 195.667 412 187.5 400 174.5 390 c 128
 161.5 380 148 375 134 375 c 256
 120 375 109.167 380 101.5 390 c 128
 93.833 400 91.6663 412 95 426 c 256
 98.3333 440 105.833 452.167 117.5 462.5 c 128
 129.167 472.833 142 478 156 478 c 256
 170 478 181.5 472.833 190.5 462.5 c 128
 199.5 452.167 202.333 440 199 426 c 256
EndSplineSet
EndChar

StartChar: semicolon
Encoding: 59 59 28
Width: 243
VWidth: 1504
Flags: HW
LayerCount: 2
Fore
SplineSet
128 41 m 0
 114.667 -13 88 -60.6667 48 -102 c 0
 20.6667 -131.333 -6.33333 -152 -33 -164 c 1
 -48 -141 l 1
 10 -105.667 47.6667 -62.3333 65 -11 c 1
 49 -11 36.5 -5.33333 27.5 6 c 128
 18.5 17.3333 15.3333 30.3333 18 45 c 256
 21.3333 60.3333 29.6667 73.6667 43 85 c 128
 56.3333 96.3333 70.6667 102 86 102 c 0
 102 102 114 96.1667 122 84.5 c 128
 130 72.8333 132 58.3333 128 41 c 0
199 426 m 256
 195.667 412 187.5 400 174.5 390 c 128
 161.5 380 148 375 134 375 c 256
 120 375 109.167 380 101.5 390 c 128
 93.833 400 91.6663 412 95 426 c 256
 98.3333 440 105.833 452.167 117.5 462.5 c 128
 129.167 472.833 142 478 156 478 c 256
 170 478 181.5 472.833 190.5 462.5 c 128
 199.5 452.167 202.333 440 199 426 c 256
EndSplineSet
EndChar

StartChar: less
Encoding: 60 60 29
Width: 618
VWidth: 1504
Flags: HW
LayerCount: 2
Fore
SplineSet
496 54 m 1
 484 -3 l 1
 56 262 l 1
 65 302 l 1
 606 567 l 1
 594 511 l 1
 120 281 l 1
 496 54 l 1
EndSplineSet
EndChar

StartChar: equal
Encoding: 61 61 30
Width: 618
VWidth: 1504
Flags: HW
LayerCount: 2
Fore
SplineSet
555 399 m 1
 545 349 l 1
 92 349 l 1
 102 399 l 1
 555 399 l 1
513 203 m 1
 502 153 l 1
 50 153 l 1
 60 203 l 1
 513 203 l 1
EndSplineSet
EndChar

StartChar: greater
Encoding: 62 62 31
Width: 618
VWidth: 1504
Flags: HW
LayerCount: 2
Fore
SplineSet
549 302 m 1
 540 262 l 1
 0 -3 l 1
 12 54 l 1
 484 283 l 1
 110 511 l 1
 122 567 l 1
 549 302 l 1
EndSplineSet
EndChar

StartChar: question
Encoding: 63 63 32
Width: 425
VWidth: 1504
Flags: HW
LayerCount: 2
Fore
SplineSet
182 185 m 1
 131 185 l 1
 129 200.333 130 218 134 238 c 0
 145.333 291.333 184.667 348.5 252 409.5 c 128
 319.334 470.5 357.667 522.667 367 566 c 0
 383 638 350 674 268 674 c 0
 220.667 674 177.333 661 138 635 c 1
 126 680 l 1
 180 711.333 234.333 727 289 727 c 0
 346.333 727 386.333 710.333 409 677 c 0
 430.333 647.667 436.333 611.667 427 569 c 0
 415.667 515.667 371 455.333 293 388 c 0
 233 336 197.667 284.333 187 233 c 0
 183.667 215 182 199 182 185 c 1
174 42 m 256
 170.666 28 162.833 16 150.5 6 c 128
 138.167 -4 125 -9 111 -9 c 256
 97 -9 86 -4 78 6 c 128
 70 16 67.6667 28 71 42 c 256
 74.3334 56 82.1667 68.3333 94.5 79 c 128
 106.833 89.6667 120 95 134 95 c 256
 148 95 159 89.6667 167 79 c 128
 175 68.3333 177.333 56 174 42 c 256
EndSplineSet
EndChar

StartChar: at
Encoding: 64 64 33
Width: 806
VWidth: 1504
Flags: HW
LayerCount: 2
Fore
SplineSet
758 265 m 0
 742.667 197 709 138.833 657 90.5 c 128
 605 42.1667 554 16.6667 504 14 c 2
 457 11 l 1
 457 78 l 1
 405.667 26.6667 347 1.33333 281 2 c 0
 269 2 259.667 2.33333 253 3 c 0
 221.667 8.33333 197.167 22.5 179.5 45.5 c 128
 161.833 68.5 156 95 162 125 c 0
 186 237 298.333 293 499 293 c 1
 501 301 l 2
 519 386.333 487.333 429 406 429 c 0
 362 429 322 417 286 393 c 1
 277 430 l 1
 322.333 459.333 369.333 474 418 474 c 0
 532 474 575.667 410.333 549 283 c 2
 516 122 l 2
 510.667 100 508 79.3333 508 60 c 1
 547.333 62 587.333 82.6667 628 122 c 128
 668.669 161.333 694.336 207.333 705 260 c 0
 723 343.333 711.833 412.333 671.5 467 c 128
 631.166 521.667 566.333 549 477 549 c 0
 383 549 298.333 518 223 456 c 0
 143 390 91.6667 304.667 69 200 c 0
 49.6667 114 61.6667 42.6667 105 -14 c 128
 148.333 -70.6667 210.667 -99 292 -99 c 0
 361.333 -99 423.333 -84 478 -54 c 1
 490 -98 l 1
 422.667 -130 352 -146 278 -146 c 0
 184 -146 110.833 -113.833 58.5 -49.5 c 128
 6.16667 14.8333 -9.66667 96.6667 11 196 c 0
 34.3333 305.333 88.6667 397.333 174 472 c 0
 265.333 552 371.667 592.333 493 593 c 0
 593 593 667.167 561.833 715.5 499.5 c 128
 763.833 437.167 778 359 758 265 c 0
471 158 m 2
 490 250 l 1
 325.333 248 235.333 209.333 220 134 c 0
 208 74 232.333 44 293 44 c 0
 365 44 421.667 75.3333 463 138 c 0
 466.333 142 469 148.667 471 158 c 2
EndSplineSet
EndChar

StartChar: A
Encoding: 65 65 34
Width: 601
VWidth: 1504
Flags: W
HStem: 0 21G<-65 11.2174 469.043 537> 230 50<158 430> 707 20G<348.308 423.219>
DStem2: -65 0 0 0 0.504683 0.863305<32.8044 296.469 354.27 354.27>
LayerCount: 2
Fore
SplineSet
537 0 m 1
 472 0 l 1
 438 230 l 1
 129 230 l 1
 0 0 l 1
 -65 0 l 1
 360 727 l 1
 420 727 l 1
 537 0 l 1
430 280 m 1
 376 662 l 1
 158 280 l 1
 430 280 l 1
EndSplineSet
EndChar

StartChar: B
Encoding: 66 66 35
Width: 568
VWidth: 1504
Flags: W
HStem: -9 48<85.5247 306.844> 355 48<159 373.719> 675 50<215.505 433.688>
DStem2: 13.8117 -9 71.8843 -9 0.207912 0.978148<70.3474 384.361 433.183 709.816>
LayerCount: 2
Fore
SplineSet
498 200 m 0
 468 60.6667 352 -8.99999 150 -9 c 0
 106 -9 61.6667 -4 17 6 c 1
 165 705 l 1
 218.333 718.333 270 725 320 725 c 0
 493.333 725 567.333 665 542 545 c 0
 534.667 509 517 476.167 489 446.5 c 0
 461 416.833 427.333 395.333 388 382 c 1
 423.333 372.667 453 352.333 477 321 c 0
 501 289.667 508 249.333 498 200 c 0
483 543 m 0
 502.333 631 444.667 675 310 675 c 0
 278.667 675 247 671.667 215 665 c 1
 159 403 l 1
 281 403 l 2
 334.333 403 380 417 418 445 c 0
 453.333 471 475 503.667 483 543 c 0
441 199 m 0
 452.333 252.333 439.833 291.667 403.5 317 c 0
 367.167 342.333 317.333 355 254 355 c 2
 150 355 l 1
 84 48 l 1
 110 42 139.667 39 173 39 c 0
 237 39 292 50.6667 338 74 c 0
 394.667 102 429 143.667 441 199 c 0
EndSplineSet
EndChar

StartChar: C
Encoding: 67 67 36
Width: 610
VWidth: 1504
Flags: W
HStem: -11 52<217.25 464.687> 675 52<344.707 592.154>
LayerCount: 2
Fore
SplineSet
502 75 m 1
 510 27 l 1
 452 1.66667 384.333 -11 307 -11 c 0
 209.667 -11 136.167 24 86.5 94 c 0
 36.8333 164 23 252.667 45 360 c 0
 68.3333 467.334 119.5 555.334 198.5 624 c 0
 277.5 692.667 365.667 727 463 727 c 0
 540.333 727 603 714.333 651 689 c 1
 623 641 l 1
 573.667 664.333 518 675.667 456 675 c 0
 378.667 675 307 646.667 241 590 c 0
 171 530 125.667 452.667 105 358 c 256
 85 264 97 186.667 141 126 c 0
 183 68.6666 242.667 40.3333 320 41 c 0
 382 40.3333 442.667 51.6667 502 75 c 1
EndSplineSet
EndChar

StartChar: D
Encoding: 68 68 37
Width: 648
VWidth: 1504
Flags: W
HStem: -6 51<87.8063 337.835> 672 52<217.299 469.793>
DStem2: 15.0242 -6 73.2466 -6 0.207912 0.978148<73.4455 700.168>
LayerCount: 2
Fore
SplineSet
618 373 m 0
 564.666 120.333 425 -6 199 -6 c 0
 169 -6 108.667 -1.33333 18 8 c 1
 165 705 l 1
 260.333 717 333.333 723.333 384 724 c 0
 475.333 724 543 693.333 587 632 c 1
 631 567.333 641.333 481 618 373 c 0
560 373 m 0
 580 468.333 570.667 543 532 597 c 0
 496.667 647 442.333 672 369 672 c 0
 337.667 672 286.333 668 215 660 c 1
 86 54 l 1
 135.333 48 182.333 45 227 45 c 0
 308.333 45 378.667 73.8333 438 131.5 c 0
 497.333 189.167 538 269.667 560 373 c 0
EndSplineSet
EndChar

StartChar: E
Encoding: 69 69 38
Width: 527
VWidth: 1504
Flags: W
HStem: 0 50<86 406> 353 50<159 444> 666 50<217 548>
DStem2: 17 0 75.3722 0 0.207912 0.978148<63.2533 372.73 423.717 693.029>
LayerCount: 2
Fore
SplineSet
406 0 m 1
 17 0 l 1
 168 716 l 1
 558 716 l 1
 548 666 l 1
 217 666 l 1
 159 403 l 1
 454 403 l 1
 444 353 l 1
 149 353 l 1
 86 50 l 1
 417 50 l 1
 406 0 l 1
EndSplineSet
EndChar

StartChar: F
Encoding: 70 70 39
Width: 527
VWidth: 1504
Flags: W
HStem: 0 21G<17 79.186> 344 50<158 471> 666 50<217 563>
DStem2: 17 0 75 0 0.207912 0.978148<12.0589 363.511 414.706 693.029>
LayerCount: 2
Fore
SplineSet
471 344 m 1
 147 344 l 1
 75 0 l 1
 17 0 l 1
 168 716 l 1
 573 716 l 1
 563 666 l 1
 217 666 l 1
 158 394 l 1
 481 394 l 1
 471 344 l 1
EndSplineSet
EndChar

StartChar: G
Encoding: 71 71 40
Width: 639
VWidth: 1504
Flags: W
HStem: -8 49<186.853 424.48> 310 48<347 519> 674 50<333.187 571.781>
DStem2: 452.72 -8 509.111 -8 0.207912 0.978148<74.8909 324.831>
LayerCount: 2
Fore
SplineSet
587 358 m 1
 514 15 l 1
 506.667 21 496.667 24 484 24 c 1
 391.5 8 l 0
 329.833 -2.66667 289 -8 269 -8 c 0
 177.667 -8 111.833 25.5 71.5 92.5 c 0
 31.1667 159.5 22.3333 248.667 45 360 c 1
 68.3333 466 115.667 552 187 618 c 0
 261 688 349 723.333 451 724 c 0
 524.333 724 586 711.667 636 687 c 1
 608 639 l 1
 552.667 662.333 496 674 438 674 c 0
 362.667 674 293.333 644.333 230 585 c 0
 166.667 525.666 125 450 105 358 c 0
 83.6667 260 88.8333 182.667 120.5 126 c 0
 152.167 69.3333 208.333 41 289 41 c 0
 352.333 41 413 53.3333 471 78 c 1
 519 310 l 1
 337 310 l 1
 347 358 l 1
 587 358 l 1
EndSplineSet
EndChar

StartChar: H
Encoding: 72 72 41
Width: 663
VWidth: 1504
Flags: W
HStem: 0 21G<17 79.2135 459 521.246> 356 50<161 534> 696 20G<163.782 227 606.742 669>
DStem2: 17 0 75 0 0.207912 0.978148<12.0589 375.873 427.067 731.748> 459 0 517 0 0.207912 0.978148<12.0589 363.814 415.008 731.956>
LayerCount: 2
Fore
SplineSet
517 0 m 1
 459 0 l 1
 534 356 l 1
 150 356 l 1
 75 0 l 1
 17 0 l 1
 168 716 l 1
 227 716 l 1
 161 406 l 1
 545 406 l 1
 611 716 l 1
 669 716 l 1
 517 0 l 1
EndSplineSet
EndChar

StartChar: I
Encoding: 73 73 42
Width: 221
VWidth: 1504
Flags: W
HStem: 0 21G<17 79.2458> 696 20G<163.782 227>
VStem: 17 210
DStem2: 17 0 75 0 0.207912 0.978148<12.0589 731.748>
LayerCount: 2
Fore
SplineSet
75 0 m 1
 17 0 l 1
 168 716 l 1
 227 716 l 1
 75 0 l 1
EndSplineSet
EndChar

StartChar: J
Encoding: 74 74 43
Width: 397
VWidth: 1504
Flags: W
HStem: -14 52<-48.4205 139.541> 696 20G<339.751 403>
DStem2: 188.885 -14 248.073 -14 0.207912 0.978148<128.775 746.298>
LayerCount: 2
Fore
SplineSet
301 235 m 2
 265.667 69.6667 178 -13.3333 38 -14 c 0
 0 -14 -33.6667 -6.33333 -63 9 c 1
 -39 56 l 1
 -17.6667 44 11.3333 38 48 38 c 0
 100 38 141.667 53.1667 173 83.5 c 0
 204.333 113.833 228.333 169.333 245 250 c 2
 344 716 l 1
 403 716 l 1
 301 235 l 2
EndSplineSet
EndChar

StartChar: K
Encoding: 75 75 44
Width: 565
VWidth: 1504
Flags: W
HStem: 0 13G<17 79.1892 453.612 517.818> 696 20G<163.782 227 560.524 641>
DStem2: 15.2995 -8 73.2995 -8 0.207912 0.978148<20.2376 322.66 400.326 739.927> 153 372 230 373 0.774231 0.632903<0 60.2487 123.011 557.883> 280 411 230 373 0.522058 -0.85291<6.30767 454.472>
LayerCount: 2
Fore
SplineSet
523 14 m 1
 466 -8 l 1
 230 373 l 1
 137 296 l 1
 75 0 l 1
 17 0 l 1
 168 716 l 1
 227 716 l 1
 153 372 l 1
 585 725 l 1
 641 708 l 1
 280 411 l 1
 523 14 l 1
EndSplineSet
EndChar

StartChar: L
Encoding: 76 76 45
Width: 530
VWidth: 1504
Flags: W
HStem: 0 50<86 427> 696 20G<163.782 227>
DStem2: 17 0 75.3722 0 0.207912 0.978148<63.2533 731.748>
LayerCount: 2
Fore
SplineSet
427 0 m 1
 17 0 l 1
 168 716 l 1
 227 716 l 1
 86 50 l 1
 438 50 l 1
 427 0 l 1
EndSplineSet
EndChar

StartChar: M
Encoding: 77 77 46
Width: 824
VWidth: 1504
Flags: W
HStem: 0 21G<-5 56.6646 324.899 378.582 644 701.877> 696 20G<191.358 269.022 721.474 802>
DStem2: -5 0 51 0 0.271524 0.962432<15.2053 672.065> 266 716 230 632 0.149395 -0.988778<77.6791 649.286> 363 74 367 0 0.499333 0.86641<0 668.21> 644 0 699 0 0.142389 0.989811<7.83139 638.233>
LayerCount: 2
Fore
SplineSet
699 0 m 1
 644 0 l 1
 733 632 l 1
 367 0 l 1
 328 0 l 1
 230 632 l 1
 51 0 l 1
 -5 0 l 1
 197 716 l 1
 266 716 l 1
 363 74 l 1
 733 716 l 1
 802 716 l 1
 699 0 l 1
EndSplineSet
EndChar

StartChar: N
Encoding: 78 78 47
Width: 663
VWidth: 1504
Flags: W
HStem: 0 21G<17 81.2338 448.259 521.246> 696 20G<163.782 243.756 607.705 669>
DStem2: 17 0 77 0 0.207912 0.978148<12.4747 659.502> 236 716 211 633 0.360953 -0.932584<68.3807 669.283> 458.445 0 517 0 0.207912 0.978148<94.0553 732.28>
LayerCount: 2
Fore
SplineSet
517 0 m 1
 456 0 l 1
 211 633 l 1
 77 0 l 1
 17 0 l 1
 168 716 l 1
 236 716 l 1
 478 92 l 1
 612 716 l 1
 669 716 l 1
 517 0 l 1
EndSplineSet
EndChar

StartChar: O
Encoding: 79 79 48
Width: 731
VWidth: 1504
Flags: W
HStem: -15 51<208.527 415.125> 677 51<336.253 542.527>
LayerCount: 2
Fore
SplineSet
708 356 m 256
 684.665 248.667 634.832 160 558.5 90 c 0
 482.167 20 394.667 -15 296 -15 c 256
 198 -15 125.667 20.1667 79 90.5 c 0
 32.3333 160.833 20.6667 249.333 44 356 c 256
 67.3333 463.333 117 552.167 193 622.5 c 0
 269 692.833 356 728 454 728 c 256
 552 728 624.667 692.833 672 622.5 c 0
 719.333 552.167 731.333 463.333 708 356 c 256
650 356 m 256
 669.333 444 659.833 519.5 621.5 582.5 c 0
 583.167 645.5 524 677 444 677 c 256
 364 677 291.833 645.667 227.5 583 c 0
 163.167 520.333 121.333 444.667 102 356 c 256
 82.6667 268 92.1667 192.667 130.5 130 c 0
 168.833 67.3333 228 36 308 36 c 256
 388 36 460.167 67.3333 524.5 130 c 0
 588.833 192.667 630.667 268 650 356 c 256
EndSplineSet
EndChar

StartChar: P
Encoding: 80 80 49
Width: 568
VWidth: 1504
Flags: W
HStem: 0 21G<17 79.186> 292 49<150.225 366.815> 672 52<214.582 451.86>
DStem2: 17 0 75 0 0.207912 0.978148<12.0589 320.354 371.752 699.817>
LayerCount: 2
Fore
SplineSet
564 517 m 0
 548 441.667 505.333 383.667 436 343 c 0
 376.667 307.667 308 290.667 230 292 c 0
 198 292 167.333 295 138 301 c 1
 75 0 l 1
 17 0 l 1
 167 708 l 1
 229 718 287.667 723.333 343 724 c 0
 415 724 472 707.333 514 674 c 0
 561.333 635.333 578 583 564 517 c 0
507 513 m 256
 530.333 619 471.667 672 331 672 c 0
 281 672 242.333 669.667 215 665 c 1
 149 352 l 1
 175 344.667 209.667 341 253 341 c 1
 399 349.667 483.667 407 507 513 c 256
EndSplineSet
EndChar

StartChar: Q
Encoding: 81 81 50
Width: 732
VWidth: 1504
Flags: W
HStem: -101 56<473.823 555.125> -15 51<209.233 344.926> 677 51<336.253 542.527>
LayerCount: 2
Fore
SplineSet
708 356 m 0
 690 270 653 194.333 597 129 c 0
 537.666 61 468 17.3333 388 -2 c 1
 442 -27.3333 507.333 -41.6667 584 -45 c 1
 551 -101 l 1
 457 -77.6667 372 -49 296 -15 c 1
 198 -15 125.667 20.1667 79 90.5 c 0
 32.3333 160.833 20.6667 249.333 44 356 c 256
 67.3333 463.333 117 552.167 193 622.5 c 0
 269 692.833 356 728 454 728 c 256
 552 728 624.667 692.833 672 622.5 c 0
 719.333 552.167 731.333 463.333 708 356 c 0
650 356 m 256
 669.333 444 659.833 519.5 621.5 582.5 c 0
 583.167 645.5 524 677 444 677 c 256
 364 677 291.833 645.667 227.5 583 c 0
 163.167 520.333 121.333 444.667 102 356 c 256
 82.6667 268 92.1667 192.667 130.5 130 c 0
 168.833 67.3333 228 36 308 36 c 256
 388 36 460.167 67.3333 524.5 130 c 0
 588.833 192.667 630.667 268 650 356 c 256
EndSplineSet
EndChar

StartChar: R
Encoding: 82 82 51
Width: 570
VWidth: 1504
Flags: W
HStem: 0 21G<17 79.2331 417 476.667> 326 47<153 352.499> 672 52<214.33 456.861>
VStem: 417 57<0 222.377>
DStem2: 17 0 75 0 0.207912 0.978148<12.0589 345.281 393.125 697.969>
LayerCount: 2
Fore
SplineSet
474 0 m 1
 417 0 l 1
 436.333 217.333 391.666 326 283 326 c 2
 144 326 l 1
 75 0 l 1
 17 0 l 1
 165 707 l 1
 224.333 718.333 284.667 724 346 724 c 0
 423.333 722.664 481 707.331 519 678 c 0
 564.333 644 580.333 595 567 531 c 0
 547.667 441.667 488 380 388 346 c 1
 435.333 316.667 464 262.667 474 184 c 0
 479.333 142.667 479.333 81.3333 474 0 c 1
508 523 m 0
 530 622.333 472.333 672 335 672 c 0
 279.667 672 239.667 668.667 215 662 c 1
 153 373 l 1
 287 373 l 2
 346.333 373 395.5 386.167 434.5 412.5 c 0
 473.5 438.834 498 475.667 508 523 c 0
EndSplineSet
EndChar

StartChar: S
Encoding: 83 83 52
Width: 529
VWidth: 1504
Flags: W
HStem: -14 50<71.1879 294.051> 680 50<262.632 471.984>
LayerCount: 2
Fore
SplineSet
456 187 m 0
 444 133 415 87.6667 369 51 c 1
 315.667 7.66667 249.333 -14 170 -14 c 0
 92 -14 30.3333 4.33333 -15 41 c 1
 18 92 l 1
 60 54.6667 116.333 36 187 36 c 0
 243 36 289.833 49.3333 327.5 76 c 0
 365.167 102.667 388.333 138 397 182 c 0
 406.332 222 401.165 254.333 381.5 279 c 0
 361.833 303.667 325.333 325 272 343 c 0
 147.333 386.334 94.6666 453.667 114 545 c 0
 126 598.333 156.333 642.5 205 677.5 c 0
 253.667 712.5 311.333 730 378 730 c 0
 445.334 730 496.667 717.333 532 692 c 1
 520 674.667 508.667 659 498 645 c 1
 460 668.333 416 680 366 680 c 0
 310 680 263.333 665.333 226 636 c 0
 196.667 612 179 584 173 552 c 1
 157.667 486 199.667 435 299 399 c 0
 363 375 407.333 348.667 432 320 c 0
 460 287.333 468 243 456 187 c 0
EndSplineSet
EndChar

StartChar: T
Encoding: 84 84 53
Width: 570
VWidth: 1504
Flags: W
HStem: 0 21G<193 254.234> 666 50<80 334 391 654>
DStem2: 193 0 250 0 0.207912 0.978148<11.851 680.762>
LayerCount: 2
Fore
SplineSet
654 666 m 1
 391 666 l 1
 250 0 l 1
 193 0 l 1
 334 666 l 1
 69 666 l 1
 80 716 l 1
 665 716 l 1
 654 666 l 1
EndSplineSet
EndChar

StartChar: U
Encoding: 85 85 54
Width: 700
VWidth: 1504
Flags: W
HStem: -14 50<200.475 393.309> 696 20G<163.749 227 643.728 707>
DStem2: 12.8321 -14 70.407 -14 0.207912 0.978148<199.951 746.309> 492.407 -14 550.832 -14 0.207912 0.978148<174.734 746.397>
LayerCount: 2
Fore
SplineSet
618 302 m 1
 574 91.3333 462.333 -14 283 -14 c 256
 103.667 -14 36 91.3333 80 302 c 1
 168 716 l 1
 227 716 l 1
 138 304 l 2
 118 210 123.167 141.833 153.5 99.5 c 0
 183.833 57.1667 230.333 36 293 36 c 0
 357 36 412.667 57 460 99 c 0
 507.333 141 540.667 209.333 560 304 c 1
 648 716 l 1
 707 716 l 1
 618 302 l 1
EndSplineSet
EndChar

StartChar: V
Encoding: 86 86 55
Width: 586
VWidth: 1504
Flags: W
HStem: 0 21G<193.927 271.564> 696 20G<87 155.747 596.704 674>
DStem2: 153 716 87 716 0.15185 -0.988404<0 654> 242 68 260 0 0.50056 0.865702<0 744.18>
LayerCount: 2
Fore
SplineSet
674 716 m 1
 260 0 l 1
 197 0 l 1
 87 716 l 1
 153 716 l 1
 242 68 l 1
 608 716 l 1
 674 716 l 1
EndSplineSet
EndChar

StartChar: W
Encoding: 87 87 56
Width: 884
VWidth: 1504
Flags: W
HStem: 0 21G<150.184 224.2 539.2 613.307> 696 20G<87 154.358 486.772 563.679 896.093 972>
VStem: 87 66<638.892 716> 514 49<509.818 650> 540 45<68 175>
DStem2: 197 68 215 0 0.417906 0.90849<0 661.218> 585 68 603 0 0.458105 0.888898<0 723.058>
LayerCount: 2
Fore
SplineSet
972 716 m 1xe8
 603 0 l 1
 540 0 l 1xe8
 514 650 l 1
 215 0 l 1
 152 0 l 1
 87 716 l 1
 153 716 l 1
 197 68 l 1
 496 716 l 1
 563 716 l 1xf0
 585 68 l 1
 906 716 l 1
 972 716 l 1xe8
EndSplineSet
EndChar

StartChar: X
Encoding: 88 88 57
Width: 628
VWidth: 1504
Flags: W
HStem: 0 21G<-39 47.7709 459.588 539> 696 20G<123 202.946 591.428 680>
DStem2: -39 0 30 0 0.672158 0.740408<46.3789 478.44 549.099 965.69> 194 716 123 716 0.435101 -0.900382<0 342.734 407.367 764.326>
LayerCount: 2
Fore
SplineSet
539 0 m 1
 469 0 l 1
 317 323 l 1
 30 0 l 1
 -39 0 l 1
 292 367 l 1
 123 716 l 1
 194 716 l 1
 334 403 l 1
 609 716 l 1
 680 716 l 1
 361 367 l 1
 539 0 l 1
EndSplineSet
EndChar

StartChar: Y
Encoding: 89 89 58
Width: 550
VWidth: 1504
Flags: W
HStem: 0 21G<182 243.177> 696 20G<87 162.543 553.829 638>
DStem2: 155 716 87 716 0.371789 -0.928317<0 373.987> 182 0 239 0 0.207912 0.978148<11.851 320.861> 287 366 305 316 0.639806 0.768536<0 450.053>
LayerCount: 2
Fore
SplineSet
638 716 m 1
 305 316 l 1
 239 0 l 1
 182 0 l 1
 248 314 l 1
 87 716 l 1
 155 716 l 1
 287 366 l 1
 570 716 l 1
 638 716 l 1
EndSplineSet
EndChar

StartChar: Z
Encoding: 90 90 59
Width: 637
VWidth: 1504
Flags: W
HStem: 0 50<56 537> 666 50<159 596>
DStem2: -23 39 56 50 0.702552 0.711632<63.3296 881.073>
LayerCount: 2
Fore
SplineSet
560 50 m 1
 537 0 l 1
 -32 0 l 1
 -23 39 l 1
 596 666 l 1
 140 666 l 1
 159 716 l 1
 681 716 l 1
 672 675 l 1
 56 50 l 1
 560 50 l 1
EndSplineSet
EndChar

StartChar: bracketleft
Encoding: 91 91 60
Width: 294
VWidth: 1504
Flags: HW
LayerCount: 2
Fore
SplineSet
197 -72 m 1
 188 -117 l 1
 -11 -117 l 1
 174 761 l 1
 375 761 l 1
 366 716 l 1
 218 716 l 1
 50 -72 l 1
 197 -72 l 1
EndSplineSet
EndChar

StartChar: backslash
Encoding: 92 92 61
Width: 394
VWidth: 1504
Flags: HW
LayerCount: 2
Fore
SplineSet
346 -42 m 1
 286 -42 l 1
 75 727 l 1
 134 727 l 1
 346 -42 l 1
EndSplineSet
EndChar

StartChar: bracketright
Encoding: 93 93 62
Width: 294
VWidth: 1504
Flags: HW
LayerCount: 2
Fore
SplineSet
128 -117 m 1
 -72 -117 l 1
 -63 -72 l 1
 83 -72 l 1
 251 716 l 1
 104 716 l 1
 113 761 l 1
 314 761 l 1
 128 -117 l 1
EndSplineSet
EndChar

StartChar: asciicircum
Encoding: 94 94 63
Width: 619
VWidth: 1504
Flags: HW
LayerCount: 2
Fore
SplineSet
424 722 m 1
 537 239 l 1
 481 239 l 1
 384 665 l 1
 105 239 l 1
 50 239 l 1
 370 722 l 1
 424 722 l 1
EndSplineSet
EndChar

StartChar: underscore
Encoding: 95 95 64
Width: 529
VWidth: 1504
Flags: HW
LayerCount: 2
Fore
SplineSet
415 -229 m 1
 406 -275 l 1
 -122 -275 l 1
 -113 -229 l 1
 415 -229 l 1
EndSplineSet
EndChar

StartChar: grave
Encoding: 96 96 65
Width: 306
VWidth: 1504
Flags: HW
LayerCount: 2
Fore
SplineSet
281 587 m 1
 235 587 l 1
 174 708 l 1
 236 724 l 1
 281 587 l 1
EndSplineSet
EndChar

StartChar: a
Encoding: 97 97 66
Width: 598
VWidth: 1504
Flags: W
HStem: -15 47<141.776 312.61> 472 48<244.921 438.594>
VStem: 24 57<93.6406 292.29>
DStem2: 396.112 -15 455.706 -15 0.207912 0.978148<141.857 454.46>
LayerCount: 2
Fore
SplineSet
481 104 m 2
 471.667 64 473.333 30 486 2 c 1
 427 -11 l 1
 415.667 25 413.333 59.6667 420 93 c 1
 364.667 21 294 -15 208 -15 c 0
 150 -15 104.833 1.83333 72.5 35.5 c 0
 40.1667 69.1667 24 114 24 170 c 0
 24 258 52.6667 337.333 110 408 c 0
 170 483.333 243 520.667 329 520 c 0
 418.333 521.333 494.333 496.333 557 445 c 1
 481 104 l 2
445 215 m 2
 492 420 l 1
 440.667 455.334 389 472.667 337 472 c 0
 263.667 470.667 201.333 438.333 150 375 c 1
 104 315 81 249 81 177 c 0
 81 133 93.8333 97.8333 119.5 71.5 c 0
 145.167 45.1667 181 32 227 32 c 0
 278.334 32 324.667 50.1667 366 86.5 c 0
 407.334 122.833 433.667 165.667 445 215 c 2
EndSplineSet
Substitution2: "Single Substitution lookup 58 subtable" uni0E38
EndChar

StartChar: b
Encoding: 98 98 67
Width: 603
VWidth: 1504
Flags: W
HStem: -14 50<167.558 360.426> 475 47<270.49 442.085>
DStem2: 8.53711 -14 68.7882 -14 0.207912 0.978148<183.733 422.363 449.93 791.488>
LayerCount: 2
Fore
SplineSet
551 262 m 0
 533.667 180 498.167 113.5 444.5 62.5 c 0
 390.833 11.5 327.333 -14 254 -14 c 0
 186 -14 135.167 2.66667 101.5 36 c 0
 67.8333 69.3333 51 112 51 164 c 0
 51 181.333 53 198 57 214 c 2
 174 760 l 1
 233 760 l 1
 159 414 l 1
 218.333 486 290.667 522 376 522 c 0
 447.333 522 498.333 497.5 529 448.5 c 0
 559.667 399.5 567 337.333 551 262 c 0
493 260 m 0
 507 323.333 502.333 375 479 415 c 0
 455.667 455 414.667 475 356 475 c 0
 308 475 263 458.667 221 426 c 1
 173.667 390.667 144.667 346 134 292 c 2
 113 194 l 2
 103 146 112 107.667 140 79 c 0
 168 50.3333 207 36 257 36 c 0
 383 36 461.667 110.667 493 260 c 0
EndSplineSet
Substitution2: "Single Substitution lookup 58 subtable" uni0E39
EndChar

StartChar: c
Encoding: 99 99 68
Width: 497
VWidth: 1504
Flags: W
HStem: -14 49<155.393 367.636> 474 48<239.119 452.055>
LayerCount: 2
Fore
SplineSet
397 71 m 1
 409 23 l 1
 361 -1 306 -13.3333 244 -14 c 0
 160 -14 98.8333 10.3333 60.5 59 c 0
 22.1667 107.667 11.6667 172.667 29 254 c 0
 47 335.333 85 400.333 143 449 c 0
 201 497.667 272 522 356 522 c 0
 418 522 468.333 510 507 486 c 1
 475 438 l 1
 443 462 399 474 343 474 c 0
 281.667 474 227.167 454.333 179.5 415 c 0
 131.833 375.667 100.667 322 86 254 c 0
 72 186 80.5 132.5 111.5 93.5 c 0
 142.5 54.5 188.667 35 250 35 c 0
 306 35 355 47 397 71 c 1
EndSplineSet
Substitution2: "Single Substitution lookup 58 subtable" uni0E3A
EndChar

StartChar: d
Encoding: 100 100 69
Width: 603
VWidth: 1504
Flags: W
HStem: -14 50<136.882 316.358> 475 47<224.854 401.188>
VStem: 427 59<2 87.4682>
DStem2: 397.45 -14 456.455 -14 0.207912 0.978148<133.145 400.226 437.681 791.506>
LayerCount: 2
Fore
SplineSet
486 125 m 2
 478 87.6667 478 46.6667 486 2 c 1
 427 -11 l 1
 421.667 23 420.667 56.3333 424 89 c 1
 364 21 294 -13.3333 214 -14 c 0
 140.667 -14 87.6667 11.3333 55 62 c 0
 22.3333 112.667 14.6667 179.333 32 262 c 0
 48 337.333 81.8333 399.5 133.5 448.5 c 0
 185.167 497.5 246.333 522 317 522 c 0
 402.334 522 459.667 486 489 414 c 1
 563 760 l 1
 621 760 l 1
 486 125 l 2
444 205 m 2
 463 290 l 1
 474.333 345.334 464.333 390.667 433 426 c 0
 405 459.334 367 475.668 319 475 c 0
 261 475 211.667 455 171 415 c 0
 130.333 375 103 323.333 89 260 c 0
 57.6667 110.667 105.333 36 232 36 c 0
 282 36 327.333 52.1667 368 84.5 c 0
 408.667 116.833 434 157 444 205 c 2
EndSplineSet
EndChar

StartChar: e
Encoding: 101 101 70
Width: 562
VWidth: 1504
Flags: W
HStem: -14 52<145.618 384.927> 202 49<84 367.837> 475 47<250.974 431.01>
VStem: 20 60<101.308 207.452> 465 52<319.422 442.451>
LayerCount: 2
Fore
SplineSet
517 381 m 0
 517 261.667 415.333 202 212 202 c 0
 174.667 202 131 204 81 208 c 1
 79.6667 200 79.3333 192.333 80 185 c 0
 80 87 137 38 251 38 c 0
 309 38 371.333 49.3333 438 72 c 1
 432 23 l 1
 368.667 -1 303 -13.3333 235 -14 c 0
 169.667 -14 117.5 3.66667 78.5 39 c 0
 39.5 74.3333 20 121.667 20 181 c 0
 20 276.333 53.3333 358 120 426 c 0
 184 490 257.667 522 341 522 c 0
 458.333 522 517 475 517 381 c 0
465 382 m 0
 465 444 423.667 475 341 475 c 0
 289.667 475 239.333 454.667 190 414 c 0
 136.667 370 101.333 317.333 84 256 c 1
 125.333 252.667 162 251 194 251 c 0
 374.667 251 465 294.667 465 382 c 0
EndSplineSet
EndChar

StartChar: f
Encoding: 102 102 71
Width: 309
VWidth: 1504
Flags: W
HStem: -235 50<-211.042 -61.9091> 465 46<51 126 196 332> 722 50<291.972 441.042>
DStem2: -21.2261 -235 37.7739 -235 0.207912 0.978148<119.212 715.313 774.862 922.616>
LayerCount: 2
Fore
SplineSet
332 465 m 1
 185 465 l 1
 89 6 l 1
 53.6667 -154.667 -24.6667 -235 -146 -235 c 0
 -184 -235 -210.667 -227 -226 -211 c 1
 -200 -168 l 1
 -180.667 -179.333 -157.667 -185 -131 -185 c 0
 -51 -185 2.66667 -121.333 30 6 c 2
 126 465 l 1
 41 465 l 1
 51 511 l 1
 138 511 l 1
 143 531 l 1
 177 691.667 254.667 772 376 772 c 0
 414 772 440.667 764 456 748 c 1
 430 705 l 1
 410.667 716.333 387.667 722 361 722 c 0
 281 722 227.333 658.333 200 531 c 1
 196 511 l 1
 343 511 l 1
 332 465 l 1
EndSplineSet
EndChar

StartChar: g
Encoding: 103 103 72
Width: 467
VWidth: 1504
Flags: W
HStem: -236 51<34.8234 217.191> 159 46<144.114 291.537> 468 45<189.707 335.332 387 459.889>
LayerCount: 2
Fore
SplineSet
421 343 m 0
 409 287 382.167 242.333 340.5 209 c 0
 298.833 175.667 252.667 159 202 159 c 0
 170.667 159 145 164.667 125 176 c 1
 115.667 160.667 109.667 146 107 132 c 0
 101.667 106 137.333 81.6667 214 59 c 0
 304 31.6667 341.333 -17.6667 326 -89 c 0
 316.667 -132.333 293.667 -167.667 257 -195 c 0
 220.333 -222.333 171.667 -236 111 -236 c 0
 57.6667 -236 12.6667 -222.667 -24 -196 c 1
 6 -147 l 1
 43.3333 -172.333 83.3333 -185 126 -185 c 0
 163.333 -185 196 -176.5 224 -159.5 c 0
 252 -142.5 268.667 -120.333 274 -93 c 1
 285.333 -45 253.666 -8 179 18 c 0
 133.667 33.3333 103.667 47 89 59 c 1
 61.6667 78.3334 51 102.667 57 132 c 0
 61 150 71 174.333 87 205 c 1
 59 245 49.6667 287.333 59 332 c 0
 71 386 97.5 429.667 138.5 463 c 0
 179.5 496.333 223 513 269 513 c 2
 469 513 l 1
 459 465 l 1
 387 472 l 1
 419.667 432 431 389 421 343 c 0
369 335 m 0
 376.33 368.333 371.664 397.667 355 423 c 1
 337.667 453 308.667 468 268 468 c 0
 228 468 193.833 454.667 165.5 428 c 0
 137.167 401.333 119.667 370 113 334 c 1
 103.667 294 110 262 132 238 c 0
 152 216 178.333 205 211 205 c 0
 247 205 280 216.333 310 239 c 0
 340 261.667 359.667 293.667 369 335 c 0
EndSplineSet
EndChar

StartChar: h
Encoding: 104 104 73
Width: 586
VWidth: 1504
Flags: W
HStem: 0 10G<14 76.1936 405.333 469> 474 48<258.907 414.305>
DStem2: 11.6619 -11 69.6619 -11 0.207912 0.978148<23.3046 425.329 452.631 787.904> 383.532 -11 440.556 -11 0.207912 0.978148<36.0758 414.257>
LayerCount: 2
Fore
SplineSet
469 2 m 1
 411 -11 l 1
 399.667 23 397.667 56.6667 405 90 c 2
 447 290 l 2
 472.333 412.667 433.666 474 331 474 c 0
 289.667 474 249.167 456.667 209.5 422 c 0
 169.833 387.333 145.667 350 137 310 c 2
 72 0 l 1
 14 0 l 1
 174 760 l 1
 233 760 l 1
 161 420 l 1
 216.333 488 280.333 522 353 522 c 0
 486.333 522 537 444.667 505 290 c 1
 465 104 l 1
 456.34 62 457.674 28 469 2 c 1
EndSplineSet
EndChar

StartChar: i
Encoding: 105 105 74
Width: 215
VWidth: 1504
Flags: W
HStem: 0 21G<14 76.2661> 491 20G<117.773 181> 620 94<147.353 218.316>
VStem: 14 216
DStem2: 14 0 72 0 0.207912 0.978148<12.0589 522.288> 135 666 230 666 0.359589 0.933111<-20.4703 57.7947>
LayerCount: 2
Fore
SplineSet
72 0 m 1
 14 0 l 1
 122 511 l 1
 181 511 l 1
 72 0 l 1
230 666 m 256
 226.667 652 219.667 640.833 209 632.5 c 0
 198.333 624.167 185.667 620 171 620 c 256
 157 620 146.833 624.167 140.5 632.5 c 0
 134.166 640.833 132.332 652 135 666 c 256
 138.333 680 145 691.5 155 700.5 c 0
 165 709.5 177 714 191 714 c 256
 205 714 215.833 709.5 223.5 700.5 c 0
 231.168 691.5 233.335 680 230 666 c 256
EndSplineSet
EndChar

StartChar: j
Encoding: 106 106 75
Width: 233
VWidth: 1504
Flags: W
HStem: -223 47<-164 -78.7105> 491 20G<135.702 199> 620 94<165.495 236.316>
DStem2: -17.1391 -223 42.2618 -223 0.207912 0.978148<123.142 750.631> 153 666 248 666 0.359589 0.933111<-20.7493 57.7947>
LayerCount: 2
Fore
SplineSet
92 11 m 1
 58 -141.667 -28.6667 -219.667 -168 -223 c 1
 -164 -176 l 1
 -94 -170 -43.3333 -146 -12 -104 c 1
 8 -74.6667 24 -31 36 27 c 2
 140 511 l 1
 199 511 l 1
 92 11 l 1
248 666 m 256
 244.667 652 237.667 640.833 227 632.5 c 0
 216.333 624.167 204 620 190 620 c 256
 176 620 165.667 624.167 159 632.5 c 0
 152.333 640.833 150.333 652 153 666 c 256
 156.333 680 163 691.5 173 700.5 c 0
 183 709.5 195 714 209 714 c 256
 223 714 233.833 709.5 241.5 700.5 c 0
 249.169 691.5 251.335 680 248 666 c 256
EndSplineSet
EndChar

StartChar: k
Encoding: 107 107 76
Width: 475
VWidth: 1504
Flags: W
HStem: 0 6G<14 76.186 350.975 427> 499 20G<410.37 493>
DStem2: 10.8117 -15 68.8117 -15 0.207912 0.978148<27.394 247.052 314.52 791.993> 131 281 181 266 0.789804 0.613359<0 30.2898 89.2311 386.87> 230 299 181 266 0.552756 -0.833343<0.41527 335.739>
LayerCount: 2
Fore
SplineSet
427 2 m 1
 364 -15 l 1
 181 266 l 1
 117 215 l 1
 72 0 l 1
 14 0 l 1
 174 760 l 1
 233 760 l 1
 131 281 l 1
 436 519 l 1
 493 507 l 1
 230 299 l 1
 427 2 l 1
EndSplineSet
EndChar

StartChar: l
Encoding: 108 108 77
Width: 300
VWidth: 1504
Flags: W
HStem: -11 52<148.5 200>
DStem2: 11.0348 -11 69.146 -11 0.207912 0.978148<148.29 788.034>
LayerCount: 2
Fore
SplineSet
217 41 m 1
 200 -11 l 1
 74.6667 -5 30.6667 84.3333 68 257 c 2
 174 760 l 1
 233 760 l 1
 131 280 l 2
 115.667 206.667 111 153.333 117 120 c 0
 125.667 68.6666 159 42.3333 217 41 c 1
EndSplineSet
EndChar

StartChar: m
Encoding: 109 109 78
Width: 904
VWidth: 1504
Flags: W
HStem: 0 10G<14 76.1936 358 421.123 722.333 787> 474 48<255.808 399.657 590.521 731.823>
VStem: 95 58<421.533 509.448>
DStem2: 11.6619 -11 69.6619 -11 0.207912 0.978148<23.3046 425.28> 355.662 -11 414.662 -11 0.207912 0.978148<23.5125 430.92> 700.532 -11 757.556 -11 0.207912 0.978148<38.1497 411.27>
LayerCount: 2
Fore
SplineSet
782 104 m 1
 774 62 775.667 28 787 2 c 1
 728 -11 l 1
 716.667 23 714.667 56.6667 722 90 c 2
 761 283 l 1
 774.333 341 772.667 387.333 756 422 c 0
 739.333 456.667 708.333 474 663 474 c 0
 623.667 474 586 458.667 550 428 c 0
 514 397.333 492 363 484 325 c 2
 417 0 l 1
 358 0 l 1
 423 310 l 2
 446.333 419.333 414.666 474 328 474 c 0
 288 474 248.333 456.667 209 422 c 0
 169.667 387.333 145.667 350 137 310 c 2
 72 0 l 1
 14 0 l 1
 99 406 l 2
 107 448 105.667 482 95 508 c 1
 153 520 l 1
 164.333 486 166.333 452.667 159 420 c 1
 212.333 488 276.667 522 352 522 c 0
 421.333 522 465 484 483 408 c 1
 539 484 608 522 690 522 c 0
 746 522 785.667 500.667 809 458 c 0
 832.333 415.333 836.333 357.333 821 284 c 2
 782 104 l 1
EndSplineSet
EndChar

StartChar: n
Encoding: 110 110 79
Width: 586
VWidth: 1504
Flags: W
HStem: 0 10G<14 76.1936 406.333 471> 474 48<255.573 414.305>
VStem: 95 58<421.533 509.448>
DStem2: 11.6619 -11 69.6619 -11 0.207912 0.978148<23.3046 425.329> 384.532 -11 441.556 -11 0.207912 0.978148<38.1497 409.792>
LayerCount: 2
Fore
SplineSet
466 104 m 2
 458 62 459.667 28 471 2 c 1
 412 -11 l 1
 400.667 23 398.667 56.6667 406 90 c 2
 447 290 l 2
 472.333 412.667 433.666 474 331 474 c 0
 289.667 474 249.167 456.667 209.5 422 c 0
 169.833 387.333 145.667 350 137 310 c 2
 72 0 l 1
 14 0 l 1
 99 406 l 2
 107 448 105.667 482 95 508 c 1
 153 520 l 1
 164.333 486 166.333 452.667 159 420 c 1
 212.333 488 277 522 353 522 c 0
 486.333 522 537 444.667 505 290 c 2
 466 104 l 2
EndSplineSet
EndChar

StartChar: o
Encoding: 111 111 80
Width: 598
VWidth: 1504
Flags: W
HStem: -15 50<154.461 335.717> 472 50<239.15 419.744>
LayerCount: 2
Fore
SplineSet
545 254 m 256
 529 178.667 491.833 115 433.5 63 c 0
 375.167 11 307.333 -15 230 -15 c 256
 152.667 -15 96 11 60 63 c 0
 24 115 14 178.667 30 254 c 256
 46 329.333 83.1667 392.833 141.5 444.5 c 0
 199.833 496.167 267.333 522 344 522 c 256
 421.333 522 478.167 496.167 514.5 444.5 c 0
 550.833 392.833 561 329.333 545 254 c 256
487 254 m 0
 501 316 493.5 367.833 464.5 409.5 c 0
 435.5 451.167 392 472 334 472 c 256
 276 472 223.833 451.167 177.5 409.5 c 0
 131.167 367.833 101 316 87 254 c 0
 73.6667 192 81.3333 140 110 98 c 0
 138.667 56 182.333 35 241 35 c 256
 299 35 351.167 56 397.5 98 c 0
 443.834 140 473.667 192 487 254 c 0
EndSplineSet
EndChar

StartChar: p
Encoding: 112 112 81
Width: 603
VWidth: 1504
Flags: W
HStem: -14 47<179.246 357.249> 472 50<263.396 440.132>
DStem2: -39 -251 18 -251 0.207912 0.978148<11.851 365.676 404.133 669.952 694.716 760.556>
LayerCount: 2
Fore
SplineSet
493 248 m 1
 507 318 502 372.833 478 412.5 c 0
 454 452.167 411 472 349 472 c 0
 299 472 253.667 456 213 424 c 0
 172.333 392 146.333 352 135 304 c 2
 117 218 l 2
 105.667 162.667 115.667 117.667 147 83 c 0
 175 49.6667 213.333 33 262 33 c 0
 320 33 370.667 53.6667 414 95 c 1
 452.667 133.667 479 184.667 493 248 c 1
548 247 m 0
 532 171.667 498.667 110.333 448 63 c 1
 396 11.6667 334.333 -14 263 -14 c 0
 177.667 -14 120.667 22.3333 92 95 c 1
 18 -251 l 1
 -39 -251 l 1
 99 405 l 2
 107 447 105.667 481 95 507 c 1
 153 519 l 1
 164.333 485 165 451.333 155 418 c 1
 216.333 487.333 287 522 367 522 c 0
 440.333 522 493.333 496.667 526 446 c 0
 558.667 395.333 566 329 548 247 c 0
EndSplineSet
EndChar

StartChar: q
Encoding: 113 113 82
Width: 603
VWidth: 1504
Flags: W
HStem: -15 47<141.776 313.433> 472 48<244.921 441.82>
VStem: 24 57<93.6406 292.29>
DStem2: 350 -253 409 -253 0.207912 0.978148<12.2668 353.825 385.07 697.662>
LayerCount: 2
Fore
SplineSet
561 445 m 1
 409 -253 l 1
 350 -253 l 1
 424 93 l 1
 366 21 294 -15 208 -15 c 0
 150 -15 104.833 1.83333 72.5 35.5 c 0
 40.1667 69.1667 24 114 24 170 c 0
 24 258 52.6667 337.333 110 408 c 0
 170 483.333 243 520.667 329 520 c 0
 421.667 521.333 499 496.333 561 445 c 1
450 215 m 2
 496 420 l 1
 444.667 455.334 391.667 472.667 337 472 c 0
 263.667 470.667 201.333 438.333 150 375 c 1
 104 315 81 249 81 177 c 0
 81 133 93.8333 97.8333 119.5 71.5 c 0
 145.167 45.1667 181 32 227 32 c 0
 278.333 32 325.5 50.1667 368.5 86.5 c 0
 411.5 122.833 438.667 165.667 450 215 c 2
EndSplineSet
EndChar

StartChar: r
Encoding: 114 114 83
Width: 326
VWidth: 1504
Flags: W
HStem: 0 21G<14 76.1455> 471 51<248.365 349.395>
DStem2: 14 0 72 0 0.207912 0.978148<12.0589 400.104 428.338 501.91>
LayerCount: 2
Fore
SplineSet
347 469 m 1
 343.667 470.333 337.667 471 329 471 c 0
 251.667 471 190.667 422.667 146 326 c 0
 140 314.667 134.333 297.667 129 275 c 2
 72 0 l 1
 14 0 l 1
 98 406 l 2
 106 448 104.333 482 93 508 c 1
 152 520 l 1
 163.333 486 162.667 449 150 409 c 1
 198 484.333 257.667 522 329 522 c 0
 338.333 522 348 521 358 519 c 1
 347 469 l 1
EndSplineSet
EndChar

StartChar: s
Encoding: 115 115 84
Width: 424
VWidth: 1504
Flags: W
HStem: -14 50<48.75 230.16> 475 47<181.355 344.91>
LayerCount: 2
Fore
SplineSet
337 135 m 1
 327 91.6666 303 56 265 28 c 0
 227 0 178.667 -14 120 -14 c 0
 70 -14 25 -0.333334 -15 27 c 1
 17 75 l 1
 60.3333 49 99.6667 36 135 36 c 0
 219 36 267.667 67.6667 281 131 c 0
 291 180.333 259.667 217 187 241 c 0
 101 269 64.6667 315 78 379 c 0
 86 418.333 107.833 452 143.5 480 c 0
 179.167 508 223.667 522 277 522 c 256
 330.333 522 370 510.333 396 487 c 1
 363 439 l 1
 337.667 463 302.333 475 257 475 c 0
 225 475 198 466.5 176 449.5 c 0
 154 432.5 140.333 411.667 135 387 c 0
 127 347 159.333 313.333 232 286 c 0
 316 254.667 351 204.333 337 135 c 1
EndSplineSet
EndChar

StartChar: t
Encoding: 116 116 85
Width: 357
VWidth: 1504
Flags: W
HStem: -14 52<141.929 256.439> 465 46<53 144 214 367>
DStem2: 42.1854 -14 101.185 -14 0.207912 0.978148<96.5602 489.701 549.25 692.315>
LayerCount: 2
Fore
SplineSet
260 47 m 1
 257 0 l 1
 235 -9.33333 207.333 -14 174 -14 c 0
 130 -14 100 3.33333 84 38 c 0
 70 68 68 105.333 78 150 c 2
 144 465 l 1
 42 465 l 1
 53 511 l 1
 155 511 l 1
 187 663 l 1
 251 690 l 1
 214 511 l 1
 378 511 l 1
 367 465 l 1
 203 465 l 1
 137 152 l 2
 121 76 138.667 38 190 38 c 0
 220.667 38 244 41 260 47 c 1
EndSplineSet
EndChar

StartChar: u
Encoding: 117 117 86
Width: 586
VWidth: 1504
Flags: W
HStem: -14 52<146.847 301.235> 500 11G<95 158.667 488.728 552>
VStem: 95 58<295.703 509.448> 411 58<2 87.4682>
DStem2: 9.41154 -14 69.0734 -14 0.207912 0.978148<144.78 522.878> 381.088 -14 439.455 -14 0.207912 0.978148<132.079 536.795>
LayerCount: 2
Fore
SplineSet
469 2 m 1
 411 -11 l 1
 405.667 23 404.667 56.3333 408 89 c 1
 350 21 278.667 -13.3333 194 -14 c 0
 71.3333 -14 26.6667 65.3333 60 224 c 2
 99 406 l 1
 107 448 105.667 482 95 508 c 1
 153 520 l 1
 164.333 486 167 452.667 161 420 c 2
 122 235 l 2
 94 103.667 126 38 218 38 c 0
 261.333 38 303.333 52 344 80 c 0
 389.333 112 417 152.667 427 202 c 2
 493 511 l 1
 552 511 l 1
 469 125 l 2
 461 88.3333 461 47.3333 469 2 c 1
EndSplineSet
EndChar

StartChar: v
Encoding: 118 118 87
Width: 512
VWidth: 1504
Flags: W
HStem: 0 21G<156.577 227.229> 491 20G<48 112.196 479.054 552>
DStem2: 108 511 48 511 0.215919 -0.976411<0 457.729> 202 63 214 0 0.551683 0.834054<0 533.644>
LayerCount: 2
Fore
SplineSet
552 511 m 1
 214 0 l 1
 161 0 l 1
 48 511 l 1
 108 511 l 1
 202 63 l 1
 492 511 l 1
 552 511 l 1
EndSplineSet
EndChar

StartChar: w
Encoding: 119 119 88
Width: 762
VWidth: 1504
Flags: W
HStem: 0 21G<104.691 172.086 460.694 525.429> 491 20G<48 111.81 387.733 456.262 736.959 806>
DStem2: 110 511 48 511 0.114698 -0.9934<0 443.671> 150 69 161 0 0.484819 0.874614<0 460.641> 454 511 411 451 0.114541 -0.993419<54.6799 444.818> 504 69 514 0 0.496139 0.868243<0 504.821>
LayerCount: 2
Fore
SplineSet
806 511 m 1
 514 0 l 1
 463 0 l 1
 411 451 l 1
 161 0 l 1
 107 0 l 1
 48 511 l 1
 110 511 l 1
 150 69 l 1
 399 511 l 1
 454 511 l 1
 504 69 l 1
 748 511 l 1
 806 511 l 1
EndSplineSet
EndChar

StartChar: x
Encoding: 120 120 89
Width: 478
VWidth: 1504
Flags: W
HStem: 0 21G<-65 22.638 332.778 414> 491 20G<57 134.401 427.097 511>
DStem2: -65 0 3 0 0.707798 0.706415<48.1302 357.84 431.336 723.371> 123 511 57 511 0.494856 -0.868975<0 238.271 300.004 553.409>
LayerCount: 2
Fore
SplineSet
414 0 m 1
 344 0 l 1
 220 221 l 1
 3 0 l 1
 -65 0 l 1
 197 260 l 1
 57 511 l 1
 123 511 l 1
 241 304 l 1
 447 511 l 1
 511 511 l 1
 262 262 l 1
 414 0 l 1
EndSplineSet
EndChar

StartChar: y
Encoding: 121 121 90
Width: 506
VWidth: 1504
Flags: W
HStem: -235 47<-74.4468 -17.0234> 491 20G<48 115.619 468.529 546>
DStem2: 111 511 48 511 0.225158 -0.974322<0 444.397> 159 17 212 0 0.547117 0.837056<-167.787 25.0904 79.5105 589.677>
LayerCount: 2
Fore
SplineSet
212 0 m 2
 124 -133.333 28.6667 -211.667 -74 -235 c 1
 -77 -188 l 1
 11 -168.667 89.6667 -100.333 159 17 c 1
 159 20.3333 158.667 26.3333 158 35 c 1
 48 511 l 1
 111 511 l 1
 211 78 l 1
 481 511 l 1
 546 511 l 1
 212 0 l 2
EndSplineSet
EndChar

StartChar: z
Encoding: 122 122 91
Width: 482
VWidth: 1504
Flags: W
HStem: 0 48<41 388> 463 48<93 417>
DStem2: -33 36 41 48 0.725402 0.688326<61.9396 620.346>
LayerCount: 2
Fore
SplineSet
388 0 m 1
 -42 0 l 1
 -33 36 l 1
 417 463 l 1
 74 463 l 1
 93 511 l 1
 501 511 l 1
 490 471 l 1
 41 48 l 1
 409 48 l 1
 388 0 l 1
EndSplineSet
EndChar

StartChar: braceleft
Encoding: 123 123 92
Width: 312
VWidth: 1504
Flags: HW
LayerCount: 2
Fore
SplineSet
191 -71 m 1
 181 -116 l 1
 164 -116 l 2
 56 -116 12 -68.3333 32 27 c 0
 36 46.3333 45.6667 75.6667 61 115 c 128
 76.3333 154.333 86 184.333 90 205 c 0
 101.333 255 76 281 14 283 c 1
 24 328 l 1
 86 330 122.667 356 134 406 c 0
 138 426 140.667 455.833 142 495.5 c 128
 143.333 535.167 146 564.667 150 584 c 0
 170 679.333 234.333 727 343 727 c 2
 360 727 l 1
 350 681 l 1
 328 681 l 2
 258.667 681 216.667 646.667 202 578 c 1
 194.667 476.667 190 421 188 411 c 0
 176.667 359.667 149 324.333 105 305 c 1
 141 285.667 153.667 250.667 143 200 c 0
 141 190 122 134.333 86 33 c 1
 72 -36.3333 99.3333 -71 168 -71 c 2
 191 -71 l 1
EndSplineSet
EndChar

StartChar: bar
Encoding: 124 124 93
Width: 230
VWidth: 1504
Flags: HW
LayerCount: 2
Fore
SplineSet
244 794 m 1
 20 -262 l 1
 -29 -262 l 1
 194 794 l 1
 244 794 l 1
EndSplineSet
EndChar

StartChar: braceright
Encoding: 125 125 94
Width: 312
VWidth: 1504
Flags: HW
LayerCount: 2
Fore
SplineSet
-47 -116 m 1
 -36 -71 l 1
 -14 -71 l 2
 54 -71 95.3333 -36.3333 110 33 c 1
 118 134.333 123 190 125 200 c 0
 136.333 251.333 164 286.333 208 305 c 1
 172 324.334 159.333 359.667 170 411 c 0
 172 421 190.667 476.667 226 578 c 1
 241.333 647.333 214 681.667 144 681 c 2
 122 681 l 1
 131 727 l 1
 147 727 l 2
 255 727 299.333 679.333 280 584 c 0
 276 564.667 266.167 535.167 250.5 495.5 c 128
 234.833 455.833 225 426 221 406 c 0
 209.667 356 235.333 330 298 328 c 1
 287 283 l 1
 225 281 188.333 255 177 205 c 0
 173 185 170.333 155.167 169 115.5 c 128
 167.667 75.8333 165 46.3333 161 27 c 0
 141 -68.3333 77.3333 -116 -30 -116 c 2
 -47 -116 l 1
EndSplineSet
EndChar

StartChar: asciitilde
Encoding: 126 126 95
Width: 625
VWidth: 1504
Flags: HW
LayerCount: 2
Fore
SplineSet
599 375 m 1
 597 366 l 1
 587 320 567 284.333 537 259 c 0
 511.667 237.667 483 227 451 227 c 0
 411.667 227 362.5 243.333 303.5 276 c 128
 244.5 308.667 197.333 325 162 325 c 0
 114.667 325 83.6666 292.333 69 227 c 1
 23 227 l 1
 24 239 l 1
 33.3333 281 52.1667 314.167 80.5 338.5 c 128
 108.833 362.833 139.667 375 173 375 c 0
 211 375 260.167 359.167 320.5 327.5 c 128
 380.833 295.833 429 280 465 280 c 0
 508.333 280 537.333 311.667 552 375 c 1
 599 375 l 1
EndSplineSet
EndChar

StartChar: uni0E33.alt1
Encoding: 65537 -1 96
Width: 475
VWidth: 1504
Flags: HW
LayerCount: 2
Fore
SplineSet
-117 809 m 256
 -124.333 777 -141.333 750 -168 728 c 128
 -194.667 706 -224 695 -256 695 c 256
 -288 695 -313 706 -331 728 c 128
 -349 750 -354.333 777 -347 809 c 256
 -339.667 841 -322.667 868.333 -296 891 c 128
 -269.333 913.667 -240 925 -208 925 c 256
 -176 925 -151 913.667 -133 891 c 128
 -115 868.333 -109.667 841 -117 809 c 256
-167 809 m 256
 -163 827 -166.333 842.5 -177 855.5 c 128
 -187.667 868.5 -201.333 875 -218 875 c 0
 -236 875 -252.833 868.5 -268.5 855.5 c 128
 -284.167 842.5 -294 827 -298 809 c 256
 -302 791 -298.667 775.833 -288 763.5 c 128
 -277.333 751.167 -263 745 -245 745 c 0
 -227.667 745 -211.333 751.167 -196 763.5 c 128
 -180.667 775.833 -171 791 -167 809 c 256
337 51 m 1
 325 3.66667 301 -32 265 -56 c 1
 223 -29 l 1
 257 -3 278.333 30.3333 287 71 c 2
 367 450 l 2
 373 480 367 504.833 349 524.5 c 128
 331 544.167 302.333 554 263 554 c 0
 227.667 554 197 542.167 171 518.5 c 128
 145 494.833 128 469.333 120 442 c 1
 65 442 l 1
 75 484 99.8334 521.167 139.5 553.5 c 128
 179.167 585.833 224.333 602 275 602 c 0
 333 602 374.333 587.833 399 559.5 c 128
 423.667 531.166 431 494 421 448 c 2
 337 51 l 1
EndSplineSet
EndChar

StartChar: uni0E4E.alt1
Encoding: 65540 -1 99
Width: 0
VWidth: 1504
Flags: HW
LayerCount: 2
Fore
SplineSet
-35 999 m 1
 -57 961 l 1
 -73 966.333 -91 969 -111 969 c 0
 -157 969 -183.333 953.333 -190 922 c 0
 -197.333 888.667 -176 869 -126 863 c 1
 -147 829 l 1
 -159 833 -171.333 835 -184 835 c 0
 -212 835 -236 828.667 -256 816 c 128
 -276 803.333 -287.333 789.667 -290 775 c 0
 -296 747.667 -276.667 734 -232 734 c 0
 -218.667 734 -201.667 738 -181 746 c 1
 -187 708 l 1
 -208.333 700 -232.333 696 -259 696 c 0
 -284.333 696 -304.333 703.333 -319 718 c 128
 -333.667 732.667 -338.667 752 -334 776 c 0
 -328.667 801.333 -314 822.5 -290 839.5 c 128
 -266 856.5 -241.667 865 -217 865 c 1
 -235 878.333 -241 897.333 -235 922 c 0
 -223 980 -178.333 1009 -101 1009 c 0
 -74.3333 1009.66 -52.3333 1006.33 -35 999 c 1
EndSplineSet
EndChar

StartChar: exclamdown
Encoding: 161 161 100
Width: 227
VWidth: 1504
Flags: HW
LayerCount: 2
Fore
SplineSet
44 -211 m 1
 -38 -211 l 1
 87 313 l 1
 140 313 l 1
 44 -211 l 1
200 457 m 256
 196.666 441.667 188.333 428.667 175 418 c 128
 161.667 407.333 147.333 402 132 402 c 256
 116.667 402 104.833 407.5 96.5 418.5 c 128
 88.1667 429.5 85.6667 442.333 89 457 c 256
 92.3334 472.333 100.667 485.5 114 496.5 c 128
 127.333 507.5 141.333 513 156 513 c 256
 171.333 513 183.333 507.5 192 496.5 c 128
 200.667 485.5 203.334 472.333 200 457 c 256
EndSplineSet
EndChar

StartChar: cent
Encoding: 162 162 101
Width: 618
VWidth: 1504
Flags: HW
LayerCount: 2
Fore
SplineSet
519 72 m 1
 465 46 396.333 33 313 33 c 2
 305 33 l 1
 280 -89 l 1
 230 -89 l 1
 257 36 l 1
 183 47.3333 127.333 78 90 128 c 0
 48 183.333 37.6667 260 59 358 c 0
 77 441.334 113.333 510.667 168 566 c 0
 229.333 626 304.333 663.333 393 678 c 1
 423 815 l 1
 472 815 l 1
 444 684 l 1
 451.334 685.333 461.668 686 475 686 c 0
 535 686 589.333 676.333 638 657 c 1
 615 603 l 1
 575 626.333 526.333 638 469 638 c 0
 377 638 300.167 613.667 238.5 565 c 128
 176.833 516.333 136.333 446.333 117 355 c 1
 97.6667 269 107.333 203.333 146 158 c 0
 186 110 251.667 86 343 86 c 0
 406.333 86 462 96 510 116 c 1
 519 72 l 1
EndSplineSet
EndChar

StartChar: sterling
Encoding: 163 163 102
Width: 618
VWidth: 1504
Flags: HW
LayerCount: 2
Fore
SplineSet
466 0 m 1
 21 0 l 1
 29 38 l 1
 125 90 181.667 156.667 199 238 c 0
 204.333 261.333 207.667 290.333 209 325 c 1
 90 325 l 1
 101 372 l 1
 215 372 l 1
 217 420 221.667 460.333 229 493 c 0
 257 626.333 335 693 463 693 c 0
 504.333 693 544 683 582 663 c 1
 555 620 l 1
 517.666 636 482.666 644 450 644 c 0
 358.667 644 302.333 593.333 281 492 c 0
 273 454.667 269 414.667 269 372 c 1
 439 372 l 1
 429 325 l 1
 265 325 l 1
 265 301.667 262 276 256 248 c 0
 238 164 196.667 98 132 50 c 1
 477 50 l 1
 466 0 l 1
EndSplineSet
EndChar

StartChar: currency
Encoding: 164 164 103
Width: 618
VWidth: 1504
Flags: HW
LayerCount: 2
Fore
SplineSet
588 338 m 0
 574 272 543.333 216.333 496 171 c 1
 543 110 l 1
 490 65 l 1
 441 128 l 1
 385.667 86 324 65 256 65 c 0
 190.667 65 138.333 86 99 128 c 1
 26 65 l 1
 -8 110 l 1
 63 171 l 1
 33.6667 219 25.6667 274.667 39 338 c 0
 53 402 85 459.333 135 510 c 1
 89 570 l 1
 143 617 l 1
 190 554 l 1
 250 595.333 310.667 615.667 372 615 c 0
 436 615 489 594.667 531 554 c 1
 609 617 l 1
 641 570 l 1
 569 510 l 1
 597 465.333 603.333 408 588 338 c 0
528 338 m 0
 541.333 398 531.833 450.5 499.5 495.5 c 128
 467.167 540.5 421 563 361 563 c 0
 303 563 247.833 540.833 195.5 496.5 c 128
 143.167 452.167 110.667 399.333 98 338 c 256
 84.6667 276.667 94.8333 224.833 128.5 182.5 c 128
 162.167 140.167 208 119 266 119 c 0
 326 119 381.667 140.667 433 184 c 128
 484.333 227.333 516 278.667 528 338 c 0
EndSplineSet
EndChar

StartChar: yen
Encoding: 165 165 104
Width: 618
VWidth: 1504
Flags: HW
LayerCount: 2
Fore
SplineSet
484 143 m 1
 302 143 l 1
 278 29 l 1
 223 29 l 1
 247 143 l 1
 66 143 l 1
 75 187 l 1
 256 187 l 1
 274 272 l 1
 93 272 l 1
 102 316 l 1
 283 316 l 1
 132 690 l 1
 202 690 l 1
 322 373 l 1
 578 690 l 1
 648 690 l 1
 338 317 l 1
 520 317 l 1
 511 272 l 1
 329 272 l 1
 311 187 l 1
 493 187 l 1
 484 143 l 1
EndSplineSet
EndChar

StartChar: brokenbar
Encoding: 166 166 105
Width: 230
VWidth: 1504
Flags: HW
LayerCount: 2
Fore
SplineSet
147 341 m 1
 98 341 l 1
 176 714 l 1
 226 714 l 1
 147 341 l 1
35 -185 m 1
 -14 -185 l 1
 65 190 l 1
 114 190 l 1
 35 -185 l 1
EndSplineSet
EndChar

StartChar: section
Encoding: 167 167 106
Width: 562
VWidth: 1504
Flags: HW
LayerCount: 2
Fore
SplineSet
408 98 m 0
 398 50 371.833 11.8333 329.5 -16.5 c 128
 287.167 -44.8333 239 -59 185 -59 c 0
 121.667 -59 73.6667 -42.3333 41 -9 c 1
 74 33 l 1
 101.333 1.66667 143 -14 199 -14 c 0
 240.333 -14 275.167 -4.33333 303.5 15 c 128
 331.833 34.3333 349 59.3333 355 90 c 0
 364.333 133.333 344.333 167.667 295 193 c 1
 247.667 213 200.333 233.333 153 254 c 1
 103.667 282 84.6666 322.333 96 375 c 0
 106 419 137.333 459 190 495 c 1
 172 518.333 166.333 545.333 173 576 c 0
 182.333 619.333 206.5 654.333 245.5 681 c 128
 284.5 707.667 330.667 721 384 721 c 256
 437.333 721 483.333 707.667 522 681 c 1
 487 638 l 1
 457 664 417 677 367 677 c 0
 333 677 303 668.167 277 650.5 c 128
 251 632.833 235 611 229 585 c 0
 223 557.667 233 535 259 517 c 0
 275 505 307 490 355 472 c 0
 454.333 436 496.333 384.333 481 317 c 1
 471.667 271 441.667 228 391 188 c 1
 410.333 164 416 134 408 98 c 0
424 310 m 1
 429.333 330 423.5 350.333 406.5 371 c 128
 389.5 391.667 365.333 408 334 420 c 0
 278 440 240 457 220 471 c 1
 180 441.667 156.333 410.667 149 378 c 0
 143 350 155 325.333 185 304 c 0
 204.333 290.667 237.333 275 284 257 c 0
 327.334 239.666 354.667 226.333 366 217 c 1
 398.667 247.667 418 278.667 424 310 c 1
EndSplineSet
EndChar

StartChar: dieresis
Encoding: 168 168 107
Width: 318
VWidth: 1504
Flags: HW
LayerCount: 2
Fore
SplineSet
226 635 m 256
 222.666 621.664 215.833 610.831 205.5 602.5 c 128
 195.166 594.167 183.333 590 170 590 c 256
 156.667 590 146.5 594.167 139.5 602.5 c 128
 132.5 610.833 130.667 621.667 134 635 c 256
 137.333 648.333 144.167 659.333 154.5 668 c 128
 164.833 676.667 176.667 681 190 681 c 256
 203.333 681 213.5 676.667 220.5 668 c 128
 227.5 659.333 229.333 648.333 226 635 c 256
412 635 m 256
 408.667 621.664 401.833 610.831 391.5 602.5 c 128
 381.167 594.167 369.333 590 356 590 c 256
 342.667 590 332.667 594.167 326 602.5 c 128
 319.333 610.833 317.333 621.667 320 635 c 256
 323.335 648.333 330.168 659.333 340.5 668 c 128
 350.835 676.667 362.668 681 376 681 c 256
 389.333 681 399.5 676.667 406.5 668 c 128
 413.5 659.333 415.333 648.333 412 635 c 256
EndSplineSet
EndChar

StartChar: copyright
Encoding: 169 169 108
Width: 806
VWidth: 1504
Flags: HW
LayerCount: 2
Fore
SplineSet
579 176 m 1
 541 146.667 488.333 132 421 132 c 0
 355.667 132 303.5 153.167 264.5 195.5 c 128
 225.5 237.833 206 289.333 206 350 c 0
 206 420 226.5 475.5 267.5 516.5 c 128
 308.5 557.5 362.333 578 429 578 c 0
 492.333 578 540 566 572 542 c 1
 554 496 l 1
 516 518 474.333 529 429 529 c 1
 321 523 266.667 466 266 358 c 0
 266 248.667 320.667 191 430 185 c 1
 481.333 185 524.667 197.667 560 223 c 1
 579 176 l 1
791 361 m 256
 791 261 755.167 175 683.5 103 c 128
 611.833 31 526 -5 426 -5 c 256
 326 -5 240 31 168 103 c 128
 96 175 60 261 60 361 c 256
 60 461 95.8333 547 167.5 619 c 128
 239.167 691 325.333 727 426 727 c 256
 526 727 611.833 691 683.5 619 c 128
 755.167 547 791 461 791 361 c 256
737 361 m 256
 737 447 706.667 520.334 646 581 c 128
 585.333 641.667 512 672 426 672 c 256
 340 672 266.5 641.667 205.5 581 c 128
 144.5 520.333 114 447 114 361 c 256
 114 275 144.333 201.667 205 141 c 128
 265.667 80.3333 339.333 50 426 50 c 256
 512 50 585.333 80.3333 646 141 c 128
 706.667 201.667 737 275 737 361 c 256
EndSplineSet
EndChar

StartChar: ordfeminine
Encoding: 170 170 109
Width: 409
VWidth: 1504
Flags: HW
LayerCount: 2
Fore
SplineSet
412 666 m 1
 363 442 l 2
 361 432.667 360 422.667 360 412 c 0
 360 396 362.333 383.667 367 375 c 1
 316 363 l 1
 312 374.333 310 386.333 310 399 c 0
 310 409 310.333 417.333 311 424 c 1
 267.667 382.667 222 362.333 174 363 c 0
 134.667 363 103.833 374.5 81.5 397.5 c 128
 59.1667 420.5 48 450.333 48 487 c 0
 48 546.333 67.5 599.833 106.5 647.5 c 128
 145.5 695.167 194.667 719 254 719 c 0
 316 719 368.667 701.333 412 666 c 1
325 516 m 2
 355 650 l 1
 323.667 670 291.667 680 259 680 c 0
 213.667 680 176 660.167 146 620.5 c 128
 116 580.833 101 538 101 492 c 0
 101 432 130 402 188 402 c 0
 218 402 246.5 413.5 273.5 436.5 c 128
 300.5 459.5 317.667 486 325 516 c 2
EndSplineSet
EndChar

StartChar: guillemotleft
Encoding: 171 171 110
Width: 448
VWidth: 1504
Flags: HW
LayerCount: 2
Fore
SplineSet
301 72 m 1
 174 266 l 1
 382 465 l 1
 445 465 l 1
 238 266 l 1
 364 72 l 1
 301 72 l 1
134 72 m 1
 8 266 l 1
 215 465 l 1
 278 465 l 1
 71 266 l 1
 197 72 l 1
 134 72 l 1
EndSplineSet
EndChar

StartChar: logicalnot
Encoding: 172 172 111
Width: 631
VWidth: 1504
Flags: HW
LayerCount: 2
Fore
SplineSet
612 137 m 1
 554 137 l 1
 554 360 l 1
 65 360 l 1
 65 409 l 1
 612 409 l 1
 612 137 l 1
EndSplineSet
EndChar

StartChar: registered
Encoding: 174 174 112
Width: 806
VWidth: 1504
Flags: HW
LayerCount: 2
Fore
SplineSet
593 149 m 1
 534 149 l 1
 516 267 483.333 326 436 326 c 2
 344 326 l 1
 344 149 l 1
 284 149 l 1
 284 573 l 1
 320 580.333 361.667 584.333 409 585 c 1
 462.333 585 503.833 573.667 533.5 551 c 128
 563.167 528.333 578 497.667 578 459 c 0
 578 407 557.333 369.667 516 347 c 1
 555.333 312.333 581 246.333 593 149 c 1
519 451 m 0
 519 505 484.333 532 415 532 c 0
 387.667 532 364 530.667 344 528 c 1
 344 382 l 1
 426 382 l 2
 454 382 476.5 388 493.5 400 c 128
 510.5 412 519 429 519 451 c 0
791 361 m 256
 791 261 755.167 175 683.5 103 c 128
 611.833 31 526 -5 426 -5 c 256
 326 -5 240 31 168 103 c 128
 96 175 60 261 60 361 c 256
 60 461 95.8333 547 167.5 619 c 128
 239.167 691 325.333 727 426 727 c 256
 526 727 611.833 691 683.5 619 c 128
 755.167 547 791 461 791 361 c 256
737 361 m 256
 737 447 706.667 520.334 646 581 c 128
 585.333 641.667 512 672 426 672 c 256
 340 672 266.5 641.667 205.5 581 c 128
 144.5 520.333 114 447 114 361 c 256
 114 275 144.333 201.667 205 141 c 128
 265.667 80.3333 339.333 50 426 50 c 256
 512 50 585.333 80.3333 646 141 c 128
 706.667 201.667 737 275 737 361 c 256
EndSplineSet
EndChar

StartChar: macron
Encoding: 175 175 113
Width: 529
VWidth: 1504
Flags: HW
LayerCount: 2
Fore
SplineSet
642 841 m 1
 633 794 l 1
 104 794 l 1
 113 841 l 1
 642 841 l 1
EndSplineSet
EndChar

StartChar: degree
Encoding: 176 176 114
Width: 318
VWidth: 1504
Flags: HW
LayerCount: 2
Fore
SplineSet
349 597 m 0
 341 561.667 321.667 531.5 291 506.5 c 128
 260.333 481.5 227.667 469 193 469 c 256
 157.667 469 130 481.667 110 507 c 128
 90 532.333 84 562.333 92 597 c 0
 99.3334 632.333 118.167 662.833 148.5 688.5 c 128
 178.833 714.167 211.667 727 247 727 c 256
 282.333 727 310 714.167 330 688.5 c 128
 350 662.833 356.333 632.333 349 597 c 0
304 597 m 256
 309.333 620.333 305.333 640.5 292 657.5 c 128
 278.667 674.5 260.667 683 238 683 c 256
 214.667 683 193.167 674.5 173.5 657.5 c 128
 153.833 640.5 141.667 620.333 137 597 c 256
 131.667 573.664 135.334 553.831 148 537.5 c 128
 160.667 521.167 178.667 513 202 513 c 256
 225.333 513 246.833 521.167 266.5 537.5 c 128
 286.167 553.833 298.667 573.667 304 597 c 256
EndSplineSet
EndChar

StartChar: plusminus
Encoding: 177 177 115
Width: 618
VWidth: 1504
Flags: HW
LayerCount: 2
Fore
SplineSet
560 302 m 1
 334 302 l 1
 292 102 l 1
 239 102 l 1
 281 302 l 1
 56 302 l 1
 66 350 l 1
 292 350 l 1
 331 537 l 1
 384 537 l 1
 344 350 l 1
 570 350 l 1
 560 302 l 1
496 0 m 1
 -8 0 l 1
 2 48 l 1
 505 48 l 1
 496 0 l 1
EndSplineSet
EndChar

StartChar: twosuperior
Encoding: 178 178 116
Width: 382
VWidth: 1504
Flags: HW
LayerCount: 2
Fore
SplineSet
323 341 m 1
 307 295 l 1
 35 295 l 1
 46.3333 336.333 91.6667 389 171 453 c 1
 204.333 478.333 236.5 504.5 267.5 531.5 c 128
 298.5 558.5 317 585.333 323 612 c 0
 332.333 655.333 315.333 677 272 677 c 0
 224 677 191.333 649.333 174 594 c 1
 126 603 l 1
 138 641 157.833 670.667 185.5 692 c 128
 213.167 713.333 244 724 278 724 c 0
 313.333 724 340 713.833 358 693.5 c 128
 376 673.167 381.667 646 375 612 c 0
 365.667 570.667 328 522 262 466 c 0
 212.667 424 163.333 382.333 114 341 c 1
 323 341 l 1
EndSplineSet
EndChar

StartChar: threesuperior
Encoding: 179 179 117
Width: 382
VWidth: 1504
Flags: HW
LayerCount: 2
Fore
SplineSet
353 448 m 0
 343 402 320 365.167 284 337.5 c 128
 248 309.833 205.333 295.666 156 295 c 0
 112 293.667 78.6667 303.667 56 325 c 1
 89 373 l 1
 108.333 353.667 132.667 344 162 344 c 0
 199.333 344 230.5 353.667 255.5 373 c 128
 280.5 392.333 296.667 417 304 447 c 0
 313.333 491 296.666 513 254 513 c 0
 226 513 202.667 506 184 492 c 1
 170 529 l 1
 228 564.333 260.667 584.667 268 590 c 0
 295.334 609.333 310.667 627.667 314 645 c 0
 318 665 303.667 675 271 675 c 0
 229.667 675 196 653 170 609 c 1
 131 632 l 1
 171 694 222.667 725 286 725 c 256
 349.333 725 375.333 699 364 647 c 0
 360 629 349 610.5 331 591.5 c 128
 313 572.5 295 559.333 277 552 c 1
 341.667 548 367 513.333 353 448 c 0
EndSplineSet
EndChar

StartChar: acute
Encoding: 180 180 118
Width: 318
VWidth: 1504
Flags: HW
LayerCount: 2
Fore
SplineSet
232 794 m 1
 185 794 l 1
 289 931 l 1
 364 931 l 1
 232 794 l 1
EndSplineSet
EndChar

StartChar: mu
Encoding: 181 181 119
Width: 610
VWidth: 1504
Flags: HW
LayerCount: 2
Fore
SplineSet
489 125 m 2
 481.667 87.6667 482 46.6667 490 2 c 1
 432 -11 l 1
 426.667 23 426 58.3333 430 95 c 1
 358 23 286.333 -13.3333 215 -14 c 0
 157 -14 115.333 11.6667 90 63 c 1
 33 -211 l 1
 -23 -211 l 1
 129 511 l 1
 187 511 l 1
 125 220 l 2
 99 98.6667 137 38 239 38 c 0
 283 38 326.667 54.6667 370 88 c 128
 413.333 121.333 439.333 158.667 448 200 c 2
 514 511 l 1
 572 511 l 1
 489 125 l 2
EndSplineSet
EndChar

StartChar: paragraph
Encoding: 182 182 120
Width: 562
VWidth: 1504
Flags: HW
LayerCount: 2
Fore
SplineSet
397 -95 m 1
 346 -95 l 1
 508 666 l 1
 436 666 l 1
 274 -95 l 1
 221 -95 l 1
 299 271 l 1
 293 271 l 2
 233 271 184.333 288.333 147 323 c 0
 105 363 91 416.333 105 483 c 0
 137 637.667 252.333 714.667 451 714 c 0
 504.333 714 543 711.667 567 707 c 1
 397 -95 l 1
EndSplineSet
EndChar

StartChar: periodcentered
Encoding: 183 183 121
Width: 243
VWidth: 1504
Flags: HW
LayerCount: 2
Fore
SplineSet
165 272 m 256
 161.666 258 153.833 246 141.5 236 c 128
 129.167 226 116 221 102 221 c 256
 88 221 77 226 69 236 c 128
 61 246 58.6667 258 62 272 c 256
 65.3333 286 72.8333 298.333 84.5 309 c 128
 96.1667 319.667 109 325 123 325 c 256
 137 325 148.333 319.667 157 309 c 128
 165.668 298.333 168.335 286 165 272 c 256
EndSplineSet
EndChar

StartChar: cedilla
Encoding: 184 184 122
Width: 318
VWidth: 1504
Flags: HW
LayerCount: 2
Fore
SplineSet
138 -122 m 0
 126 -180 85 -209 15 -209 c 0
 -8.33333 -209 -30.3333 -202.667 -51 -190 c 1
 -30 -156 l 1
 -10.6667 -166 7.33333 -171 24 -171 c 0
 62 -171 84 -157 90 -129 c 0
 96 -103.667 68 -88.6667 6 -84 c 1
 83 6 l 1
 131 6 l 1
 78 -51 l 1
 126 -63 146 -86.6666 138 -122 c 0
EndSplineSet
EndChar

StartChar: onesuperior
Encoding: 185 185 123
Width: 382
VWidth: 1504
Flags: HW
LayerCount: 2
Fore
SplineSet
290 302 m 1
 107 302 l 1
 114 338 l 1
 181 338 l 1
 247 647 l 1
 179 597 l 1
 158 633 l 1
 284 728 l 1
 305.333 726 313 712 307 686 c 2
 233 338 l 1
 298 338 l 1
 290 302 l 1
EndSplineSet
EndChar

StartChar: ordmasculine
Encoding: 186 186 124
Width: 428
VWidth: 1504
Flags: HW
LayerCount: 2
Fore
SplineSet
447 542 m 1
 437 492 409.333 448.833 364 412.5 c 128
 318.667 376.167 271.667 358 223 358 c 0
 173 358 133.833 376 105.5 412 c 128
 77.1667 448 68 491.333 78 542 c 1
 89.3333 591.333 117 634.5 161 671.5 c 128
 205 708.5 252 727 302 727 c 0
 351.334 727 390.667 708.5 420 671.5 c 128
 449.333 634.5 458.333 591.333 447 542 c 1
394 542 m 0
 402 578 395.667 609 375 635 c 128
 354.333 661 326 674 290 674 c 256
 254 674 220.5 661 189.5 635 c 128
 158.5 609 139 578 131 542 c 0
 123.667 506 130.167 475.167 150.5 449.5 c 128
 170.833 423.833 199 411 235 411 c 256
 271 411 304.667 423.833 336 449.5 c 128
 367.334 475.167 386.667 506 394 542 c 0
EndSplineSet
EndChar

StartChar: guillemotright
Encoding: 187 187 125
Width: 442
VWidth: 1504
Flags: HW
LayerCount: 2
Fore
SplineSet
42 72 m 1
 -20 72 l 1
 187 266 l 1
 63 465 l 1
 126 465 l 1
 250 266 l 1
 42 72 l 1
209 72 m 1
 146 72 l 1
 353 266 l 1
 230 465 l 1
 293 465 l 1
 417 266 l 1
 209 72 l 1
EndSplineSet
EndChar

StartChar: onequarter
Encoding: 188 188 126
Width: 806
VWidth: 1504
Flags: HW
LayerCount: 2
Fore
SplineSet
152 -14 m 1
 102 -14 l 1
 681 702 l 1
 731 702 l 1
 152 -14 l 1
242 280 m 1
 59 280 l 1
 66 316 l 1
 132 316 l 1
 197 618 l 1
 129 569 l 1
 108 605 l 1
 235 699 l 1
 256.334 697 263.668 683 257 657 c 2
 185 316 l 1
 250 316 l 1
 242 280 l 1
602 143 m 1
 648 366 l 1
 614.667 342 581.667 305.667 549 257 c 0
 517.666 213 497.666 175 489 143 c 1
 602 143 l 1
707 93 m 1
 644 93 l 1
 624 0 l 1
 572 0 l 1
 591 93 l 1
 423 93 l 1
 438.334 160.333 471.667 229 523 299 c 0
 585 384.333 649.333 428 716 430 c 1
 654 143 l 1
 721 143 l 1
 707 93 l 1
EndSplineSet
Ligature2: "'frac' Diagonal Fractions in Latin lookup 0 subtable" one fraction four
Ligature2: "'frac' Diagonal Fractions in Latin lookup 0 subtable" one slash four
EndChar

StartChar: onehalf
Encoding: 189 189 127
Width: 806
VWidth: 1504
Flags: HW
LayerCount: 2
Fore
SplineSet
152 -14 m 1
 102 -14 l 1
 681 702 l 1
 731 702 l 1
 152 -14 l 1
242 280 m 1
 59 280 l 1
 66 316 l 1
 132 316 l 1
 197 618 l 1
 129 569 l 1
 108 605 l 1
 235 699 l 1
 256.334 697 263.668 683 257 657 c 2
 185 316 l 1
 250 316 l 1
 242 280 l 1
696 0 m 1
 424 0 l 1
 434 41.3333 479.667 94 561 158 c 0
 593 183.333 624.833 209.5 656.5 236.5 c 128
 688.169 263.5 706.336 290.333 711 317 c 0
 720.333 360.333 703.333 382 660 382 c 0
 612 382 580 354.333 564 299 c 1
 514 308 l 1
 526 346 545.833 375.667 573.5 397 c 128
 601.167 418.333 632 429 666 429 c 0
 702 429 729.333 419.167 748 399.5 c 128
 766.667 379.833 772 352.333 764 317 c 1
 756 275.667 719 227 653 171 c 0
 603 129 554.667 87.6667 508 47 c 1
 711 47 l 1
 696 0 l 1
EndSplineSet
Ligature2: "'frac' Diagonal Fractions in Latin lookup 0 subtable" one fraction two
Ligature2: "'frac' Diagonal Fractions in Latin lookup 0 subtable" one slash two
EndChar

StartChar: threequarters
Encoding: 190 190 128
Width: 806
VWidth: 1504
Flags: HW
LayerCount: 2
Fore
SplineSet
152 -14 m 1
 102 -14 l 1
 681 702 l 1
 731 702 l 1
 152 -14 l 1
349 430 m 1
 339.667 384 317 347.167 281 319.5 c 128
 245 291.832 202.333 277.666 153 277 c 0
 107.667 275.667 74.3333 285.667 53 307 c 1
 86 355 l 1
 105.333 335.667 129.667 326 159 326 c 0
 196.333 326 227.5 335.667 252.5 355 c 128
 277.5 374.333 293 399 299 429 c 0
 308.333 473 292 495 250 495 c 0
 222 495 198.333 488 179 474 c 1
 167 511 l 1
 224.333 546.333 256.333 566.667 263 572 c 0
 290.333 591.333 306 609.667 310 627 c 0
 314 647 299.333 657 266 657 c 0
 220.667 657 187 635 165 591 c 1
 126 614 l 1
 166 676 217.667 707 281 707 c 256
 344.334 707 370.667 681 360 629 c 0
 356.667 611 345.667 592.5 327 573.5 c 128
 308.333 554.5 290 541.333 272 534 c 1
 336.667 524 362.333 489.333 349 430 c 1
602 143 m 1
 648 366 l 1
 614.667 342 581.667 305.667 549 257 c 0
 517.666 213 497.666 175 489 143 c 1
 602 143 l 1
707 93 m 1
 644 93 l 1
 624 0 l 1
 572 0 l 1
 591 93 l 1
 423 93 l 1
 438.334 160.333 471.667 229 523 299 c 0
 585 384.333 649.333 428 716 430 c 1
 654 143 l 1
 721 143 l 1
 707 93 l 1
EndSplineSet
Ligature2: "'frac' Diagonal Fractions in Latin lookup 0 subtable" three fraction four
Ligature2: "'frac' Diagonal Fractions in Latin lookup 0 subtable" three slash four
EndChar

StartChar: questiondown
Encoding: 191 191 129
Width: 434
VWidth: 1504
Flags: HW
LayerCount: 2
Fore
SplineSet
272 -184 m 1
 216.667 -215.333 162 -230.666 108 -230 c 0
 50.6667 -230 11 -213.667 -11 -181 c 1
 -32.3333 -151.667 -38.3333 -115.333 -29 -72 c 0
 -17 -18.6667 27.3333 41.3333 104 108 c 0
 164 160 199.667 211.667 211 263 c 0
 215 281 216.333 297 215 311 c 1
 266 311 l 1
 268 295.667 267 278.333 263 259 c 0
 251.667 205.667 212.333 148.333 145 87 c 128
 77.6667 25.6667 39.3333 -26.3333 30 -69 c 0
 14 -141 47 -177 129 -177 c 0
 176.333 -177 219.667 -164 259 -138 c 1
 272 -184 l 1
329 457 m 256
 325.667 441.667 317.333 428.667 304 418 c 128
 290.667 407.333 276.667 402 262 402 c 256
 246.667 402 234.833 407.5 226.5 418.5 c 128
 218.165 429.5 215.332 442.333 218 457 c 256
 221.333 472.333 229.667 485.5 243 496.5 c 128
 256.334 507.5 270.667 513 286 513 c 256
 301.335 513 313.168 507.5 321.5 496.5 c 128
 329.833 485.5 332.333 472.333 329 457 c 256
EndSplineSet
EndChar

StartChar: AE
Encoding: 198 198 136
Width: 875
VWidth: 1504
Flags: HW
LayerCount: 2
Fore
SplineSet
754 0 m 1
 432 0 l 1
 451 295 l 1
 205 295 l 1
 -14 0 l 1
 -75 0 l 1
 460 716 l 1
 887 716 l 1
 877 666 l 1
 534 666 l 1
 513 402 l 1
 803 402 l 1
 793 352 l 1
 510 352 l 1
 492 50 l 1
 764 50 l 1
 754 0 l 1
454 343 m 1
 484 674 l 1
 239 343 l 1
 454 343 l 1
EndSplineSet
EndChar

StartChar: Eth
Encoding: 208 208 146
Width: 648
VWidth: 1504
Flags: HW
LayerCount: 2
Fore
SplineSet
618 373 m 0
 564.666 120.333 425 -6 199 -6 c 0
 169 -6 108.667 -1.33333 18 8 c 1
 84 320 l 1
 11 320 l 1
 21 370 l 1
 95 370 l 1
 165 705 l 1
 260.333 717 333.333 723.333 384 724 c 0
 475.333 724 543 693.333 587 632 c 1
 631 567.333 641.333 481 618 373 c 0
560 373 m 0
 580 468.333 570.667 543 532 597 c 0
 496.667 647 442.333 672 369 672 c 0
 337.667 672 286.333 668 215 660 c 1
 153 370 l 1
 406 370 l 1
 396 320 l 1
 143 320 l 1
 86 54 l 1
 135.333 48 182.333 45 227 45 c 0
 308.333 45 378.667 73.8333 438 131.5 c 128
 497.333 189.167 538 269.667 560 373 c 0
EndSplineSet
EndChar

StartChar: multiply
Encoding: 215 215 153
Width: 618
VWidth: 1504
Flags: HW
LayerCount: 2
Fore
SplineSet
445 17 m 1
 290 224 l 1
 48 17 l 1
 17 53 l 1
 259 262 l 1
 105 471 l 1
 152 507 l 1
 307 299 l 1
 549 507 l 1
 581 471 l 1
 337 262 l 1
 492 53 l 1
 445 17 l 1
EndSplineSet
EndChar

StartChar: Oslash
Encoding: 216 216 154
Width: 731
VWidth: 1504
Flags: HW
LayerCount: 2
Fore
SplineSet
708 356 m 256
 684.665 248.667 634.832 160 558.5 90 c 128
 482.167 20 394.667 -15 296 -15 c 0
 244.667 -15 200.667 -6 164 12 c 1
 125 -44 l 1
 68 -44 l 1
 125 38 l 1
 107.667 53.3333 92 70.6667 78 90 c 0
 32 160 20.6667 248.667 44 356 c 256
 67.3333 463.333 117 552.167 193 622.5 c 128
 269 692.833 356 728 454 728 c 0
 505.333 728 550 718 588 698 c 1
 618 742 l 1
 680 742 l 1
 629 671 l 1
 645 657 659 641 671 623 c 0
 719 552.333 731.333 463.333 708 356 c 256
554 650 m 1
 522.666 668 486 677 444 677 c 0
 364 677 291.833 645.667 227.5 583 c 128
 163.167 520.333 121.333 444.667 102 356 c 256
 82.6667 268 92.3333 192.333 131 129 c 0
 140.333 113.667 150.333 100.667 161 90 c 1
 554 650 l 1
650 356 m 256
 669.333 444 659.667 519.334 621 582 c 0
 613 596 603.667 608 593 618 c 1
 199 62 l 1
 230.333 44.6667 266.667 36 308 36 c 0
 388 36 460.167 67.3333 524.5 130 c 128
 588.833 192.667 630.667 268 650 356 c 256
EndSplineSet
EndChar

StartChar: Thorn
Encoding: 222 222 160
Width: 571
VWidth: 1504
Flags: HW
LayerCount: 2
Fore
SplineSet
546 394 m 0
 530 318.667 492.667 261.667 434 223 c 128
 375.333 184.333 302.333 165 215 165 c 0
 189.667 165 158 169 120 177 c 1
 83 0 l 1
 26 0 l 1
 177 716 l 1
 235 716 l 1
 205 575 l 1
 249 586.333 291 591.667 331 591 c 0
 398.333 591 453 575 495 543 c 0
 542.333 505.667 559.333 456 546 394 c 0
489 387 m 0
 500.333 440.334 488.333 480.667 453 508 c 0
 423 531.333 378.667 543 320 543 c 0
 282.667 543 240.333 536 193 522 c 1
 131 230 l 1
 165 218.666 197.667 213.333 229 214 c 0
 301 214 359.5 229.333 404.5 260 c 128
 449.5 290.667 477.667 333 489 387 c 0
EndSplineSet
EndChar

StartChar: germandbls
Encoding: 223 223 161
Width: 589
VWidth: 1504
Flags: HW
LayerCount: 2
Fore
SplineSet
502 153 m 0
 492 103.667 468.667 64.3333 432 35 c 0
 392.667 3 344 -13.3333 286 -14 c 0
 236.667 -14 196 -3.66667 164 17 c 1
 193 66 l 1
 227 46 262 36 298 36 c 0
 338 36 371 46.3333 397 67 c 128
 423 87.6667 439.667 113.333 447 144 c 0
 454.333 178 437 217.333 395 262 c 128
 353 306.667 336 348.333 344 387 c 0
 350 414.334 373.667 444.167 415 476.5 c 128
 456.333 508.833 479 535 483 555 c 0
 500.333 637 465.333 678 378 678 c 0
 278 678 210.667 596 176 432 c 1
 66 -81 l 2
 54.6667 -135 33.6667 -182.333 3 -223 c 1
 -47 -208 l 1
 -19.6667 -168.667 -1.33333 -126.333 8 -81 c 2
 122 457 l 2
 161.333 640.333 254 732.333 400 733 c 0
 450 733 488.667 717.167 516 685.5 c 128
 543.333 653.833 551 611.333 539 558 c 1
 531 518 507.333 484.5 468 457.5 c 128
 428.667 430.5 406.667 405.333 402 382 c 0
 398.667 364.667 410.5 341.5 437.5 312.5 c 128
 464.5 283.5 480 264 484 254 c 1
 503.333 218.667 509.333 185 502 153 c 0
EndSplineSet
EndChar

StartChar: ae
Encoding: 230 230 168
Width: 914
VWidth: 1504
Flags: HW
LayerCount: 2
Fore
SplineSet
778 72 m 1
 772 23 l 1
 708.667 -1 643 -13.3333 575 -14 c 0
 471.667 -14 404.333 29.6667 373 117 c 1
 327 29.6667 247.333 -14 134 -14 c 0
 90 -14 54.6667 -1.33333 28 24 c 128
 1.33333 49.3333 -7.33333 84 2 128 c 0
 29.3333 255.333 153.667 319 375 319 c 2
 384 319 l 1
 385 328 l 1
 392.333 361.333 391 390.333 381 415 c 1
 367 455 332.333 475 277 475 c 0
 241.667 475 185 463.667 107 441 c 1
 110 495 l 1
 170 513 230 522 290 522 c 0
 382 522 433.667 484 445 408 c 1
 509 484 587.667 522 681 522 c 0
 824.333 522 878.667 432.333 844 253 c 1
 426 253 l 1
 414 185 423.167 132.167 453.5 94.5 c 128
 483.833 56.8333 529.667 38 591 38 c 0
 651.667 37.3333 714 48.6667 778 72 c 1
361 215 m 2
 372 268 l 1
 185.333 268 83 224.667 65 138 c 0
 57.6667 104.667 62.3333 79.3333 79 62 c 128
 95.6667 44.6667 119 36 149 36 c 0
 193 36 232.667 47.6667 268 71 c 0
 316 101.667 347 149.667 361 215 c 2
439 299 m 1
 799 299 l 1
 807 340.333 803 377 787 409 c 1
 767 453 726.333 475 665 475 c 0
 609.667 475 560 455 516 415 c 0
 480.667 383 455 344.333 439 299 c 1
EndSplineSet
EndChar

StartChar: eth
Encoding: 240 240 178
Width: 544
VWidth: 1504
Flags: HW
LayerCount: 2
Fore
SplineSet
471 245 m 0
 455.667 171.667 424.667 111 378 63 c 0
 326 9 264.333 -18 193 -18 c 0
 129.667 -18 84.5 4 57.5 48 c 128
 30.5 92 23.3333 146.667 36 212 c 1
 50 275.333 80.3333 329.5 127 374.5 c 128
 173.667 419.5 226.667 442 286 442 c 0
 328 442 363 432 391 412 c 1
 410.333 396 421 381 423 367 c 1
 417 445 389.333 513.334 340 572 c 1
 193 489 l 1
 174 529 l 1
 308 605 l 1
 270 639 227 663.333 179 678 c 1
 194 722 l 1
 262 708 318.667 679.333 364 636 c 1
 493 710 l 1
 510 669 l 1
 396 603 l 1
 409.334 587.664 420.667 571.331 430 554 c 0
 482.667 463.333 496.333 360.333 471 245 c 0
403 212 m 0
 414.332 262 408.665 304.667 386 340 c 128
 363.333 375.333 330.333 393 287 393 c 0
 239.667 393 198.833 375.333 164.5 340 c 128
 130.167 304.667 107.333 262 96 212 c 0
 86 162.667 90.5 120.5 109.5 85.5 c 128
 128.5 50.5 162.333 33 211 33 c 0
 254.333 33 294.667 50.5 332 85.5 c 128
 369.333 120.5 393 162.667 403 212 c 0
EndSplineSet
EndChar

StartChar: divide
Encoding: 247 247 185
Width: 618
VWidth: 1504
Flags: HW
LayerCount: 2
Fore
SplineSet
391 454 m 256
 387.667 440 380.333 427.833 369 417.5 c 128
 357.667 407.167 345 402 331 402 c 0
 315.667 402 304.833 407.167 298.5 417.5 c 128
 292.167 427.833 290.333 440 293 454 c 0
 297 468 304.5 480 315.5 490 c 128
 326.5 500 339 505 353 505 c 256
 367 505 377.667 500 385 490 c 128
 392.333 480 394.333 468 391 454 c 256
311 89 m 256
 307.667 75 300.667 63 290 53 c 128
 279.333 43 267 38 253 38 c 0
 237.666 38 226.833 43 220.5 53 c 128
 214.165 63 212.332 75 215 89 c 256
 218.333 103 225.5 115.167 236.5 125.5 c 128
 247.5 135.833 260.333 141 275 141 c 0
 289 141 299.333 135.833 306 125.5 c 128
 312.667 115.167 314.333 103 311 89 c 256
549 248 m 1
 45 248 l 1
 56 298 l 1
 560 298 l 1
 549 248 l 1
EndSplineSet
EndChar

StartChar: oslash
Encoding: 248 248 186
Width: 598
VWidth: 1504
Flags: HW
LayerCount: 2
Fore
SplineSet
545 254 m 0
 529 178.667 491.833 115 433.5 63 c 128
 375.167 11 307.333 -15 230 -15 c 0
 186 -15 146.333 -5 111 15 c 1
 62 -44 l 1
 2 -44 l 1
 75 45 l 1
 27 96.3333 12 166 30 254 c 0
 46 329.333 83.1667 392.833 141.5 444.5 c 128
 199.833 496.167 267.333 522 344 522 c 0
 380 522 415.333 514.333 450 499 c 1
 513 576 l 1
 578 576 l 1
 490 472 l 1
 546.667 420.667 565 348 545 254 c 0
487 254 m 0
 503 325.333 491.667 382.667 453 426 c 1
 149 60 l 1
 174.333 42.6667 205 34.3333 241 35 c 0
 299 35 351.167 56 397.5 98 c 128
 443.834 140 473.667 192 487 254 c 0
113 92 m 1
 414 454 l 1
 390.667 466 364 472 334 472 c 0
 276 472 223.833 451.167 177.5 409.5 c 128
 131.167 367.833 101 316 87 254 c 1
 74.3333 189.333 83 135.333 113 92 c 1
EndSplineSet
EndChar

StartChar: thorn
Encoding: 254 254 192
Width: 649
VWidth: 1504
Flags: HW
LayerCount: 2
Fore
SplineSet
594 265 m 0
 574.667 177.667 534 108.333 472 57 c 0
 414 9.66667 348 -14 274 -14 c 0
 192 -14 134.333 17.3333 101 80 c 1
 39 -211 l 1
 -17 -211 l 1
 176 707 l 1
 233 707 l 1
 173 418 l 1
 238.333 487.333 315 522 403 522 c 0
 475 522 529.334 496.333 566 445 c 0
 600 397 609.333 337 594 265 c 0
539 263 m 0
 552.333 324.333 544.833 375 516.5 415 c 128
 488.167 455 444 475 384 475 c 0
 292.667 475 221.333 433.333 170 350 c 0
 158 330 150 310 146 290 c 2
 126 202 l 2
 124 192 123.667 176.667 125 156 c 1
 132.333 122 150.5 93.5 179.5 70.5 c 128
 208.5 47.5 245 36 289 36 c 0
 348.333 36 401 56 447 96 c 128
 493 136 523.667 191.667 539 263 c 0
EndSplineSet
EndChar

StartChar: dotlessi
Encoding: 305 305 194
Width: 215
VWidth: 1504
Flags: HW
LayerCount: 2
Fore
SplineSet
71 0 m 1
 14 0 l 1
 122 511 l 1
 179 511 l 1
 71 0 l 1
EndSplineSet
EndChar

StartChar: Lslash
Encoding: 321 321 195
Width: 543
VWidth: 1504
Flags: HW
LayerCount: 2
Fore
SplineSet
436 0 m 1
 26 0 l 1
 87 292 l 1
 35 277 l 1
 30 323 l 1
 98 343 l 1
 177 716 l 1
 236 716 l 1
 161 363 l 1
 508 466 l 1
 498 411 l 1
 149 311 l 1
 95 50 l 1
 447 50 l 1
 436 0 l 1
EndSplineSet
EndChar

StartChar: lslash
Encoding: 322 322 196
Width: 314
VWidth: 1504
Flags: HW
LayerCount: 2
Fore
SplineSet
292 403 m 1
 281 350 l 1
 149 310 l 1
 143 280 l 1
 127 206 122.333 152.667 129 120 c 1
 137 68.6666 170.333 42.3333 229 41 c 1
 212 -11 l 1
 86.6667 -5 42.6667 84.3333 80 257 c 2
 87 292 l 1
 35 277 l 1
 30 323 l 1
 98 343 l 1
 187 760 l 1
 245 760 l 1
 161 363 l 1
 292 403 l 1
EndSplineSet
EndChar

StartChar: OE
Encoding: 338 338 197
Width: 1069
VWidth: 1504
Flags: HW
LayerCount: 2
Fore
SplineSet
958 50 m 1
 948 0 l 1
 558 0 l 1
 581 111 l 1
 499.667 27 404.667 -15 296 -15 c 0
 198 -15 125.667 20.1667 79 90.5 c 128
 32.3333 160.833 20.6667 249.333 44 356 c 256
 67.3333 463.333 117 552.167 193 622.5 c 128
 269 692.833 356 728 454 728 c 0
 562 728 639.333 686 686 602 c 1
 710 716 l 1
 1100 716 l 1
 1089 666 l 1
 758 666 l 1
 701 403 l 1
 996 403 l 1
 985 353 l 1
 690 353 l 1
 627 50 l 1
 958 50 l 1
603 218 m 1
 660 481 l 1
 663.333 530.333 644 575 602 615 c 0
 558 656.333 505.333 677 444 677 c 0
 364 677 291.833 645.667 227.5 583 c 128
 163.167 520.333 121.333 444.667 102 356 c 256
 82.6667 268 92.1667 192.667 130.5 130 c 128
 168.833 67.3333 228 36 308 36 c 0
 365.333 36 420.333 52.5 473 85.5 c 128
 525.667 118.5 569 162.667 603 218 c 1
EndSplineSet
EndChar

StartChar: oe
Encoding: 339 339 198
Width: 1021
VWidth: 1504
Flags: HW
LayerCount: 2
Fore
SplineSet
897 72 m 1
 890 23 l 1
 826.667 -1 761 -13.3333 693 -14 c 0
 583 -14 514 31.3333 486 122 c 1
 420.667 30.6667 335.333 -15 230 -15 c 0
 152.667 -15 96 11 60 63 c 128
 24 115 14 178.667 30 254 c 256
 46 329.333 83.1667 392.833 141.5 444.5 c 128
 199.833 496.167 267.333 522 344 522 c 0
 452 522 518.334 475.333 543 382 c 1
 606.333 475.333 692 522 800 522 c 0
 943.333 522 997.667 432.333 963 253 c 1
 545 253 l 1
 529.671 181.667 537.837 128 569.5 92 c 128
 601.167 56 648 38 710 38 c 0
 769.333 37.3333 831.667 48.6667 897 72 c 1
487 254 m 0
 501 315.333 493.833 367 465.5 409 c 128
 437.167 451 393.333 472 334 472 c 0
 276 472 223.833 451.167 177.5 409.5 c 128
 131.167 367.833 101 316 87 254 c 0
 73.6667 192 81.3333 140 110 98 c 128
 138.667 56 182.333 35 241 35 c 0
 298.333 35 350.167 55.6667 396.5 97 c 128
 442.833 138.333 473 190.667 487 254 c 0
918 299 m 1
 927.333 350.333 920 392.5 896 425.5 c 128
 872 458.5 834.667 475 784 475 c 0
 734.667 475 689.5 458.833 648.5 426.5 c 128
 607.5 394.167 577.333 351.667 558 299 c 1
 918 299 l 1
EndSplineSet
EndChar

StartChar: florin
Encoding: 402 402 204
Width: 598
VWidth: 1504
Flags: HW
LayerCount: 2
Fore
SplineSet
692 671 m 1
 657 629 l 1
 641 640.333 619 645.667 591 645 c 0
 513 645 446 581.333 390 454 c 1
 372 415 l 1
 519 415 l 1
 501 369 l 1
 353 369 l 1
 251 132 l 2
 181.667 -28.6667 87.3333 -108.667 -32 -108 c 0
 -70 -108 -95 -100 -107 -84 c 1
 -72 -42 l 1
 -56 -53.3333 -34 -59 -6 -59 c 0
 71.3333 -59 137.667 4.66666 193 132 c 2
 295 369 l 1
 209 369 l 1
 227 415 l 1
 314 415 l 1
 332 454 l 1
 403.333 614.667 498.333 695 617 695 c 0
 655 695 680 687 692 671 c 1
EndSplineSet
EndChar

StartChar: circumflex
Encoding: 710 710 205
Width: 318
VWidth: 1504
Flags: HW
LayerCount: 2
Fore
SplineSet
308 707 m 1
 388 590 l 1
 332 590 l 1
 280 668 l 1
 194 590 l 1
 138 590 l 1
 266 707 l 1
 308 707 l 1
EndSplineSet
EndChar

StartChar: caron
Encoding: 711 711 206
Width: 318
VWidth: 1504
Flags: HW
LayerCount: 2
Fore
SplineSet
238 578 m 1
 196 578 l 1
 117 695 l 1
 173 695 l 1
 226 617 l 1
 311 695 l 1
 367 695 l 1
 238 578 l 1
EndSplineSet
EndChar

StartChar: breve
Encoding: 728 728 207
Width: 454
VWidth: 1504
Flags: HW
LayerCount: 2
Fore
SplineSet
483 681 m 1
 471.667 653.667 454.667 631.667 432 615 c 0
 400.667 591 365.333 579 326 579 c 256
 286.667 579 256.333 591 235 615 c 1
 221 632.333 214 654.333 214 681 c 1
 266 681 l 1
 267.333 669.662 271 660.328 277 653 c 0
 289 635 309 626 337 626 c 256
 365 626 388.667 635 408 653 c 0
 417.333 661 425.333 670.333 432 681 c 1
 483 681 l 1
EndSplineSet
EndChar

StartChar: dotaccent
Encoding: 729 729 208
Width: 454
VWidth: 1504
Flags: HW
LayerCount: 2
Fore
SplineSet
385 812 m 256
 381.667 798 374 786.333 362 777 c 128
 350 767.667 336.667 763 322 763 c 0
 308 763 297.167 767.667 289.5 777 c 128
 281.829 786.333 279.662 798 283 812 c 256
 286.333 826 293.833 838.333 305.5 849 c 128
 317.167 859.667 330 865 344 865 c 0
 359.333 865 370.833 859.667 378.5 849 c 128
 386.167 838.333 388.333 826 385 812 c 256
EndSplineSet
EndChar

StartChar: ring
Encoding: 730 730 209
Width: 454
VWidth: 1504
Flags: HW
LayerCount: 2
Fore
SplineSet
462 662 m 0
 456 632.665 440 607.332 414 586 c 128
 388 564.667 359.333 554 328 554 c 0
 298.667 554 275.5 564.667 258.5 586 c 128
 241.5 607.333 236 632.667 242 662 c 0
 249.333 693.333 266 720 292 742 c 128
 318 764 345.667 775 375 775 c 0
 406.333 775 430.5 764 447.5 742 c 128
 464.5 720 469.333 693.333 462 662 c 0
418 660 m 0
 422 679.333 419 695.333 409 708 c 128
 399 720.667 384.667 727 366 727 c 0
 348 727 331.667 720.667 317 708 c 128
 302.333 695.333 293 679.333 289 660 c 0
 285 642.667 287.667 628.167 297 616.5 c 128
 306.333 604.833 320 599 338 599 c 0
 357.333 599 374.5 604.833 389.5 616.5 c 128
 404.5 628.167 414 642.667 418 660 c 0
EndSplineSet
EndChar

StartChar: ogonek
Encoding: 731 731 210
Width: 454
VWidth: 1504
Flags: HW
LayerCount: 2
Fore
SplineSet
217 -215 m 1
 195.667 -223 176.667 -228.833 160 -232.5 c 128
 143.333 -236.167 126.667 -238 110 -238 c 0
 74 -238 49.6667 -227.167 37 -205.5 c 128
 24.3333 -183.833 21 -158.333 27 -129 c 0
 31 -111 38 -90.5 48 -67.5 c 128
 58 -44.5 69.6667 -20 83 6 c 1
 143 6 l 1
 113.667 -43.3333 95.6667 -83.3333 89 -114 c 0
 79.6667 -157.333 94.6667 -180.667 134 -184 c 1
 164 -184 195 -176.333 227 -161 c 1
 217 -215 l 1
EndSplineSet
EndChar

StartChar: tilde
Encoding: 732 732 211
Width: 318
VWidth: 1504
Flags: HW
LayerCount: 2
Fore
SplineSet
372 687 m 1
 364.667 661 352.667 639 336 621 c 128
 319.333 603 299.666 594 277 594 c 0
 267.667 594 258.333 596.333 249 601 c 128
 239.667 605.667 230.167 610.5 220.5 615.5 c 128
 210.833 620.5 201.833 625.167 193.5 629.5 c 128
 185.166 633.833 177.333 636 170 636 c 0
 162 636 154.667 631.5 148 622.5 c 128
 141.333 613.5 136 602 132 588 c 1
 95 588 l 1
 101 612 110.667 634 124 654 c 128
 137.333 674 155.667 684 179 684 c 0
 189 684 198.5 681.833 207.5 677.5 c 128
 216.5 673.167 225.5 668 234.5 662 c 128
 243.5 656 252.5 650.667 261.5 646 c 128
 270.5 641.333 280.667 639 292 639 c 0
 299.334 639 306.668 642.833 314 650.5 c 128
 321.333 658.169 327.333 670.336 332 687 c 1
 372 687 l 1
EndSplineSet
EndChar

StartChar: hungarumlaut
Encoding: 733 733 212
Width: 419
VWidth: 1504
Flags: HW
LayerCount: 2
Fore
SplineSet
275 496 m 1
 235 496 l 1
 375 739 l 1
 445 739 l 1
 275 496 l 1
144 496 m 1
 104 496 l 1
 244 739 l 1
 314 739 l 1
 144 496 l 1
EndSplineSet
EndChar

StartChar: uni0E01
Encoding: 3585 3585 214
Width: 580
VWidth: 1504
Flags: HW
LayerCount: 2
Fore
SplineSet
442 51 m 1
 430 3.66667 406 -32 370 -56 c 1
 328 -29 l 1
 362 -3 383.667 30.3333 393 71 c 2
 460 393 l 2
 470 442.333 463 481.5 439 510.5 c 128
 415 539.5 379 554 331 554 c 0
 297 554 261.833 544.333 225.5 525 c 128
 189.167 505.667 161.667 481 143 451 c 1
 201 445.667 237 423.667 251 385 c 1
 225.666 379.667 201.833 366.333 179.5 345 c 128
 157.167 323.667 143 300 137 274 c 2
 80 0 l 1
 26 0 l 1
 83 272 l 2
 96.3333 331.333 131 371.667 187 393 c 1
 157 409 119.667 414.333 75 409 c 1
 95 465 130.333 511.167 181 547.5 c 128
 231.667 583.833 286 602 344 602 c 0
 409.333 602 457.5 583.833 488.5 547.5 c 128
 519.5 511.167 528.667 461.667 516 399 c 2
 442 51 l 1
EndSplineSet
EndChar

StartChar: uni0E02
Encoding: 3586 3586 215
Width: 568
VWidth: 1504
Flags: HW
LayerCount: 2
Fore
SplineSet
194 435 m 256
 197.333 449 195.333 460.5 188 469.5 c 128
 180.667 478.5 170 483 156 483 c 256
 142 483 129.5 478.5 118.5 469.5 c 128
 107.5 460.5 100.667 449 98 435 c 256
 94.6667 421 96.5 409.5 103.5 400.5 c 128
 110.5 391.5 121 387 135 387 c 256
 149 387 161.5 391.5 172.5 400.5 c 128
 183.5 409.5 190.667 421 194 435 c 256
445 125 m 2
 425.667 33.6667 370 -12 278 -12 c 0
 188 -12 152.333 33.6667 171 125 c 2
 202 268 l 2
 208 293.333 228 327.5 262 370.5 c 128
 296 413.5 315.333 447 320 471 c 0
 325.333 494.333 320 514.667 304 532 c 128
 288 549.333 266 558 238 558 c 0
 194 558 157.333 543.333 128 514 c 1
 138 518 150 520 164 520 c 0
 190 520 209.5 511.833 222.5 495.5 c 128
 235.5 479.167 239.667 458.333 235 433 c 0
 229 407 215.833 385.167 195.5 367.5 c 128
 175.167 349.833 152 341 126 341 c 0
 94.6667 341 73.3333 352.667 62 376 c 128
 50.6667 399.333 48.6667 427.333 56 460 c 0
 63.3333 497.333 84.3333 530.333 119 559 c 128
 153.667 587.667 196.667 602 248 602 c 0
 292 602 325.833 590.833 349.5 568.5 c 128
 373.167 546.167 381 516 373 478 c 0
 367 448.667 347 410.5 313 363.5 c 128
 279 316.5 259.333 282 254 260 c 2
 226 120 l 2
 214 64 235.333 36 290 36 c 256
 345.333 36 379 64 391 120 c 2
 483 552 l 2
 491 590 505.333 620 526 642 c 1
 569 615 l 1
 555 603 542.667 575.333 532 532 c 2
 445 125 l 2
EndSplineSet
EndChar

StartChar: uni0E03
Encoding: 3587 3587 216
Width: 574
VWidth: 1504
Flags: HW
LayerCount: 2
Fore
SplineSet
187 375 m 256
 190.333 389 188.333 400.5 181 409.5 c 128
 173.667 418.5 163 423 149 423 c 256
 135 423 122.5 418.5 111.5 409.5 c 128
 100.5 400.5 93.3333 389 90 375 c 256
 86.6667 361 88.8333 349.333 96.5 340 c 128
 104.167 330.667 115 326 129 326 c 256
 143 326 155.333 330.667 166 340 c 128
 176.667 349.333 183.667 361 187 375 c 256
451 125 m 2
 431.667 33.6667 376 -12 284 -12 c 0
 194 -12 158.333 33.6667 177 125 c 1
 199 220 l 1
 205 252 228.167 292.333 268.5 341 c 128
 308.833 389.667 332.667 429.333 340 460 c 0
 351.333 512 338.333 542.333 301 551 c 1
 235 487 l 1
 194 549 l 1
 156.667 527 129 498 111 462 c 1
 126.333 468 143 471 161 471 c 0
 190.333 471 211.5 461.667 224.5 443 c 128
 237.5 424.333 241 401 235 373 c 0
 229 343.667 214.667 320 192 302 c 128
 169.333 284 144.333 275 117 275 c 0
 83 275 60 289 48 317 c 0
 38 342.333 36.6667 373 44 409 c 0
 53.3333 452.333 73.6667 492.333 105 529 c 0
 140.333 570.333 179.667 595 223 603 c 1
 248 551 l 1
 301 603 l 1
 336.333 599 362.333 582 379 552 c 1
 393 524 396 492 388 456 c 0
 380.667 424.667 357.5 384 318.5 334 c 128
 279.5 284 257 244.333 251 215 c 2
 232 120 l 2
 220 64 241.333 36 296 36 c 256
 351.333 36 385 64 397 120 c 2
 489 552 l 2
 497 590 511.333 620 532 642 c 1
 575 615 l 1
 561 603 549 575.333 539 532 c 2
 451 125 l 2
EndSplineSet
EndChar

StartChar: uni0E04
Encoding: 3588 3588 217
Width: 591
VWidth: 1504
Flags: HW
LayerCount: 2
Fore
SplineSet
453 51 m 1
 441 3.66667 417 -32 381 -56 c 1
 338 -29 l 1
 372 -3 393.667 30.3333 403 71 c 2
 474 405 l 2
 484 453 474 489.833 444 515.5 c 128
 414 541.167 376.333 554 331 554 c 0
 285 554 241.167 538.167 199.5 506.5 c 128
 157.833 474.833 132.333 436 123 390 c 0
 117.667 368 115.667 341.333 117 310 c 0
 119 266 120 241 120 235 c 1
 141.333 292.333 167 341 197 381 c 0
 237 433 279 459 323 459 c 0
 348.333 459 367.5 451 380.5 435 c 128
 393.5 419 397 397.333 391 370 c 0
 385 344.667 371.667 323.333 351 306 c 128
 330.333 288.667 307.667 280 283 280 c 0
 257 280 236.333 292 221 316 c 1
 203 294.667 182.333 264.667 159 226 c 0
 131.667 178 114.333 135.333 107 98 c 2
 87 0 l 1
 33 0 l 1
 62 138 l 2
 68 167.333 68.6667 208.5 64 261.5 c 128
 59.3333 314.5 60 355.333 66 384 c 0
 80 449.333 113.333 502 166 542 c 128
 218.667 582 278 602 344 602 c 0
 405.333 602 454.833 585.667 492.5 553 c 128
 530.167 520.333 542 472.333 528 409 c 2
 453 51 l 1
349 370 m 256
 352.328 383.333 350.161 394.5 342.5 403.5 c 128
 334.833 412.5 324.333 417 311 417 c 256
 297.667 417 285.833 412.5 275.5 403.5 c 128
 265.167 394.5 258.667 383.333 256 370 c 256
 252.667 356.667 254.5 345.5 261.5 336.5 c 128
 268.5 327.5 278.667 323 292 323 c 256
 305.333 323 317.333 327.5 328 336.5 c 128
 338.667 345.5 345.667 356.667 349 370 c 256
EndSplineSet
EndChar

StartChar: uni0E05
Encoding: 3589 3589 218
Width: 591
VWidth: 1504
Flags: HW
LayerCount: 2
Fore
SplineSet
453 51 m 1
 441 3.66667 417 -32 381 -56 c 1
 338 -29 l 1
 372 -3 393.667 30.3333 403 71 c 2
 477 421 l 2
 491 490.333 466.333 533 403 549 c 1
 314 468 l 1
 251 551 l 1
 215.667 533.667 185.667 507.333 161 472 c 0
 143 446 131.333 421.667 126 399 c 0
 118.667 365 115.667 305.333 117 220 c 1
 172.333 356.667 237.667 424.667 313 424 c 0
 339 424 358.5 416 371.5 400 c 128
 384.5 384 388 363 382 337 c 0
 376.667 311.667 364 290.5 344 273.5 c 128
 324 256.5 302 248 278 248 c 0
 246 248 222 259.667 206 283 c 1
 190 269 172 242.333 152 203 c 0
 130 159.667 115 119 107 81 c 2
 90 0 l 1
 36 0 l 1
 62 120 l 2
 68 151.333 68.6667 196 64 254 c 128
 59.3333 312 60 356.333 66 387 c 0
 91.3333 502.333 161.667 575 277 605 c 1
 326 528 l 1
 403 605 l 1
 508.333 583 551 522.667 531 424 c 2
 453 51 l 1
341 337 m 256
 344.333 350.333 342.5 361.5 335.5 370.5 c 128
 328.5 379.5 318.333 384 305 384 c 256
 291.667 384 279.667 379.333 269 370 c 128
 258.332 360.667 251.332 349.667 248 337 c 256
 244.669 323.667 246.835 312.5 254.5 303.5 c 128
 262.167 294.5 272.667 290 286 290 c 256
 299.333 290 311 294.5 321 303.5 c 128
 331 312.5 337.667 323.667 341 337 c 256
EndSplineSet
EndChar

StartChar: uni0E06
Encoding: 3590 3590 219
Width: 613
VWidth: 1504
Flags: HW
LayerCount: 2
Fore
SplineSet
217 92 m 256
 220.333 106 217.833 118.167 209.5 128.5 c 128
 201.167 138.833 190 144 176 144 c 256
 162 144 148.5 138.833 135.5 128.5 c 128
 122.5 118.167 114.333 106 111 92 c 256
 107.667 78 110.333 65.6667 119 55 c 128
 127.667 44.3333 139 39 153 39 c 256
 167 39 180.333 44.3333 193 55 c 128
 205.667 65.6667 213.667 78 217 92 c 256
187 375 m 256
 190.333 389 188.333 400.5 181 409.5 c 128
 173.667 418.5 163 423 149 423 c 256
 135 423 122.5 418.5 111.5 409.5 c 128
 100.5 400.5 93.3333 389 90 375 c 256
 86.6667 361 88.8333 349.333 96.5 340 c 128
 104.167 330.667 115 326 129 326 c 256
 143 326 155.333 330.667 166 340 c 128
 176.667 349.333 183.667 361 187 375 c 256
465 0 m 1
 411 0 l 1
 385 82 334.333 131.667 259 149 c 1
 269 133 271.333 114 266 92 c 0
 260 62.6667 245.333 38 222 18 c 128
 198.666 -2 172.333 -12 143 -12 c 0
 113 -12 90.1667 -2 74.5 18 c 128
 58.8333 38 54 62.6667 60 92 c 0
 67.3333 121.333 83 145.667 107 165 c 128
 131 184.333 157.667 194 187 194 c 2
 193 194 l 1
 199 220 l 1
 205 252 228.167 292.333 268.5 341 c 128
 308.833 389.667 332.667 429.333 340 460 c 0
 351.333 512 338.333 542.333 301 551 c 1
 235 487 l 1
 194 549 l 1
 156.667 527 129 498 111 462 c 1
 126.333 468 143 471 161 471 c 0
 190.333 471 211.5 461.667 224.5 443 c 128
 237.5 424.333 241 401 235 373 c 0
 229 343.667 214.667 320 192 302 c 128
 169.333 284 144.333 275 117 275 c 0
 83 275 60 289 48 317 c 0
 38 342.333 36.6667 373 44 409 c 0
 53.3333 452.333 73.6667 492.333 105 529 c 0
 140.333 570.333 179.667 595 223 603 c 1
 248 551 l 1
 301 603 l 1
 336.333 599 361.667 583.167 377 555.5 c 128
 392.333 527.833 396 494.667 388 456 c 0
 380.667 424.667 357.5 384 318.5 334 c 128
 279.5 284 257 244.333 251 215 c 2
 247 193 l 1
 334.333 183 394.333 145.667 427 81 c 1
 528 552 l 2
 536 590 550.667 620 572 642 c 1
 614 615 l 1
 600 603 588 575.333 578 532 c 2
 465 0 l 1
EndSplineSet
EndChar

StartChar: uni0E07
Encoding: 3591 3591 220
Width: 442
VWidth: 1504
Flags: HW
LayerCount: 2
Fore
SplineSet
350 504 m 256
 353.333 518 351 530 343 540 c 128
 335 550 324 555 310 555 c 256
 296 555 283 550 271 540 c 128
 259 530 251.333 518 248 504 c 256
 244.669 490 246.835 478 254.5 468 c 128
 262.167 458 273 453 287 453 c 256
 301 453 314.167 458 326.5 468 c 128
 338.835 478 346.668 490 350 504 c 256
293 0 m 1
 239 0 l 1
 59 265 l 2
 47 284.334 39 305.667 35 329 c 1
 71 373 l 1
 77 343.667 88.3333 315.667 105 289 c 1
 254 77 l 1
 326 414 l 1
 310 406.667 293.667 403 277 403 c 0
 249.667 403 228.5 412.833 213.5 432.5 c 128
 198.5 452.167 193.667 475 199 501 c 0
 205 530.333 219.667 554.5 243 573.5 c 128
 266.333 592.5 292 602 320 602 c 0
 352 602 375.333 591.333 390 570 c 0
 402 550.667 405 527.667 399 501 c 2
 293 0 l 1
EndSplineSet
EndChar

StartChar: uni0E08
Encoding: 3592 3592 221
Width: 552
VWidth: 1504
Flags: HW
LayerCount: 2
Fore
SplineSet
423 98 m 2
 407.667 24 364.333 -13.3333 293 -14 c 0
 237 -14 210.667 14.3333 214 71 c 2
 224 239 l 1
 206.667 229.666 188.667 225.332 170 226 c 0
 144.667 226 125.5 234.5 112.5 251.5 c 128
 99.5 268.5 95.6667 289.333 101 314 c 0
 106.333 340 119.333 361.833 140 379.5 c 128
 160.667 397.167 183.667 406 209 406 c 0
 231 406 249 398.833 263 384.5 c 128
 277 370.167 283.667 351.667 283 329 c 2
 272 74 l 2
 270.667 48.6667 282.333 36 307 36 c 0
 340.333 36 360.333 54 367 90 c 2
 442 444 l 2
 450 483.334 440.5 511.167 413.5 527.5 c 128
 386.5 543.833 352.333 552 311 552 c 0
 265.667 552 226 542.5 192 523.5 c 128
 158 504.5 134 478.333 120 445 c 1
 65 445 l 1
 79 487 106 522.334 146 551 c 0
 195.333 585 253.333 602 320 602 c 0
 460.667 602 519.334 549.333 496 444 c 2
 423 98 l 2
238 314 m 256
 241.333 327.333 239.333 338.5 232 347.5 c 128
 224.667 356.5 214.667 361 202 361 c 256
 188.667 361 176.667 356.5 166 347.5 c 128
 155.333 338.5 148.667 327.333 146 314 c 256
 142.667 300.667 144.5 289.833 151.5 281.5 c 128
 158.5 273.167 168.667 269 182 269 c 256
 195.333 269 207.167 273.167 217.5 281.5 c 128
 227.833 289.834 234.667 300.667 238 314 c 256
EndSplineSet
EndChar

StartChar: uni0E09
Encoding: 3593 3593 222
Width: 567
VWidth: 1504
Flags: HW
LayerCount: 2
Fore
SplineSet
462 83 m 0
 456.667 57 443.5 34.8333 422.5 16.5 c 128
 401.5 -1.83333 376.333 -11 347 -11 c 0
 321 -11 301 -1.83333 287 16.5 c 128
 273 34.8333 268.667 57 274 83 c 0
 276 92.3333 278 98.6667 280 102 c 1
 218 78 167.333 44 128 0 c 1
 60 0 l 1
 89 140 l 2
 95 169.333 103.333 191.333 114 206 c 1
 108 206 l 2
 82.6667 206 63.1667 214.833 49.5 232.5 c 128
 35.8333 250.167 31.3333 271.333 36 296 c 0
 42 322 55.5 343.833 76.5 361.5 c 128
 97.5 379.167 120.667 388 146 388 c 0
 172 388 192 379.167 206 361.5 c 128
 220 343.833 224 322 218 296 c 0
 214 276.667 202 252.833 182 224.5 c 128
 162 196.167 150 171 146 149 c 2
 125 53 l 1
 168.333 101 230.333 136.333 311 159 c 1
 374.333 185 412 228.333 424 289 c 1
 457 439 l 2
 464.333 474.333 452.333 503 421 525 c 0
 393.667 543 359.667 552 319 552 c 0
 281 552 244 543 208 525 c 0
 166.667 503.667 138.333 476 123 442 c 1
 68 442 l 1
 80 484 107.333 520.334 150 551 c 0
 200 585 258.667 602 326 602 c 0
 391.334 602 440.667 589 474 563 c 0
 510 533.666 522 492 510 438 c 2
 478 286 l 2
 468 238 446.667 200.333 414 173 c 1
 456 159 472 129 462 83 c 0
418 83 m 0
 421.327 97 419.16 108.667 411.5 118 c 128
 403.833 127.333 393 132 379 132 c 0
 365.667 132 353 127.333 341 118 c 128
 329 108.667 321.667 97 319 83 c 0
 315.667 69.6667 318 58 326 48 c 128
 334 38 344.667 33 358 33 c 0
 372 33 384.667 38 396 48 c 128
 407.335 58 414.668 69.6667 418 83 c 0
173 296 m 0
 176.333 309.335 174.667 320.168 168 328.5 c 128
 161.333 336.833 151.333 341 138 341 c 256
 124.667 341 112.833 336.833 102.5 328.5 c 128
 92.1667 320.167 85.6667 309.333 83 296 c 0
 81 282.667 83.1667 271.833 89.5 263.5 c 128
 95.8334 255.167 105.667 251 119 251 c 256
 132.333 251 144.167 255.167 154.5 263.5 c 128
 164.833 271.834 171 282.668 173 296 c 0
EndSplineSet
EndChar

StartChar: uni0E0A
Encoding: 3594 3594 223
Width: 571
VWidth: 1504
Flags: HW
LayerCount: 2
Fore
SplineSet
448 125 m 2
 428.667 33.6667 372.667 -12 280 -12 c 0
 188.667 -12 152.333 33.6667 171 125 c 2
 202 268 l 2
 208 293.333 228 327.5 262 370.5 c 128
 296 413.5 315.333 447 320 471 c 0
 325.333 494.333 320 514.667 304 532 c 128
 288 549.333 266 558 238 558 c 0
 194 558 157.333 543.333 128 514 c 1
 138 518 150 520 164 520 c 0
 190 520 209.5 511.833 222.5 495.5 c 128
 235.5 479.167 239.667 458.333 235 433 c 0
 229 407 215.833 385.167 195.5 367.5 c 128
 175.167 349.833 152 341 126 341 c 0
 94.6667 341 73.3333 352.667 62 376 c 128
 50.6667 399.333 48.6667 427.333 56 460 c 0
 63.3333 497.333 84.3333 530.333 119 559 c 128
 153.667 587.667 196.667 602 248 602 c 0
 292 602 325.833 590.833 349.5 568.5 c 128
 373.167 546.167 381 516 373 478 c 0
 367 448.667 347 410.5 313 363.5 c 128
 279 316.5 259.333 282 254 260 c 2
 226 120 l 2
 214 64 236 36 292 36 c 256
 348 36 382 64 394 120 c 2
 445 363 l 2
 454.333 407 439 436.333 399 451 c 1
 415 497 440.5 537.833 475.5 573.5 c 128
 510.5 609.167 553 632 603 642 c 1
 630 605 l 1
 550.667 591 492.667 546.333 456 471 c 1
 497.334 455 512.334 421 501 369 c 2
 448 125 l 2
194 435 m 256
 197.333 449 195.333 460.5 188 469.5 c 128
 180.667 478.5 170 483 156 483 c 256
 142 483 129.5 478.5 118.5 469.5 c 128
 107.5 460.5 100.667 449 98 435 c 256
 94.6667 421 96.5 409.5 103.5 400.5 c 128
 110.5 391.5 121 387 135 387 c 256
 149 387 161.5 391.5 172.5 400.5 c 128
 183.5 409.5 190.667 421 194 435 c 256
EndSplineSet
EndChar

StartChar: uni0E0B
Encoding: 3595 3595 224
Width: 577
VWidth: 1504
Flags: HW
LayerCount: 2
Fore
SplineSet
187 375 m 256
 190.333 389 188.333 400.5 181 409.5 c 128
 173.667 418.5 163 423 149 423 c 256
 135 423 122.5 418.5 111.5 409.5 c 128
 100.5 400.5 93.3333 389 90 375 c 256
 86.6667 361 88.8333 349.333 96.5 340 c 128
 104.167 330.667 115 326 129 326 c 256
 143 326 155.333 330.667 166 340 c 128
 176.667 349.333 183.667 361 187 375 c 256
454 125 m 2
 434.667 33.6667 378.667 -12 286 -12 c 0
 194.667 -12 158.333 33.6667 177 125 c 1
 199 220 l 1
 205 252 228.167 292.333 268.5 341 c 128
 308.833 389.667 332.667 429.333 340 460 c 0
 351.333 512 338.333 542.333 301 551 c 1
 235 487 l 1
 194 549 l 1
 156.667 527 129 498 111 462 c 1
 126.333 468 143 471 161 471 c 0
 190.333 471 211.5 461.667 224.5 443 c 128
 237.5 424.333 241 401 235 373 c 0
 229 343.667 214.667 320 192 302 c 128
 169.333 284 144.333 275 117 275 c 0
 83 275 60 289 48 317 c 0
 38 342.333 36.6667 373 44 409 c 0
 53.3333 452.333 73.6667 492.333 105 529 c 0
 140.333 570.333 179.667 595 223 603 c 1
 248 551 l 1
 301 603 l 1
 336.333 599 362.333 582 379 552 c 1
 393 524 396 492 388 456 c 0
 380.667 424.667 357.5 384 318.5 334 c 128
 279.5 284 257 244.333 251 215 c 2
 232 122 l 2
 220 64.6667 242 36 298 36 c 256
 354 36 388 64 400 120 c 2
 451 363 l 2
 460.333 407 445 436.333 405 451 c 1
 421 497 446.5 537.833 481.5 573.5 c 128
 516.5 609.167 559 632 609 642 c 1
 636 605 l 1
 556.667 591 498.667 546.333 462 471 c 1
 503.335 455 518.335 421 507 369 c 2
 454 125 l 2
EndSplineSet
EndChar

StartChar: uni0E0C
Encoding: 3596 3596 225
Width: 780
VWidth: 1504
Flags: HW
LayerCount: 2
Fore
SplineSet
632 0 m 1
 576 0 l 1
 558.667 37.3333 525.667 72.3333 477 105 c 1
 478.333 97 478.333 90.6667 477 86 c 0
 471 58.6667 457.167 35.1667 435.5 15.5 c 128
 413.833 -4.16667 387.333 -14 356 -14 c 0
 328.667 -14 307.333 -4.16667 292 15.5 c 128
 276.667 35.1667 272 58.6667 278 86 c 0
 283.334 112 296.667 134.5 318 153.5 c 128
 339.333 172.5 363.333 183 390 185 c 1
 435 399 l 2
 457 502.333 416.333 554 313 554 c 0
 281 554 248.333 544.167 215 524.5 c 128
 181.667 504.833 156.667 480 140 450 c 1
 195.333 446 231 424 247 384 c 1
 221.667 378.667 197.667 365.5 175 344.5 c 128
 152.333 323.5 138 300 132 274 c 2
 113 179 l 1
 123 183 135 185 149 185 c 0
 176.333 185 197.5 175.167 212.5 155.5 c 128
 227.5 135.833 232.333 112.667 227 86 c 0
 221 58.6667 206.667 35.1667 184 15.5 c 128
 161.333 -4.16667 135.667 -14 107 -14 c 256
 77.6667 -14 55.8333 -4.16667 41.5 15.5 c 128
 27.1667 35.1667 23 58.6667 29 86 c 0
 32.3333 102 38.6667 116.333 48 129 c 1
 78 272 l 2
 89.3333 326 124 365.667 182 391 c 1
 146.667 406.333 108 412 66 408 c 1
 87.3334 464 122.333 510.333 171 547 c 128
 219.667 583.667 271.333 602 326 602 c 0
 389.333 602 435.833 584.667 465.5 550 c 128
 495.167 515.333 503.333 467 490 405 c 2
 442 179 l 1
 518 151 567.667 115 591 71 c 1
 695 552 l 2
 703 590 717.667 620 739 642 c 1
 781 615 l 1
 767 603 755 575.333 745 532 c 2
 632 0 l 1
427 86 m 256
 430.333 100 428 112 420 122 c 128
 412 132 401 137 387 137 c 256
 373 137 360.167 132 348.5 122 c 128
 336.833 112 329.333 100 326 86 c 256
 322.667 72 324.833 60.1667 332.5 50.5 c 128
 340.167 40.8333 351.333 36 366 36 c 256
 380 36 392.833 40.8333 404.5 50.5 c 128
 416.167 60.1667 423.667 72 427 86 c 256
179 86 m 256
 182.333 100 179.833 112 171.5 122 c 128
 163.167 132 152 137 138 137 c 256
 124 137 111.333 132 100 122 c 128
 88.6667 112 81.3333 100 78 86 c 256
 74.6667 72 76.8333 60.1667 84.5 50.5 c 128
 92.1667 40.8333 103 36 117 36 c 256
 131 36 144 40.8333 156 50.5 c 128
 168 60.1667 175.667 72 179 86 c 256
EndSplineSet
EndChar

StartChar: uni0E0D
Encoding: 3597 3597 226
Width: 780
VWidth: 1504
Flags: HW
LayerCount: 2
Fore
SplineSet
642 -51 m 1
 628 -111 602 -160.333 564 -199 c 128
 526 -237.667 475.333 -257 412 -257 c 0
 372 -257 338.667 -244.5 312 -219.5 c 128
 285.333 -194.5 276 -163.333 284 -126 c 0
 288 -104 299.833 -85 319.5 -69 c 128
 339.167 -53 360 -45 382 -45 c 0
 405.334 -45 423.167 -53 435.5 -69 c 128
 447.833 -85 452 -104 448 -126 c 0
 440 -163.333 417 -189 379 -203 c 1
 389 -210.333 402.667 -214 420 -214 c 0
 506 -214 561.667 -159.667 587 -51 c 1
 642 -51 l 1
408 -126 m 0
 410 -114.667 407.667 -105.167 401 -97.5 c 128
 394.332 -89.8333 385.665 -86 375 -86 c 256
 363.667 -86 353.167 -90 343.5 -98 c 128
 333.833 -106 328 -115.333 326 -126 c 0
 322.667 -137.333 324.333 -147 331 -155 c 128
 337.667 -163 346.667 -167 358 -167 c 256
 369.335 -167 379.668 -163 389 -155 c 128
 398.336 -147 404.67 -137.333 408 -126 c 0
190 86 m 256
 193.333 100 190.833 112 182.5 122 c 128
 174.167 132 163 137 149 137 c 256
 135 137 122.167 132 110.5 122 c 128
 98.8332 112 91.6666 100 89 86 c 256
 85.6667 72 87.8333 60.1667 95.5 50.5 c 128
 103.167 40.8333 114 36 128 36 c 256
 142 36 155 40.8333 167 50.5 c 128
 179 60.1667 186.667 72 190 86 c 256
657 123 m 2
 637.667 33 579 -12 481 -12 c 0
 383.667 -12 344.667 33.6667 364 125 c 2
 423 399 l 2
 445 502.333 407.333 554 310 554 c 0
 278 554 246.167 544.333 214.5 525 c 128
 182.833 505.667 158 480.667 140 450 c 1
 195.333 446 231 424 247 384 c 1
 221.667 378.667 197.667 365.5 175 344.5 c 128
 152.333 323.5 138 300 132 274 c 2
 111 176 l 1
 126.333 182 142.333 185 159 185 c 0
 187 185 208.667 175.5 224 156.5 c 128
 239.333 137.5 244 114.333 238 87 c 256
 232 59.6667 219.167 36 199.5 16 c 128
 179.833 -4 152.333 -14 117 -14 c 0
 87.6667 -14 65.6667 -4.66667 51 14 c 128
 36.3333 32.6667 32.3333 57.6667 39 89 c 2
 78 272 l 2
 89.3333 326 124 365.667 182 391 c 1
 146.667 406.333 108 412 66 408 c 1
 87.3334 464 121.833 510.333 169.5 547 c 128
 217.167 583.667 268.333 602 323 602 c 0
 385 602 429.667 584.833 457 550.5 c 128
 484.333 516.166 491.333 467.666 478 405 c 2
 418 120 l 2
 406 64 431 36 493 36 c 0
 554.333 36 591 64 603 120 c 2
 695 552 l 2
 703 590 717.667 620 739 642 c 1
 781 615 l 1
 767 603 755 575.333 745 532 c 2
 657 123 l 2
EndSplineSet
Substitution2: "<23,16000>  in Thai lookup 65 nested-substitutions 7 subtable" uni0E0D.alt1
Substitution2: "Single Substitution lookup 58 subtable" uni0E0D.alt1
EndChar

StartChar: uni0E0E
Encoding: 3598 3598 227
Width: 639
VWidth: 1504
Flags: HW
LayerCount: 2
Fore
SplineSet
421 -323 m 1
 361 -323 l 1
 357.667 -299 339.833 -275 307.5 -251 c 128
 275.167 -227 245 -211 217 -203 c 1
 214 -214 l 1
 208 -246 192.833 -273.167 168.5 -295.5 c 128
 144.167 -317.833 116 -329 84 -329 c 0
 54 -329 32.5 -320.333 19.5 -303 c 128
 6.5 -285.667 2.66667 -264 8 -238 c 0
 15.3333 -206.667 31.6667 -182 57 -164 c 128
 82.3333 -146 110.333 -137 141 -137 c 0
 146.333 -137 159.667 -138.333 181 -141 c 1
 192.333 -103.667 216.333 -75.6667 253 -57 c 1
 289 -81 l 1
 255 -100.333 234.333 -124.333 227 -153 c 1
 301 -181 352.667 -214.667 382 -254 c 1
 519 391 l 2
 529 440.333 522 479.833 498 509.5 c 128
 474 539.167 438 554 390 554 c 0
 356 554 320.833 544.167 284.5 524.5 c 128
 248.167 504.833 221 480 203 450 c 1
 255 444.667 291 422.667 311 384 c 1
 253 366 218 329.333 206 274 c 0
 198 234.667 194 194.333 194 153 c 0
 194 135 191.667 114 187 90 c 0
 181 60.6667 166.167 36.3333 142.5 17 c 128
 118.833 -2.33333 93.3333 -12 66 -12 c 256
 38.6667 -12 17.8333 -2.5 3.5 16.5 c 128
 -10.8333 35.5 -15 58.6667 -9 86 c 0
 -3.66667 113.333 10.5 136.667 33.5 156 c 128
 56.5 175.333 81.3333 185 108 185 c 0
 119.333 185 131 182.333 143 177 c 1
 146.333 223 150.333 258.333 155 283 c 0
 165 329 193 365 239 391 c 1
 213.667 403 188 409 162 409 c 0
 148.667 409 139.333 408.667 134 408 c 1
 151.333 464 185.667 510.333 237 547 c 128
 288.333 583.667 343.333 602 402 602 c 0
 466 602 514 583.667 546 547 c 128
 578 510.333 587.667 460.333 575 397 c 2
 421 -323 l 1
165 -191 m 1
 155.666 -187.667 145.333 -186.333 134 -187 c 0
 88.6667 -187 62.6667 -203 56 -235 c 0
 50 -266.333 63.3333 -281.667 96 -281 c 0
 131.333 -281 153.333 -258.667 162 -214 c 0
 164 -206.667 165 -199 165 -191 c 1
138 86 m 256
 141.333 100 139 112 131 122 c 128
 123 132 112 137 98 137 c 256
 84 137 71.1667 132 59.5 122 c 128
 47.8333 112 40.6667 100 38 86 c 256
 34.6667 72 36.8334 60.1667 44.5 50.5 c 128
 52.1667 40.8333 63 36 77 36 c 256
 91 36 103.833 40.8333 115.5 50.5 c 128
 127.167 60.1667 134.667 72 138 86 c 256
EndSplineSet
Substitution2: "<23,16000>  in Thai lookup 75 nested-substitutions 0 subtable" uni0E0E.alt1
Substitution2: "Single Substitution lookup 58 subtable" uni0E0E.alt1
EndChar

StartChar: uni0E0F
Encoding: 3599 3599 228
Width: 639
VWidth: 1504
Flags: HW
LayerCount: 2
Fore
SplineSet
113 -202 m 1
 105.667 -192.667 91.6667 -188 71 -188 c 0
 31.6667 -188 8.66667 -205 2 -239 c 0
 -4 -269 8.33333 -284 39 -284 c 0
 76.3333 -284.667 101 -257.334 113 -202 c 1
421 -323 m 1
 361 -323 l 1
 299 -232 l 1
 214 -322 l 1
 150 -232 l 1
 142 -263.333 126.833 -287.667 104.5 -305 c 128
 82.1667 -322.333 58.3333 -331 33 -331 c 0
 3 -331 -18.5 -322 -31.5 -304 c 128
 -44.5 -286 -48 -264 -42 -238 c 0
 -36 -208.667 -21.6667 -185.167 1 -167.5 c 128
 23.6667 -149.833 49 -141 77 -141 c 0
 96.3334 -141 111.667 -144.667 123 -152 c 1
 132.333 -116.667 159 -87.6667 203 -65 c 1
 239 -89 l 1
 199.667 -110.333 175.667 -138.333 167 -173 c 1
 224 -251 l 1
 314 -156 l 1
 382 -254 l 1
 519 391 l 2
 529 440.333 522 479.833 498 509.5 c 128
 474 539.167 438 554 390 554 c 0
 356 554 320.833 544.167 284.5 524.5 c 128
 248.167 504.833 221 480 203 450 c 1
 255 444.667 291 422.667 311 384 c 1
 253 366 218 329.333 206 274 c 0
 198 234.667 194 194.333 194 153 c 0
 194 135 191.667 114 187 90 c 0
 181 60.6667 166.167 36.3333 142.5 17 c 128
 118.833 -2.33333 93.3333 -12 66 -12 c 256
 38.6667 -12 17.8333 -2.5 3.5 16.5 c 128
 -10.8333 35.5 -15 58.6667 -9 86 c 0
 -3.66667 113.333 10.5 136.667 33.5 156 c 128
 56.5 175.333 81.3333 185 108 185 c 0
 119.333 185 131 182.333 143 177 c 1
 146.333 223 150.333 258.333 155 283 c 0
 165 329 193 365 239 391 c 1
 213.667 403 188 409 162 409 c 0
 148.667 409 139.333 408.667 134 408 c 1
 151.333 464 185.667 510.333 237 547 c 128
 288.333 583.667 343.333 602 402 602 c 0
 466 602 514 583.667 546 547 c 128
 578 510.333 587.667 460.333 575 397 c 2
 421 -323 l 1
138 86 m 256
 141.333 100 139 112 131 122 c 128
 123 132 112 137 98 137 c 256
 84 137 71.1667 132 59.5 122 c 128
 47.8333 112 40.6667 100 38 86 c 256
 34.6667 72 36.8334 60.1667 44.5 50.5 c 128
 52.1667 40.8333 63 36 77 36 c 256
 91 36 103.833 40.8333 115.5 50.5 c 128
 127.167 60.1667 134.667 72 138 86 c 256
EndSplineSet
Substitution2: "<23,16000>  in Thai lookup 75 nested-substitutions 0 subtable" uni0E0F.alt1
Substitution2: "Single Substitution lookup 58 subtable" uni0E0F.alt1
EndChar

StartChar: uni0E10
Encoding: 3600 3600 229
Width: 515
VWidth: 1504
Flags: HW
LayerCount: 2
Fore
SplineSet
385 119 m 2
 367 31 318 -13.3333 238 -14 c 0
 158.667 -14 128 30.3333 146 119 c 2
 162 196 l 1
 150 192 137 190 123 190 c 0
 97.6667 190 78.3333 198.167 65 214.5 c 128
 51.6667 230.833 48 251.667 54 277 c 1
 59.3333 303 72.5 324.833 93.5 342.5 c 128
 114.5 360.167 137.333 369 162 369 c 0
 188 369 208.167 361.167 222.5 345.5 c 128
 236.833 329.833 241 308 235 280 c 2
 200 114 l 2
 188.667 62 204.667 36 248 36 c 0
 292 36 319.667 62 331 114 c 2
 376 332 l 1
 382 356 339 380.333 247 405 c 0
 191.667 420.333 132 432.333 68 441 c 1
 81.3333 487 107.167 525.334 145.5 556 c 128
 183.833 586.667 229.667 602 283 602 c 0
 304.333 602 331.5 596.5 364.5 585.5 c 128
 397.5 574.5 423.333 569 442 569 c 0
 477.333 569 502.333 593.333 517 642 c 1
 561 632 l 1
 533.666 552.667 491 513 433 513 c 0
 411 513 382 519 346 531 c 128
 310 543 282 549 262 549 c 0
 238.667 549 214.667 542.167 190 528.5 c 128
 165.333 514.833 150.667 499 146 481 c 1
 241.333 461 308.333 443 347 427 c 0
 411 401.667 439.333 371.667 432 337 c 2
 385 119 l 2
332 -150 m 2
 296 -325 l 1
 238 -325 l 1
 181 -284 l 1
 107 -323 l 1
 56 -241 l 1
 50 -269 35.8333 -291 13.5 -307 c 128
 -8.83333 -323 -33 -331 -59 -331 c 0
 -123 -329.667 -149 -301 -137 -245 c 0
 -131.667 -221 -117.833 -202.5 -95.5 -189.5 c 128
 -73.1667 -176.5 -48.3333 -170 -21 -170 c 0
 1 -170 17.6667 -172.333 29 -177 c 1
 44.3333 -135.667 72.6667 -105.333 114 -86 c 1
 150 -108 l 1
 104.667 -128 77.6666 -157.667 69 -197 c 1
 119 -274 l 1
 190 -241 l 1
 253 -286 l 1
 268 -218 l 1
 262 -219.333 253.333 -220 242 -220 c 0
 220.667 -220 204 -213.167 192 -199.5 c 128
 180 -185.833 176.333 -169.333 181 -150 c 256
 185 -130.667 196 -114.333 214 -101 c 128
 232 -87.6667 251.333 -81 272 -81 c 0
 292 -81 308.333 -87.1667 321 -99.5 c 128
 333.667 -111.833 337.333 -128.667 332 -150 c 2
14 -221 m 1
 6 -213.667 -9.66667 -210.333 -33 -211 c 1
 -67 -213 -86.6667 -226 -92 -250 c 0
 -97.3333 -276 -84.3333 -289 -53 -289 c 0
 -15.6667 -289 6 -273 12 -241 c 1
 14.6667 -235.667 15.3333 -229 14 -221 c 1
293 -150 m 0
 298.333 -128 289 -117 265 -117 c 256
 241 -117 226.333 -128 221 -150 c 0
 215.667 -173.333 225.334 -185 250 -185 c 256
 273.334 -185 287.667 -173.333 293 -150 c 0
184 278 m 0
 186 289.333 183.833 299 177.5 307 c 128
 171.167 315 162.667 319 152 319 c 256
 140.667 319 130.333 315 121 307 c 128
 111.667 299 106 289.333 104 278 c 0
 100.667 266.667 102 257.333 108 250 c 128
 114 242.667 122.667 239 134 239 c 256
 145.333 239 155.667 242.667 165 250 c 128
 174.333 257.334 180.667 266.668 184 278 c 0
EndSplineSet
Substitution2: "<23,16000>  in Thai lookup 65 nested-substitutions 7 subtable" uni0E10.alt1
Substitution2: "Single Substitution lookup 58 subtable" uni0E10.alt1
EndChar

StartChar: uni0E11
Encoding: 3601 3601 230
Width: 693
VWidth: 1504
Flags: HW
LayerCount: 2
Fore
SplineSet
555 51 m 1
 543 3.66667 519 -32 483 -56 c 1
 441 -29 l 1
 475 -3 496.333 30.3333 505 71 c 2
 593 481 l 2
 602.333 526.333 592.333 549 563 549 c 0
 551.667 549 537 536 519 510 c 1
 220 0 l 1
 152 0 l 1
 199 220 l 2
 205 252 226.667 292.333 264 341 c 128
 301.334 389.667 323.667 429.333 331 460 c 0
 342.333 514 332.333 544.333 301 551 c 1
 235 487 l 1
 194 549 l 1
 156.667 527 129 498 111 462 c 1
 126.333 468 143 471 161 471 c 0
 190.333 471 211.5 461.667 224.5 443 c 128
 237.5 424.333 241 401 235 373 c 0
 229 343.667 214.667 320 192 302 c 128
 169.333 284 144.333 275 117 275 c 0
 83 275 60 289 48 317 c 0
 38 342.333 36.6667 373 44 409 c 0
 53.3333 452.333 74.6667 493.5 108 532.5 c 128
 141.333 571.5 179.667 595 223 603 c 1
 248 551 l 1
 301 603 l 1
 372.333 593.667 398.333 544.667 379 456 c 0
 371.667 424.667 350 383.5 314 332.5 c 128
 278 281.5 256.667 240 250 208 c 1
 217 80 l 1
 237 122 257 159.667 277 193 c 2
 469 517 l 2
 502.333 573 539 601.333 579 602 c 0
 641 602 663.667 561.667 647 481 c 2
 555 51 l 1
187 375 m 256
 190.333 389 188.333 400.5 181 409.5 c 128
 173.667 418.5 163 423 149 423 c 256
 135 423 122.5 418.5 111.5 409.5 c 128
 100.5 400.5 93.3333 389 90 375 c 256
 86.6667 361 88.8333 349.333 96.5 340 c 128
 104.167 330.667 115 326 129 326 c 256
 143 326 155.333 330.667 166 340 c 128
 176.667 349.333 183.667 361 187 375 c 256
EndSplineSet
EndChar

StartChar: uni0E12
Encoding: 3602 3602 231
Width: 800
VWidth: 1504
Flags: HW
LayerCount: 2
Fore
SplineSet
651 0 m 1
 597 0 l 1
 579.667 43.3333 546.667 79 498 107 c 1
 498 101 497.333 94 496 86 c 0
 490 60 476 37.1667 454 17.5 c 128
 432 -2.16667 406 -12 376 -12 c 256
 346 -12 324 -2.16667 310 17.5 c 128
 296 37.1667 292 60.3333 298 87 c 0
 303.334 113 316.667 135.667 338 155 c 128
 359.333 174.333 383 185 409 187 c 1
 453 391 l 2
 468.332 463 455.666 514.334 415 545 c 1
 301 457 l 1
 232 546 l 1
 204.667 530.667 180.667 508 160 478 c 128
 139.333 448 125.667 418 119 388 c 0
 113 358.667 114.5 316.833 123.5 262.5 c 128
 132.5 208.167 134 163.667 128 129 c 1
 139.333 146.333 158.333 166 185 188 c 0
 216.333 212 238 230.667 250 244 c 1
 226 247.333 208.5 257.167 197.5 273.5 c 128
 186.5 289.833 183 309.333 187 332 c 1
 193 357.333 206.167 378.5 226.5 395.5 c 128
 246.833 412.5 269.667 421 295 421 c 256
 320.333 421 340 412.333 354 395 c 128
 368 377.667 371.333 356.667 364 332 c 1
 352.667 286 309 230.667 233 166 c 128
 157 101.333 113 46 101 0 c 1
 47 0 l 1
 75 137 l 2
 81 167 79.3333 208.333 70 261 c 128
 60.6666 313.667 58.3332 354 63 382 c 1
 74.3333 431.333 95.3333 476 126 516 c 1
 162 560 203.667 588 251 600 c 1
 314 514 l 1
 415 602 l 1
 457 594 485.5 569.833 500.5 529.5 c 128
 515.5 489.167 518 445 508 397 c 2
 462 179 l 1
 538 151 588.667 117.333 614 78 c 1
 714 552 l 2
 722 590 736.667 620 758 642 c 1
 800 615 l 1
 786 603 774 575.333 764 532 c 2
 651 0 l 1
323 334 m 256
 326.328 348 324.162 359.5 316.5 368.5 c 128
 308.833 377.5 298 382 284 382 c 256
 270 382 258 377.5 248 368.5 c 128
 238 359.5 231.667 348 229 334 c 256
 225.67 320 227.337 308.667 234 300 c 128
 240.667 291.333 251 287 265 287 c 256
 279 287 291.333 291.333 302 300 c 128
 312.667 308.667 319.667 320 323 334 c 256
447 86 m 256
 450.333 100 447.833 112 439.5 122 c 128
 431.167 132 420 137 406 137 c 256
 392 137 379.167 132 367.5 122 c 128
 355.833 112 348.667 100 346 86 c 256
 342.667 72 344.833 60.1667 352.5 50.5 c 128
 360.167 40.8333 371 36 385 36 c 256
 399 36 412 40.8333 424 50.5 c 128
 436 60.1667 443.667 72 447 86 c 256
EndSplineSet
EndChar

StartChar: uni0E13
Encoding: 3603 3603 232
Width: 816
VWidth: 1504
Flags: HW
LayerCount: 2
Fore
SplineSet
190 86 m 256
 193.333 100 190.833 112 182.5 122 c 128
 174.167 132 163 137 149 137 c 256
 135 137 122.167 132 110.5 122 c 128
 98.8332 112 91.6666 100 89 86 c 256
 85.6667 72 87.8333 60.1667 95.5 50.5 c 128
 103.167 40.8333 114 36 128 36 c 256
 142 36 155 40.8333 167 50.5 c 128
 179 60.1667 186.667 72 190 86 c 256
666 84 m 256
 669.333 98 667.167 110 659.5 120 c 128
 651.833 130 641 135 627 135 c 256
 613 135 599.833 130 587.5 120 c 128
 575.162 110 567.329 98 564 84 c 256
 560.667 70 563.167 58 571.5 48 c 128
 579.833 38 591 33 605 33 c 256
 619 33 631.833 38 643.5 48 c 128
 655.167 58 662.667 70 666 84 c 256
716 84 m 0
 710 56 695.5 32.5 672.5 13.5 c 128
 649.5 -5.5 623.333 -15 594 -15 c 0
 566 -15 544.5 -5.5 529.5 13.5 c 128
 514.5 32.5 510 56 516 84 c 1
 519 93 l 1
 479.667 79 441 48 403 0 c 1
 338 0 l 1
 423 399 l 2
 445 502.333 407.333 554 310 554 c 0
 278 554 246.167 544.333 214.5 525 c 128
 182.833 505.667 158 480.667 140 450 c 1
 195.333 446 231 424 247 384 c 1
 221.667 378.667 197.667 365.5 175 344.5 c 128
 152.333 323.5 138 300 132 274 c 2
 111 176 l 1
 126.333 182 142.333 185 159 185 c 0
 187 185 208.667 175.5 224 156.5 c 128
 239.333 137.5 244 114.333 238 87 c 0
 232 57.6667 217.667 33.5 195 14.5 c 128
 172.333 -4.5 146.333 -14 117 -14 c 256
 87.6667 -14 65.8333 -4.16667 51.5 15.5 c 128
 37.1667 35.1667 33 59.6667 39 89 c 2
 78 272 l 2
 89.3333 326 124 365.667 182 391 c 1
 146.667 406.333 108 412 66 408 c 1
 87.3334 464 121.833 510.333 169.5 547 c 128
 217.167 583.667 268.333 602 323 602 c 0
 385 602 429.667 584.833 457 550.5 c 128
 484.333 516.166 491.333 467.666 478 405 c 2
 408 72 l 1
 437.333 102 474.333 126.667 519 146 c 0
 573 170 605.667 185.667 617 193 c 1
 646.333 215 665.667 248.333 675 293 c 2
 731 552 l 2
 739 590 753.667 620 775 642 c 1
 817 615 l 1
 803 603 791 575.333 781 532 c 2
 730 296 l 2
 718 236 700.333 196.333 677 177 c 1
 713 160.333 726 129.333 716 84 c 0
EndSplineSet
EndChar

StartChar: uni0E14
Encoding: 3604 3604 233
Width: 588
VWidth: 1504
Flags: HW
LayerCount: 2
Fore
SplineSet
340 369 m 0
 342 382.333 339.5 393.333 332.5 402 c 128
 325.5 410.667 315.333 415 302 415 c 256
 288.667 415 276.667 410.5 266 401.5 c 128
 255.333 392.5 249 381.667 247 369 c 0
 243.667 355.667 245.5 344.5 252.5 335.5 c 128
 259.5 326.5 269.667 322 283 322 c 256
 296.333 322 308.333 326.5 319 335.5 c 128
 329.667 344.5 336.667 355.667 340 369 c 0
450 51 m 1
 438 3.66667 414 -32 378 -56 c 1
 335 -29 l 1
 369 -3 390.667 30.3333 400 71 c 2
 468 391 l 2
 491.333 499 445 553.333 329 554 c 0
 283 554 239 538.167 197 506.5 c 128
 155 474.833 129.333 436 120 390 c 1
 112.667 360.667 111.833 321.167 117.5 271.5 c 128
 123.167 221.833 123.667 183.333 119 156 c 1
 113.667 136 109.667 122.667 107 116 c 1
 124.333 142 151 171 187 203 c 0
 216.333 228.333 245.333 254 274 280 c 1
 248.667 280 229.333 288.5 216 305.5 c 128
 202.667 322.5 199 343.667 205 369 c 0
 210.333 394.333 223.167 415.333 243.5 432 c 128
 263.833 448.667 286.333 457 311 457 c 256
 336.333 457 355.833 448.5 369.5 431.5 c 128
 383.167 414.5 387.333 393.667 382 369 c 0
 370.667 321 322 259.833 236 185.5 c 128
 150 111.167 100.333 49.3333 87 0 c 1
 33 0 l 1
 62 135 l 2
 68 164.333 68.5 205.833 63.5 259.5 c 128
 58.5 313.167 58.3333 354 63 382 c 1
 78.3333 450 112.833 503.667 166.5 543 c 128
 220.167 582.333 280.333 602 347 602 c 0
 416.333 602 466.333 583.667 497 547 c 128
 527.671 510.333 536.337 461 523 399 c 2
 450 51 l 1
EndSplineSet
EndChar

StartChar: uni0E15
Encoding: 3605 3605 234
Width: 588
VWidth: 1504
Flags: HW
LayerCount: 2
Fore
SplineSet
450 51 m 1
 438 3.66667 414 -32 378 -56 c 1
 335 -29 l 1
 369 -3 390.667 30.3333 400 71 c 2
 468 391 l 2
 483.333 465 470.333 516.667 429 546 c 1
 403 526 364.333 496.333 313 457 c 1
 230 546 l 1
 172.667 514 136.667 462 122 390 c 0
 114.667 358.667 113.333 315.667 118 261 c 128
 122.667 206.333 120.333 159 111 119 c 1
 126.333 139 151.833 161.5 187.5 186.5 c 128
 223.167 211.5 247.334 231.667 260 247 c 1
 238 249 221 258 209 274 c 128
 197 290 193.667 310 199 334 c 0
 204.333 359.333 216.833 380.5 236.5 397.5 c 128
 256.167 414.5 278.667 423 304 423 c 256
 329.334 423 348.667 414.5 362 397.5 c 128
 375.336 380.5 379.67 359.333 375 334 c 0
 365 288 318 232.833 234 168.5 c 128
 150 104.167 101.667 48 89 0 c 1
 35 0 l 1
 63 135 l 2
 69 164.333 69.3333 205.833 64 259.5 c 128
 58.6664 313.167 58.3331 354 63 382 c 1
 74.3333 431.333 95 476 125 516 c 1
 161 561.333 203 590 251 602 c 1
 326 519 l 1
 430 602 l 1
 472 594 501 568.333 517 525 c 0
 531 487.667 533 445.667 523 399 c 2
 450 51 l 1
335 335 m 256
 338.328 348.333 336.162 359.5 328.5 368.5 c 128
 320.832 377.5 310.665 382 298 382 c 256
 284.667 382 272.833 377.5 262.5 368.5 c 128
 252.166 359.5 245.333 348.333 242 335 c 256
 238.667 321.667 240.667 310.667 248 302 c 128
 255.333 293.333 265.333 289 278 289 c 256
 291.333 289 303.333 293.333 314 302 c 128
 324.667 310.667 331.667 321.667 335 335 c 256
EndSplineSet
EndChar

StartChar: uni0E16
Encoding: 3606 3606 235
Width: 568
VWidth: 1504
Flags: HW
LayerCount: 2
Fore
SplineSet
185 86 m 256
 188.333 100 185.833 112 177.5 122 c 128
 169.167 132 158 137 144 137 c 256
 130 137 117.333 132 106 122 c 128
 94.6667 112 87.3333 100 84 86 c 256
 80.6667 72 82.8333 60.1667 90.5 50.5 c 128
 98.1667 40.8333 109 36 123 36 c 256
 137 36 150 40.8333 162 50.5 c 128
 174 60.1667 181.667 72 185 86 c 256
430 51 m 1
 418 3.66667 394 -32 358 -56 c 1
 316 -29 l 1
 350 -3 371.667 30.3333 381 71 c 2
 448 393 l 2
 459.333 444.333 453 484 429 512 c 128
 405 540 368.333 554 319 554 c 0
 285 554 250.167 544.167 214.5 524.5 c 128
 178.833 504.833 152 480 134 450 c 1
 194 444.667 229 423 239 385 c 1
 215 379.667 191.667 366.333 169 345 c 128
 146.333 323.667 132 300.333 126 275 c 2
 107 177 l 1
 124.333 184.333 139.667 188 153 188 c 0
 181 188 202.833 178.167 218.5 158.5 c 128
 234.167 138.833 239 115 233 87 c 0
 225.666 57 210.833 33 188.5 15 c 128
 166.167 -3 140.333 -12 111 -12 c 0
 83 -12 61.5 -2.5 46.5 16.5 c 128
 31.5 35.5 27 59 33 87 c 2
 72 274 l 2
 84 328 118 367.667 174 393 c 1
 148.667 404.336 110.667 409.67 60 409 c 1
 80 464.333 116.167 510.333 168.5 547 c 128
 220.833 583.667 275.333 602 332 602 c 0
 396 602 443.833 583.833 475.5 547.5 c 128
 507.167 511.167 516.667 461.667 504 399 c 2
 430 51 l 1
EndSplineSet
EndChar

StartChar: uni0E17
Encoding: 3607 3607 236
Width: 646
VWidth: 1504
Flags: HW
LayerCount: 2
Fore
SplineSet
508 51 m 1
 496 3.66667 472 -32 436 -56 c 1
 394 -29 l 1
 428 -3 449.667 29.6667 459 69 c 2
 546 481 l 2
 555.333 526.333 545.333 549 516 549 c 0
 498 549 480 536 462 510 c 1
 162 0 l 1
 105 0 l 1
 193 414 l 1
 177.667 406.667 161.333 403 144 403 c 0
 116.667 403 95.6667 412.833 81 432.5 c 128
 66.3333 452.167 61.3333 475.333 66 502 c 0
 72 529.333 87 552.833 111 572.5 c 128
 135 592.167 160.667 602 188 602 c 256
 215.333 602 236.5 592.167 251.5 572.5 c 128
 266.5 552.833 271 529.333 265 502 c 2
 203 208 l 1
 191 162 181.333 128.667 174 108 c 1
 184 128 199.333 156.333 220 193 c 1
 411 517 l 2
 444.334 573 484.667 601.333 532 602 c 0
 594 602 616.667 561.667 600 481 c 2
 508 51 l 1
217 502 m 0
 220.333 516 218.167 528.167 210.5 538.5 c 128
 202.833 548.833 191.667 554 177 554 c 256
 163 554 149.833 548.833 137.5 538.5 c 128
 125.167 528.167 117.333 516 114 502 c 0
 112 488 114.833 476 122.5 466 c 128
 130.167 456 141 451 155 451 c 256
 169 451 182.333 456 195 466 c 128
 207.667 476 215 488 217 502 c 0
EndSplineSet
EndChar

StartChar: uni0E18
Encoding: 3608 3608 237
Width: 503
VWidth: 1504
Flags: HW
LayerCount: 2
Fore
SplineSet
376 114 m 2
 358 30.6667 294 -11 184 -11 c 256
 74 -11 27.6667 30.6667 45 114 c 2
 80 277 l 2
 88 315 102.333 345 123 367 c 1
 165 340 l 1
 151 328 139 300.333 129 257 c 2
 98 111 l 2
 88 61.6667 120 37.3333 194 38 c 256
 268 38 310 62.3333 320 111 c 2
 369 334 l 2
 374.333 358 330.667 382 238 406 c 0
 182 421.333 122.333 433.333 59 442 c 1
 72.3333 487.334 97 525.334 133 556 c 128
 169 586.667 212.333 602 263 602 c 0
 286.333 602 315.333 596.5 350 585.5 c 128
 384.667 574.5 411 569 429 569 c 0
 448.334 569 468.668 593.333 490 642 c 1
 529 630 l 1
 505 556 468.667 519 420 519 c 0
 398.667 519 370 524.833 334 536.5 c 128
 298 548.167 270 554 250 554 c 0
 228.667 554 206.167 546.833 182.5 532.5 c 128
 158.833 518.165 143.667 501.665 137 483 c 1
 240.333 461 303.333 446 326 438 c 0
 399.334 412 431.667 378.667 423 338 c 2
 376 114 l 2
EndSplineSet
EndChar

StartChar: uni0E19
Encoding: 3609 3609 238
Width: 631
VWidth: 1504
Flags: HW
LayerCount: 2
Fore
SplineSet
217 502 m 0
 220.333 516 218.167 528.167 210.5 538.5 c 128
 202.833 548.833 191.667 554 177 554 c 256
 163 554 149.833 548.833 137.5 538.5 c 128
 125.167 528.167 117.333 516 114 502 c 0
 112 488 114.833 476 122.5 466 c 128
 130.167 456 141 451 155 451 c 256
 169 451 182.333 456 195 466 c 128
 207.667 476 215 488 217 502 c 0
483 87 m 256
 486.333 101 483.833 113 475.5 123 c 128
 467.167 133 456 138 442 138 c 256
 428 138 415 133 403 123 c 128
 391 113 383.667 101 381 87 c 256
 377.667 73 380 61 388 51 c 128
 396 41 407 36 421 36 c 256
 435 36 448 41 460 51 c 128
 472 61 479.667 73 483 87 c 256
531 86 m 0
 525 58.6667 510.167 35.5 486.5 16.5 c 128
 462.833 -2.5 437.667 -12 411 -12 c 256
 383.667 -12 362.5 -2.5 347.5 16.5 c 128
 332.5 35.5 328 58.6667 334 86 c 1
 335 96 l 1
 267.667 70.6667 213 38.6667 171 0 c 1
 105 0 l 1
 193 414 l 1
 177.667 406.667 161.333 403 144 403 c 0
 116.667 403 95.6667 412.833 81 432.5 c 128
 66.3333 452.167 61.3333 475.333 66 502 c 0
 72 529.333 87 552.833 111 572.5 c 128
 135 592.167 160.667 602 188 602 c 256
 215.333 602 236.5 592.167 251.5 572.5 c 128
 266.5 552.833 271 529.333 265 502 c 2
 171 59 l 1
 195 81 235.333 103.333 292 126 c 0
 355.333 152 397 172.333 417 187 c 0
 457 214.333 481.333 248.667 490 290 c 2
 546 552 l 2
 554 590 568.667 620 590 642 c 1
 632 615 l 1
 618 603 606 575.333 596 532 c 2
 542 283 l 2
 532 235 513.667 199.667 487 177 c 1
 525.669 160.333 540.335 130 531 86 c 0
EndSplineSet
EndChar

StartChar: uni0E1A
Encoding: 3610 3610 239
Width: 643
VWidth: 1504
Flags: HW
LayerCount: 2
Fore
SplineSet
217 502 m 0
 220.333 516 218.167 528.167 210.5 538.5 c 128
 202.833 548.833 191.667 554 177 554 c 256
 163 554 149.833 548.833 137.5 538.5 c 128
 125.167 528.167 117.333 516 114 502 c 0
 112 488 114.833 476 122.5 466 c 128
 130.167 456 141 451 155 451 c 256
 169 451 182.333 456 195 466 c 128
 207.667 476 215 488 217 502 c 0
522 128 m 2
 502 34.6667 427.333 -12 298 -12 c 0
 167.333 -12 112 34.6667 132 128 c 2
 193 414 l 1
 177.667 406.667 161.333 403 144 403 c 0
 116.667 403 95.6667 412.833 81 432.5 c 128
 66.3333 452.167 61.3333 475.333 66 502 c 0
 72 529.333 87 552.833 111 572.5 c 128
 135 592.167 160.667 602 188 602 c 256
 215.333 602 236.5 592.167 251.5 572.5 c 128
 266.5 552.833 271 529.333 265 502 c 2
 187 132 l 2
 173.667 68.6667 214 37.3333 308 38 c 0
 401.334 38 454.667 69.3333 468 132 c 2
 558 552 l 2
 566 590 580.667 620 602 642 c 1
 644 615 l 1
 630 603 618 575.333 608 532 c 2
 522 128 l 2
EndSplineSet
EndChar

StartChar: uni0E1B
Encoding: 3611 3611 240
Width: 643
VWidth: 1504
Flags: HW
LayerCount: 2
Fore
SplineSet
522 128 m 2
 502 34.6667 427.333 -12 298 -12 c 0
 167.333 -12 112 34.6667 132 128 c 2
 193 414 l 1
 177.667 406.667 161.333 403 144 403 c 0
 116.667 403 95.6667 412.833 81 432.5 c 128
 66.3333 452.167 61.3333 475.333 66 502 c 0
 72 529.333 87 552.833 111 572.5 c 128
 135 592.167 160.667 602 188 602 c 256
 215.333 602 236.5 592.167 251.5 572.5 c 128
 266.5 552.833 271 529.333 265 502 c 2
 187 132 l 2
 173.667 68.6667 214 37.3333 308 38 c 0
 401.334 38 454.667 69.3333 468 132 c 2
 605 778 l 2
 613 816 627.333 846 648 868 c 1
 690 841 l 1
 676 829 664 801.333 654 758 c 2
 522 128 l 2
217 502 m 0
 220.333 516 218.167 528.167 210.5 538.5 c 128
 202.833 548.833 191.667 554 177 554 c 256
 163 554 149.833 548.833 137.5 538.5 c 128
 125.167 528.167 117.333 516 114 502 c 0
 112 488 114.833 476 122.5 466 c 128
 130.167 456 141 451 155 451 c 256
 169 451 182.333 456 195 466 c 128
 207.667 476 215 488 217 502 c 0
EndSplineSet
EndChar

StartChar: uni0E1C
Encoding: 3612 3612 241
Width: 573
VWidth: 1504
Flags: HW
LayerCount: 2
Fore
SplineSet
424 0 m 1
 364 0 l 1
 259 238 l 1
 56 0 l 1
 -5 0 l 1
 101 502 l 2
 107 529.333 121.167 552.833 143.5 572.5 c 128
 165.833 592.167 192.333 602 223 602 c 0
 250.333 602 271.333 592.167 286 572.5 c 128
 300.667 552.833 305 529.333 299 502 c 0
 293.667 474.667 280.667 451.333 260 432 c 128
 239.333 412.667 212.333 403 179 403 c 0
 165 403 151 406.667 137 414 c 1
 66 81 l 1
 250 295 l 1
 290 295 l 1
 387 81 l 1
 487 552 l 2
 495 590 509.667 620 531 642 c 1
 573 615 l 1
 559 603 547 575.333 537 532 c 2
 424 0 l 1
253 502 m 0
 256.333 516 254.167 528.167 246.5 538.5 c 128
 238.833 548.833 228 554 214 554 c 256
 200 554 186.667 548.833 174 538.5 c 128
 161.333 528.167 153.333 516 150 502 c 0
 148 488 150.833 476 158.5 466 c 128
 166.167 456 177 451 191 451 c 256
 205 451 218.333 456 231 466 c 128
 243.667 476 251 488 253 502 c 0
EndSplineSet
EndChar

StartChar: uni0E1D
Encoding: 3613 3613 242
Width: 573
VWidth: 1504
Flags: HW
LayerCount: 2
Fore
SplineSet
424 0 m 1
 364 0 l 1
 259 238 l 1
 56 0 l 1
 -5 0 l 1
 101 502 l 2
 107 529.333 121.167 552.833 143.5 572.5 c 128
 165.833 592.167 192.333 602 223 602 c 0
 250.333 602 271.333 592.167 286 572.5 c 128
 300.667 552.833 305 529.333 299 502 c 0
 293.667 474.667 280.667 451.333 260 432 c 128
 239.333 412.667 212.333 403 179 403 c 0
 165 403 151 406.667 137 414 c 1
 66 81 l 1
 250 295 l 1
 290 295 l 1
 387 81 l 1
 534 778 l 2
 542 816 556.667 846 578 868 c 1
 620 841 l 1
 606 829 594 801.333 584 758 c 2
 424 0 l 1
253 502 m 0
 256.333 516 254.167 528.167 246.5 538.5 c 128
 238.833 548.833 228 554 214 554 c 256
 200 554 186.667 548.833 174 538.5 c 128
 161.333 528.167 153.333 516 150 502 c 0
 148 488 150.833 476 158.5 466 c 128
 166.167 456 177 451 191 451 c 256
 205 451 218.333 456 231 466 c 128
 243.667 476 251 488 253 502 c 0
EndSplineSet
EndChar

StartChar: uni0E1E
Encoding: 3614 3614 243
Width: 672
VWidth: 1504
Flags: HW
LayerCount: 2
Fore
SplineSet
217 502 m 0
 220.333 516 218.167 528.167 210.5 538.5 c 128
 202.833 548.833 191.667 554 177 554 c 256
 163 554 149.833 548.833 137.5 538.5 c 128
 125.167 528.167 117.333 516 114 502 c 0
 112 488 114.833 476 122.5 466 c 128
 130.167 456 141 451 155 451 c 256
 169 451 182.333 456 195 466 c 128
 207.667 476 215 488 217 502 c 0
523 0 m 1
 457 0 l 1
 424 522 l 1
 171 0 l 1
 105 0 l 1
 193 414 l 1
 177.667 406.667 161.333 403 144 403 c 0
 116.667 403 95.6667 412.833 81 432.5 c 128
 66.3333 452.167 61.3333 475.333 66 502 c 0
 72 529.333 87 552.833 111 572.5 c 128
 135 592.167 160.667 602 188 602 c 256
 215.333 602 236.5 592.167 251.5 572.5 c 128
 266.5 552.833 271 529.333 265 502 c 2
 199 188 l 2
 193.666 162.667 183.333 127.667 168 83 c 1
 182 116.333 199.333 153 220 193 c 2
 414 590 l 1
 465 590 l 1
 490 193 l 2
 492 153 493 116.333 493 83 c 1
 498.333 128.333 503.333 163.333 508 188 c 2
 587 552 l 2
 595 590 609.333 620 630 642 c 1
 672 615 l 1
 658 603 646 575.333 636 532 c 2
 523 0 l 1
EndSplineSet
EndChar

StartChar: uni0E1F
Encoding: 3615 3615 244
Width: 672
VWidth: 1504
Flags: HW
LayerCount: 2
Fore
SplineSet
523 0 m 1
 457 0 l 1
 424 522 l 1
 171 0 l 1
 105 0 l 1
 193 414 l 1
 177.667 406.667 161.333 403 144 403 c 0
 116.667 403 95.6667 412.833 81 432.5 c 128
 66.3333 452.167 61.3333 475.333 66 502 c 0
 72 529.333 87 552.833 111 572.5 c 128
 135 592.167 160.667 602 188 602 c 256
 215.333 602 236.5 592.167 251.5 572.5 c 128
 266.5 552.833 271 529.333 265 502 c 2
 199 188 l 2
 193.666 162.667 183.333 127.667 168 83 c 1
 182 116.333 199.333 153 220 193 c 2
 414 590 l 1
 465 590 l 1
 490 193 l 2
 492 153 493 116.333 493 83 c 1
 498.333 128.333 503.333 163.333 508 188 c 2
 633 779 l 2
 641 816.333 655.667 846 677 868 c 1
 719 841 l 1
 705 829 693 801.333 683 758 c 2
 523 0 l 1
217 502 m 0
 220.333 516 218.167 528.167 210.5 538.5 c 128
 202.833 548.833 191.667 554 177 554 c 256
 163 554 149.833 548.833 137.5 538.5 c 128
 125.167 528.167 117.333 516 114 502 c 0
 112 488 114.833 476 122.5 466 c 128
 130.167 456 141 451 155 451 c 256
 169 451 182.333 456 195 466 c 128
 207.667 476 215 488 217 502 c 0
EndSplineSet
EndChar

StartChar: uni0E20
Encoding: 3616 3616 245
Width: 639
VWidth: 1504
Flags: HW
LayerCount: 2
Fore
SplineSet
138 86 m 256
 141.333 100 139 112 131 122 c 128
 123 132 112 137 98 137 c 256
 84 137 71.1667 132 59.5 122 c 128
 47.8333 112 40.6667 100 38 86 c 256
 34.6667 72 36.8334 60.1667 44.5 50.5 c 128
 52.1667 40.8333 63 36 77 36 c 256
 91 36 103.833 40.8333 115.5 50.5 c 128
 127.167 60.1667 134.667 72 138 86 c 256
501 50 m 1
 489 2.66667 465 -33 429 -57 c 1
 387 -30 l 1
 421 -4 442.333 29 451 69 c 2
 519 391 l 2
 529 440.333 522 479.833 498 509.5 c 128
 474 539.167 438 554 390 554 c 0
 356 554 320.833 544.167 284.5 524.5 c 128
 248.167 504.833 221 480 203 450 c 1
 255 444.667 291 422.667 311 384 c 1
 253 366 218 329.333 206 274 c 0
 198 234.667 194 194.333 194 153 c 0
 194 135 191.667 114 187 90 c 0
 181 60.6667 167.167 36.3333 145.5 17 c 128
 123.833 -2.33333 97.3333 -12 66 -12 c 0
 38.6667 -12 17.8333 -2.5 3.5 16.5 c 128
 -10.8333 35.5 -15 58.6667 -9 86 c 0
 -3.66667 113.333 10.5 136.667 33.5 156 c 128
 56.5 175.333 81.3333 185 108 185 c 0
 119.333 185 131 182.333 143 177 c 1
 146.333 223 150.333 258.333 155 283 c 0
 165 329 193 365 239 391 c 1
 213.667 403 188 409 162 409 c 0
 148.667 409 139.333 408.667 134 408 c 1
 151.333 464 185.667 510.333 237 547 c 128
 288.333 583.667 343.333 602 402 602 c 0
 466 602 514 583.667 546 547 c 128
 578 510.333 587.667 460.333 575 397 c 2
 501 50 l 1
EndSplineSet
EndChar

StartChar: uni0E21
Encoding: 3617 3617 246
Width: 601
VWidth: 1504
Flags: HW
LayerCount: 2
Fore
SplineSet
149 93 m 0
 152.333 108.333 149.667 121.5 141 132.5 c 128
 132.333 143.5 120.333 149 105 149 c 256
 89.6667 149 75.3333 143.5 62 132.5 c 128
 48.6667 121.5 40.6667 108.333 38 93 c 0
 34 77.6667 36.5 64.6667 45.5 54 c 128
 54.5 43.3333 66.3333 38 81 38 c 256
 96.3333 38 110.5 43.3333 123.5 54 c 128
 136.5 64.6667 145 77.6667 149 93 c 0
217 502 m 0
 220.333 516 218.167 528.167 210.5 538.5 c 128
 202.833 548.833 191.667 554 177 554 c 256
 163 554 149.833 548.833 137.5 538.5 c 128
 125.167 528.167 117.333 516 114 502 c 0
 112 488 114.833 476 122.5 466 c 128
 130.167 456 141 451 155 451 c 256
 169 451 182.333 456 195 466 c 128
 207.667 476 215 488 217 502 c 0
453 0 m 1
 394 0 l 1
 328 60 263 99.6667 199 119 c 1
 200.333 109.667 199.667 100.667 197 92 c 0
 191 62.6667 175.667 38 151 18 c 128
 126.333 -2 99.6666 -12 71 -12 c 256
 41.6667 -12 19.1667 -2 3.5 18 c 128
 -12.1667 38 -17 62.6667 -11 92 c 0
 -3.66667 121.333 11.8333 146.167 35.5 166.5 c 128
 59.1667 186.833 85.3333 197 114 197 c 0
 125.333 197 136 195.667 146 193 c 1
 193 414 l 1
 177.667 406.667 161.333 403 144 403 c 0
 116.667 403 95.6667 412.833 81 432.5 c 128
 66.3333 452.167 61.3333 475.333 66 502 c 0
 72 529.333 87 552.833 111 572.5 c 128
 135 592.167 160.667 602 188 602 c 256
 215.333 602 236.5 592.167 251.5 572.5 c 128
 266.5 552.833 271 529.333 265 502 c 2
 197 177 l 1
 288.333 141.667 359 101.333 409 56 c 1
 516 552 l 2
 524 590 538.667 620 560 642 c 1
 602 615 l 1
 588 603 576 575.333 566 532 c 2
 453 0 l 1
EndSplineSet
EndChar

StartChar: uni0E22
Encoding: 3618 3618 247
Width: 564
VWidth: 1504
Flags: HW
LayerCount: 2
Fore
SplineSet
281 516 m 256
 284.333 530 282.5 541.5 275.5 550.5 c 128
 268.5 559.5 258 564 244 564 c 256
 230 564 217.667 559.5 207 550.5 c 128
 196.333 541.5 189.667 530 187 516 c 256
 183.667 502 185.5 490.667 192.5 482 c 128
 199.5 473.333 210 469 224 469 c 256
 238 469 250.167 473.333 260.5 482 c 128
 270.835 490.667 277.669 502 281 516 c 256
442 134 m 2
 422 36.6667 344.333 -12 209 -12 c 0
 72.3333 -12 14.3333 36.6667 35 134 c 2
 51 211 l 2
 56.3333 234.333 68 256.333 86 277 c 128
 104 297.667 124 312 146 320 c 1
 98 343.333 82 393 98 469 c 0
 106 508.333 124 540.333 152 565 c 128
 180 589.667 214 602 254 602 c 0
 279.333 602 298 593.5 310 576.5 c 128
 322 559.5 325.333 539.333 320 516 c 0
 316 492.667 304.833 472.833 286.5 456.5 c 128
 268.167 440.167 245.333 432 218 432 c 0
 180.667 432 158 448.333 150 481 c 1
 146.666 473.667 144.332 465.667 143 457 c 0
 137 429 140.167 403.5 152.5 380.5 c 128
 164.833 357.5 185.333 346 214 346 c 2
 299 346 l 1
 289 295 l 1
 202 295 l 2
 180 295 159.667 287 141 271 c 128
 122.333 255 110.333 234 105 208 c 2
 90 138 l 2
 76 70.6667 119.333 37.3333 220 38 c 0
 319.333 38 376 71.3333 390 138 c 2
 478 552 l 2
 486 590 500.667 620 522 642 c 1
 564 615 l 1
 550 603 538 575.333 528 532 c 2
 442 134 l 2
EndSplineSet
EndChar

StartChar: uni0E23
Encoding: 3619 3619 248
Width: 484
VWidth: 1504
Flags: HW
LayerCount: 2
Fore
SplineSet
335 87 m 2
 329 59.6667 315 36.3333 293 17 c 128
 271 -2.33333 245 -12 215 -12 c 0
 187.667 -12 166.333 -2.16667 151 17.5 c 128
 135.667 37.1667 131 60.3333 137 87 c 256
 143 114.333 157.833 137.833 181.5 157.5 c 128
 205.167 177.167 230.334 187 257 187 c 0
 274.333 187 288.333 183.333 299 176 c 1
 334 334 l 2
 342 375.333 252.667 411.333 66 442 c 1
 95.3334 548 155.667 601.333 247 602 c 0
 268.333 602 297 596.667 333 586 c 128
 369 575.333 395.333 570 412 570 c 0
 433.333 570 454.333 594 475 642 c 1
 513 630 l 1
 489 556.667 451.333 520 400 520 c 0
 378.667 520 349.5 525.667 312.5 537 c 128
 275.5 548.333 247 554 227 554 c 0
 209 554 190.5 546.167 171.5 530.5 c 128
 152.5 514.833 141 499 137 483 c 1
 198.333 471.667 257.833 455 315.5 433 c 128
 373.167 411 397.333 379.333 388 338 c 2
 335 87 l 2
287 87 m 256
 290.333 101 288 113 280 123 c 128
 272 133 261 138 247 138 c 256
 233 138 220 133 208 123 c 128
 196 113 188.333 101 185 87 c 256
 181.667 73 184.167 61 192.5 51 c 128
 200.833 41 212 36 226 36 c 256
 240 36 252.833 41 264.5 51 c 128
 276.167 61 283.667 73 287 87 c 256
EndSplineSet
EndChar

StartChar: uni0E24
Encoding: 3620 3620 249
Width: 568
VWidth: 1504
Flags: HW
LayerCount: 2
Fore
SplineSet
367 -244 m 1
 355 -291.333 331 -326.667 295 -350 c 1
 253 -323 l 1
 287 -297 308.333 -264 317 -224 c 2
 448 393 l 2
 459.333 444.333 453 484 429 512 c 128
 405 540 368.333 554 319 554 c 0
 285 554 250.167 544.167 214.5 524.5 c 128
 178.833 504.833 152 480 134 450 c 1
 194 444.667 229 423 239 385 c 1
 215 379.667 191.667 366.333 169 345 c 128
 146.333 323.667 132 300.333 126 275 c 2
 107 177 l 1
 124.333 184.333 139.667 188 153 188 c 0
 181 188 202.833 178.167 218.5 158.5 c 128
 234.167 138.833 239 115 233 87 c 256
 227 59 212.167 35.5 188.5 16.5 c 128
 164.833 -2.5 139 -12 111 -12 c 256
 83 -12 61.5 -2.5 46.5 16.5 c 128
 31.5 35.5 27 59 33 87 c 2
 72 274 l 2
 84 328 118 367.667 174 393 c 1
 148.667 404.336 110.667 409.67 60 409 c 1
 80 464.333 116.167 510.333 168.5 547 c 128
 220.833 583.667 275.333 602 332 602 c 0
 396 602 443.833 583.833 475.5 547.5 c 128
 507.167 511.167 516.667 461.667 504 399 c 2
 367 -244 l 1
185 86 m 256
 188.333 100 185.833 112 177.5 122 c 128
 169.167 132 158 137 144 137 c 256
 130 137 117.333 132 106 122 c 128
 94.6667 112 87.3333 100 84 86 c 256
 80.6667 72 82.8333 60.1667 90.5 50.5 c 128
 98.1667 40.8333 109 36 123 36 c 256
 137 36 150 40.8333 162 50.5 c 128
 174 60.1667 181.667 72 185 86 c 256
EndSplineSet
EndChar

StartChar: uni0E25
Encoding: 3621 3621 250
Width: 573
VWidth: 1504
Flags: HW
LayerCount: 2
Fore
SplineSet
438 63 m 2
 430 25.6667 415.333 -4.33333 394 -27 c 1
 352 0 l 1
 366 12 379 39 391 81 c 0
 396.333 102.333 399 125.333 399 150 c 0
 397 204 382.667 254.667 356 302 c 0
 336 337.333 311.667 365.667 283 387 c 1
 265 387 232.833 367.167 186.5 327.5 c 128
 140.167 287.833 110.667 237.333 98 176 c 1
 113.333 183.333 130.667 187 150 187 c 0
 174 187 193.667 179.333 209 164 c 128
 224.333 148.667 232 130 232 108 c 0
 232 76.6667 218.833 48.8333 192.5 24.5 c 128
 166.167 0.166666 138 -12 108 -12 c 0
 52.6667 -12 25.3333 21.6667 26 89 c 0
 27.3333 165 55.5 239.833 110.5 313.5 c 128
 165.5 387.167 228.333 428 299 436 c 1
 330.333 416 355.5 392 374.5 364 c 128
 393.5 336 406.667 311.333 414 290 c 0
 419.337 274 423.67 250.667 427 220 c 1
 433 296 l 1
 465 459 l 1
 465 487 447 510.333 411 529 c 0
 381 545 350.667 553.333 320 554 c 0
 276 554 235.667 544.667 199 526 c 0
 157.667 506 129 479 113 445 c 1
 60 445 l 1
 79.3333 494.333 116.333 533.667 171 563 c 0
 219 589 271.333 602 328 602 c 0
 376 602 418.667 591.333 456 570 c 0
 499.333 546 520.667 508.333 520 457 c 1
 438 63 l 2
181 96 m 0
 181 123.333 166.667 137 138 137 c 0
 120.667 137 106.167 130.5 94.5 117.5 c 128
 82.8333 104.5 77 90 77 74 c 0
 77 48.6667 90.3333 36 117 36 c 0
 134.333 36 149.333 42 162 54 c 128
 174.667 66 181 80 181 96 c 0
EndSplineSet
EndChar

StartChar: uni0E26
Encoding: 3622 3622 251
Width: 639
VWidth: 1504
Flags: HW
LayerCount: 2
Fore
SplineSet
438 -244 m 1
 426 -291.333 402 -326.667 366 -350 c 1
 323 -323 l 1
 357 -297 378.667 -264 388 -224 c 2
 519 391 l 2
 529 440.333 522 479.833 498 509.5 c 128
 474 539.167 438 554 390 554 c 0
 356 554 320.833 544.167 284.5 524.5 c 128
 248.167 504.833 221 480 203 450 c 1
 255 444.667 291 422.667 311 384 c 1
 253 366 218 329.333 206 274 c 0
 198 234.667 194 194.333 194 153 c 0
 194 135 191.667 114 187 90 c 0
 181 60.6667 166.167 36.3333 142.5 17 c 128
 118.833 -2.33333 93.3333 -12 66 -12 c 256
 38.6667 -12 17.8333 -2.5 3.5 16.5 c 128
 -10.8333 35.5 -15 58.6667 -9 86 c 0
 -3.66667 113.333 10.5 136.667 33.5 156 c 128
 56.5 175.333 81.3333 185 108 185 c 0
 119.333 185 131 182.333 143 177 c 1
 146.333 223 150.333 258.333 155 283 c 0
 165 329 193 365 239 391 c 1
 213.667 403 188 409 162 409 c 0
 148.667 409 139.333 408.667 134 408 c 1
 151.333 464 185.667 510.333 237 547 c 128
 288.333 583.667 343.333 602 402 602 c 0
 466 602 514 583.667 546 547 c 128
 578 510.333 587.667 460.333 575 397 c 2
 438 -244 l 1
138 86 m 256
 141.333 100 139 112 131 122 c 128
 123 132 112 137 98 137 c 256
 84 137 71.1667 132 59.5 122 c 128
 47.8333 112 40.6667 100 38 86 c 256
 34.6667 72 36.8334 60.1667 44.5 50.5 c 128
 52.1667 40.8333 63 36 77 36 c 256
 91 36 103.833 40.8333 115.5 50.5 c 128
 127.167 60.1667 134.667 72 138 86 c 256
EndSplineSet
EndChar

StartChar: uni0E27
Encoding: 3623 3623 252
Width: 503
VWidth: 1504
Flags: HW
LayerCount: 2
Fore
SplineSet
373 87 m 2
 367 59.6667 352.167 36.3333 328.5 17 c 128
 304.833 -2.33333 279.666 -12 253 -12 c 256
 225.667 -12 204.167 -2.16667 188.5 17.5 c 128
 172.833 37.1667 168 60.3333 174 87 c 256
 180 114.333 194.833 137.833 218.5 157.5 c 128
 242.167 177.167 267.667 187 295 187 c 0
 312.333 187 326.333 183.333 337 176 c 1
 390 420 l 2
 409.333 509.333 369 554 269 554 c 0
 191 554 134.333 517.667 99 445 c 1
 44 445 l 1
 89.3333 549 169 601.333 283 602 c 0
 340.334 602 384.667 586.833 416 556.5 c 128
 447.333 526.166 457 483.666 445 429 c 2
 373 87 l 2
325 87 m 256
 328.333 101 325.833 113 317.5 123 c 128
 309.167 133 298 138 284 138 c 256
 270 138 257 133 245 123 c 128
 233 113 225.667 101 223 87 c 256
 219.667 73 222 61 230 51 c 128
 238 41 249 36 263 36 c 256
 277 36 290 41 302 51 c 128
 314 61 321.667 73 325 87 c 256
EndSplineSet
EndChar

StartChar: uni0E28
Encoding: 3624 3624 253
Width: 591
VWidth: 1504
Flags: HW
LayerCount: 2
Fore
SplineSet
349 370 m 256
 352.328 383.333 350.161 394.5 342.5 403.5 c 128
 334.833 412.5 324.333 417 311 417 c 256
 297.667 417 285.833 412.5 275.5 403.5 c 128
 265.167 394.5 258.667 383.333 256 370 c 256
 252.667 356.667 254.5 345.5 261.5 336.5 c 128
 268.5 327.5 278.667 323 292 323 c 256
 305.333 323 317.333 327.5 328 336.5 c 128
 338.667 345.5 345.667 356.667 349 370 c 256
453 51 m 1
 441 3.66667 417 -32 381 -56 c 1
 338 -29 l 1
 372 -3 393.667 30.3333 403 71 c 2
 474 405 l 2
 484 453 474 489.833 444 515.5 c 128
 414 541.167 376.333 554 331 554 c 0
 285 554 241.167 538.167 199.5 506.5 c 128
 157.833 474.833 132.333 436 123 390 c 0
 117.667 368 115.667 341.333 117 310 c 0
 119 266 120 241 120 235 c 1
 141.333 292.333 167 341 197 381 c 0
 237 433 279 459 323 459 c 0
 348.333 459 367.5 451 380.5 435 c 128
 393.5 419 397 397.333 391 370 c 0
 385 344.667 371.667 323.333 351 306 c 128
 330.333 288.667 307.667 280 283 280 c 0
 257 280 236.333 292 221 316 c 1
 203 294.667 182.333 264.667 159 226 c 0
 131.667 178 114.333 135.333 107 98 c 2
 87 0 l 1
 33 0 l 1
 62 138 l 2
 68 167.333 68.6667 208.5 64 261.5 c 128
 59.3333 314.5 60 355.333 66 384 c 0
 80 449.333 113.333 502 166 542 c 128
 218.667 582 278 602 344 602 c 0
 394 602 436.333 591 471 569 c 1
 505 606.333 549 630.667 603 642 c 1
 630 605 l 1
 604 599.667 580.667 592 560 582 c 128
 539.333 572 520.667 558.667 504 542 c 1
 532 510 540 465.667 528 409 c 2
 453 51 l 1
EndSplineSet
EndChar

StartChar: uni0E29
Encoding: 3625 3625 254
Width: 658
VWidth: 1504
Flags: HW
LayerCount: 2
Fore
SplineSet
677 360 m 1
 657.667 332.667 620.667 300.333 566 263 c 1
 537 128 l 2
 517 34.6667 439.667 -12 305 -12 c 0
 169.667 -12 112 34.6667 132 128 c 2
 193 414 l 1
 177.667 406.667 161.333 403 144 403 c 0
 116.667 403 95.6667 412.833 81 432.5 c 128
 66.3333 452.167 61.3333 475.333 66 502 c 0
 72 529.333 87 552.833 111 572.5 c 128
 135 592.167 160.667 602 188 602 c 256
 215.333 602 236.5 592.167 251.5 572.5 c 128
 266.5 552.833 271 529.333 265 502 c 2
 187 132 l 2
 173.667 68.6667 216 37.3333 314 38 c 0
 413.334 38 469.667 69.3333 483 132 c 2
 507 242 l 1
 475 234.665 449.333 231.332 430 232 c 0
 384 232 346.667 244.5 318 269.5 c 128
 289.333 294.5 279 325 287 361 c 1
 291 384.334 302.833 403.667 322.5 419 c 128
 342.167 434.333 363 442 385 442 c 0
 408.334 442 426.167 434.333 438.5 419 c 128
 450.833 403.667 455 384.333 451 361 c 1
 443 325.667 420 300 382 284 c 1
 392 276.667 411 273.333 439 274 c 0
 466.333 274 492 279 516 289 c 1
 573 552 l 2
 581 590 595.667 620 617 642 c 1
 659 615 l 1
 645 603 633 575.333 623 532 c 2
 578 319 l 1
 605.333 337 629.333 360 650 388 c 1
 677 360 l 1
411 361 m 0
 413 372.335 410.5 382.168 403.5 390.5 c 128
 396.5 398.833 387.333 403 376 403 c 256
 364.667 403 354.333 398.833 345 390.5 c 128
 335.667 382.167 330 372.333 328 361 c 0
 324.667 349.667 326.333 340 333 332 c 128
 339.667 324 348.667 320 360 320 c 256
 371.333 320 381.833 324 391.5 332 c 128
 401.167 340 407.667 349.667 411 361 c 0
217 502 m 0
 220.333 516 218.167 528.167 210.5 538.5 c 128
 202.833 548.833 191.667 554 177 554 c 256
 163 554 149.833 548.833 137.5 538.5 c 128
 125.167 528.167 117.333 516 114 502 c 0
 112 488 114.833 476 122.5 466 c 128
 130.167 456 141 451 155 451 c 256
 169 451 182.333 456 195 466 c 128
 207.667 476 215 488 217 502 c 0
EndSplineSet
EndChar

StartChar: uni0E2A
Encoding: 3626 3626 255
Width: 573
VWidth: 1504
Flags: HW
LayerCount: 2
Fore
SplineSet
438 63 m 2
 430 25.6667 415.333 -4.33333 394 -27 c 1
 352 0 l 1
 366 12 379 39 391 81 c 0
 396.333 102.333 399 125.333 399 150 c 0
 397 204 382.667 254.667 356 302 c 0
 336 337.333 311.667 365.667 283 387 c 1
 265 387 232.833 367.167 186.5 327.5 c 128
 140.167 287.833 110.667 237.333 98 176 c 1
 113.333 183.333 130.667 187 150 187 c 0
 174 187 193.667 179.333 209 164 c 128
 224.333 148.667 232 130 232 108 c 0
 232 76.6667 218.833 48.8333 192.5 24.5 c 128
 166.167 0.166666 138 -12 108 -12 c 0
 52.6667 -12 25.3333 21.6667 26 89 c 0
 27.3333 165 55.5 239.833 110.5 313.5 c 128
 165.5 387.167 228.333 428 299 436 c 1
 330.333 416 355.5 392 374.5 364 c 128
 393.5 336 406.667 311.333 414 290 c 0
 419.337 274 423.67 250.667 427 220 c 1
 433 296 l 1
 465 459 l 1
 465 487 447 510.333 411 529 c 0
 381 545 350.667 553.333 320 554 c 0
 276 554 235.667 544.667 199 526 c 0
 157.667 506 129 479 113 445 c 1
 60 445 l 1
 79.3333 494.333 116.333 533.667 171 563 c 0
 219 589 271.333 602 328 602 c 0
 382 602 427.667 589 465 563 c 1
 502.333 604.333 548.333 630.667 603 642 c 1
 630 605 l 1
 574 593.667 529 569 495 531 c 1
 513 509 521 482 519 450 c 1
 438 63 l 2
181 96 m 0
 181 123.333 166.667 137 138 137 c 0
 120.667 137 106.167 130.5 94.5 117.5 c 128
 82.8333 104.5 77 90 77 74 c 0
 77 48.6667 90.3333 36 117 36 c 0
 134.333 36 149.333 42 162 54 c 128
 174.667 66 181 80 181 96 c 0
EndSplineSet
EndChar

StartChar: uni0E2B
Encoding: 3627 3627 256
Width: 642
VWidth: 1504
Flags: HW
LayerCount: 2
Fore
SplineSet
504 51 m 1
 492 3.66667 468 -32 432 -56 c 1
 390 -29 l 1
 424 -3 445.333 30.3333 454 71 c 2
 507 325 l 2
 517 371 510 394 486 394 c 0
 470.667 394 449 376.333 421 341 c 2
 155 0 l 1
 105 0 l 1
 193 414 l 1
 177.667 406.667 161.333 403 144 403 c 0
 116.667 403 95.6667 412.833 81 432.5 c 128
 66.3333 452.167 61.3333 475.333 66 502 c 0
 72 529.333 87 552.833 111 572.5 c 128
 135 592.167 160.667 602 188 602 c 256
 215.333 602 236.5 592.167 251.5 572.5 c 128
 266.5 552.833 271 529.333 265 502 c 2
 196 176 l 2
 194 166.667 184.667 135.667 168 83 c 1
 186 108.333 202.333 130.333 217 149 c 2
 385 373 l 2
 405 398.333 425.667 416 447 426 c 1
 427 445.334 420 470.668 426 502 c 0
 432 529.333 447 552.833 471 572.5 c 128
 495 592.167 520.667 602 548 602 c 256
 575.333 602 596.333 592.167 611 572.5 c 128
 625.667 552.833 630 529.333 624 502 c 0
 616 464 593.667 435.667 557 417 c 1
 570.333 399.667 571.667 369 561 325 c 2
 504 51 l 1
217 502 m 0
 220.333 516 218.167 528.167 210.5 538.5 c 128
 202.833 548.833 191.667 554 177 554 c 256
 163 554 149.833 548.833 137.5 538.5 c 128
 125.167 528.167 117.333 516 114 502 c 0
 112 488 114.833 476 122.5 466 c 128
 130.167 456 141 451 155 451 c 256
 169 451 182.333 456 195 466 c 128
 207.667 476 215 488 217 502 c 0
575 502 m 0
 578.333 516 576.167 528.167 568.5 538.5 c 128
 560.833 548.833 549.667 554 535 554 c 256
 521 554 507.833 548.833 495.5 538.5 c 128
 483.167 528.167 475.333 516 472 502 c 0
 470 488 472.833 476 480.5 466 c 128
 488.167 456 499 451 513 451 c 256
 527 451 540.333 456 553 466 c 128
 565.667 476 573 488 575 502 c 0
EndSplineSet
EndChar

StartChar: uni0E2C
Encoding: 3628 3628 257
Width: 682
VWidth: 1504
Flags: HW
LayerCount: 2
Fore
SplineSet
217 502 m 0
 220.333 516 218.167 528.167 210.5 538.5 c 128
 202.833 548.833 191.667 554 177 554 c 256
 163 554 149.833 548.833 137.5 538.5 c 128
 125.167 528.167 117.333 516 114 502 c 0
 112 488 114.833 476 122.5 466 c 128
 130.167 456 141 451 155 451 c 256
 169 451 182.333 456 195 466 c 128
 207.667 476 215 488 217 502 c 0
591 502 m 0
 594.333 516 592.167 528.167 584.5 538.5 c 128
 576.833 548.833 566 554 552 554 c 256
 538 554 524.667 548.833 512 538.5 c 128
 499.331 528.167 491.665 516 489 502 c 0
 487 488 489.667 476 497 466 c 128
 504.333 456 515 451 529 451 c 256
 543 451 556.333 456 569 466 c 128
 581.667 476 589 488 591 502 c 0
534 0 m 1
 468 0 l 1
 379 293 l 1
 167 0 l 1
 105 0 l 1
 193 414 l 1
 177.667 406.667 161.333 403 144 403 c 0
 116.667 403 95.6667 412.833 81 432.5 c 128
 66.3333 452.167 61.3333 475.333 66 502 c 0
 72 529.333 87 552.833 111 572.5 c 128
 135 592.167 160.667 602 188 602 c 256
 215.333 602 236.5 592.167 251.5 572.5 c 128
 266.5 552.833 271 529.333 265 502 c 2
 190 147 l 2
 186.667 131 180 106.667 170 74 c 1
 180 91.3334 193 112.667 209 138 c 1
 366 349 l 1
 417 349 l 1
 483 138 l 2
 485 130.667 490 109.333 498 74 c 1
 503.333 106 507.333 130.333 510 147 c 2
 567 414 l 1
 551.667 406.667 535.667 403 519 403 c 0
 491.667 403 470.5 412.833 455.5 432.5 c 128
 440.5 452.167 435.667 475.333 441 502 c 0
 447 529.333 462 552.833 486 572.5 c 128
 510 592.167 535.667 602 563 602 c 0
 584.333 602 599.333 596 608 584 c 1
 633.333 611.333 673.333 630.667 728 642 c 1
 755 605 l 1
 699 593.667 660 576 638 552 c 1
 643.333 534 643.667 517.333 639 502 c 2
 534 0 l 1
EndSplineSet
Substitution2: "<23,16000>  in Thai lookup 77 nested-substitutions 0 subtable" uni0E2C.alt1
Substitution2: "Single Substitution lookup 58 subtable" uni0E2C.alt1
EndChar

StartChar: uni0E2D
Encoding: 3629 3629 258
Width: 582
VWidth: 1504
Flags: HW
LayerCount: 2
Fore
SplineSet
250 313 m 256
 253.333 327 250.833 339 242.5 349 c 128
 234.167 359 223 364 209 364 c 256
 195 364 182 359 170 349 c 128
 158 339 150.333 327 147 313 c 256
 143.668 299 145.834 287 153.5 277 c 128
 161.167 267 172.333 262 187 262 c 256
 201 262 214.167 267 226.5 277 c 128
 238.833 287 246.667 299 250 313 c 256
460 128 m 1
 438 34.6667 361 -12 229 -12 c 256
 96.3333 -12 40 34.6667 60 128 c 2
 99 313 l 2
 104.333 340.333 119 363.667 143 383 c 128
 167 402.333 192.667 412 220 412 c 256
 247.333 412 268.333 402.167 283 382.5 c 128
 297.667 362.833 302.667 339.667 298 313 c 0
 292 285.667 278 262.333 256 243 c 128
 234 223.667 207.667 214 177 214 c 0
 159.667 214 145.333 217.333 134 224 c 1
 116 140 l 2
 102 72 144 38 242 38 c 0
 338 38 393.333 72 408 140 c 2
 468 420 l 2
 477.332 462 466.666 495.333 436 520 c 0
 408.667 542 371.667 553.333 325 554 c 0
 283.667 554 244 544.333 206 525 c 0
 164 503.667 136 477 122 445 c 1
 68 445 l 1
 88 492.334 122.5 530.334 171.5 559 c 128
 220.5 587.667 276 602 338 602 c 0
 397.334 602 444.667 588 480 560 c 0
 521.333 528 535.667 484.333 523 429 c 2
 460 128 l 1
EndSplineSet
EndChar

StartChar: uni0E2E
Encoding: 3630 3630 259
Width: 559
VWidth: 1504
Flags: HW
LayerCount: 2
Fore
SplineSet
438 134 m 2
 418 36.6667 341.333 -12 208 -12 c 0
 72.6667 -12 15 36.6667 35 134 c 2
 65 274 l 2
 71 301.334 85.6667 324.667 109 344 c 128
 132.333 363.333 157.667 373 185 373 c 256
 212.333 373 233.667 363.167 249 343.5 c 128
 264.333 323.833 269 300.666 263 274 c 256
 257 246.667 243.5 223.167 222.5 203.5 c 128
 201.5 183.833 175 174 143 174 c 0
 125.667 174 111.667 177.667 101 185 c 1
 90 140 l 1
 76 72 118.667 38 218 38 c 0
 315.333 38 371 72.3333 385 141 c 2
 451 447 l 2
 454.333 460.335 453 471.668 447 481 c 1
 399.667 429 331.333 403 242 403 c 0
 130.667 403 81.6667 433 95 493 c 0
 103 531 134.667 560.333 190 581 c 0
 231.333 596.333 275.667 603.667 323 603 c 0
 382.334 603 428.667 588.667 462 560 c 1
 489.333 600 529 627.333 581 642 c 1
 608 605 l 1
 554.667 591 515 564.333 489 525 c 1
 504.333 493.667 508.333 460.667 501 426 c 2
 438 134 l 2
424 522 m 1
 398 545.333 360.333 557 311 557 c 0
 275.667 557 242.667 552 212 542 c 0
 174 530 153 513.667 149 493 c 0
 143 465 178.667 451 256 451 c 0
 330.667 451 386.667 474.667 424 522 c 1
215 274 m 256
 218.333 288 216 300 208 310 c 128
 200 320 188.667 325 174 325 c 256
 160 325 147 320 135 310 c 128
 123 300 115.667 288 113 274 c 256
 109.667 260 112 248 120 238 c 128
 128 228 139 223 153 223 c 256
 167 223 180 228 192 238 c 128
 204 248 211.667 260 215 274 c 256
EndSplineSet
EndChar

StartChar: uni0E2F
Encoding: 3631 3631 260
Width: 588
VWidth: 1504
Flags: HW
LayerCount: 2
Fore
SplineSet
447 51 m 1
 435 3.66667 411 -32 375 -56 c 1
 332 -29 l 1
 366 -3 387.667 30.3333 397 71 c 2
 486 492 l 2
 493.333 523.333 481.333 540 450 542 c 1
 394 444 325.333 394.667 244 394 c 0
 196.667 394 163 404.333 143 425 c 128
 123 445.667 116.333 472.333 123 505 c 0
 128.333 531 142.833 553.667 166.5 573 c 128
 190.167 592.333 215 602 241 602 c 256
 267 602 287.167 592.5 301.5 573.5 c 128
 315.836 554.5 320.669 531.667 316 505 c 0
 310.667 483 299.667 463.667 283 447 c 1
 342.333 466.333 387 514 417 590 c 1
 471 590 l 2
 531 590 554.667 558.667 542 496 c 2
 447 51 l 1
263 507 m 256
 266.325 520.333 264.659 531.167 258 539.5 c 128
 251.333 547.833 241.667 552 229 552 c 256
 215.667 552 204 547.667 194 539 c 128
 184 530.333 177.333 519.667 174 507 c 256
 170.667 493.667 172.5 483 179.5 475 c 128
 186.5 467 196.333 463 209 463 c 256
 222.333 463 233.833 467 243.5 475 c 128
 253.168 483 259.668 493.667 263 507 c 256
EndSplineSet
EndChar

StartChar: uni0E30
Encoding: 3632 3632 261
Width: 536
VWidth: 1504
Flags: HW
LayerCount: 2
Fore
SplineSet
513 575 m 1
 495.667 507 463 451 415 407 c 128
 367 363 312 341 250 341 c 0
 198.667 341 157.333 350.667 126 370 c 0
 86.6666 393.333 71.6666 428 81 474 c 0
 87 500 101.5 522.5 124.5 541.5 c 128
 147.5 560.5 172.333 570 199 570 c 256
 225 570 245.5 560.5 260.5 541.5 c 128
 275.5 522.5 280 500 274 474 c 0
 266.667 440 246.667 413.333 214 394 c 1
 229.333 390 241.333 388 250 388 c 0
 305.333 390 350.5 407.833 385.5 441.5 c 128
 420.5 475.167 445 519.667 459 575 c 1
 513 575 l 1
223 474 m 256
 226.333 488 224.333 499.5 217 508.5 c 128
 209.667 517.5 199 522 185 522 c 256
 171 522 158.667 517.5 148 508.5 c 128
 137.333 499.5 130.667 488 128 474 c 256
 124.667 460 126.5 448.667 133.5 440 c 128
 140.5 431.333 151 427 165 427 c 256
 179 427 191.333 431.333 202 440 c 128
 212.667 448.667 219.667 460 223 474 c 256
445 256 m 1
 427.667 188 395 132.167 347 88.5 c 128
 299 44.8333 244 23 182 23 c 0
 130.667 23 89.6666 32.3333 59 51 c 0
 19.6667 74.3333 4.66667 109 14 155 c 0
 20 181 34.5 203.5 57.5 222.5 c 128
 80.5 241.5 105 251 131 251 c 256
 157 251 177.5 241.5 192.5 222.5 c 128
 207.5 203.5 212 181 206 155 c 0
 198.667 121 178.667 94.3333 146 75 c 1
 161.333 71 173.333 69 182 69 c 0
 237.333 71 282.5 88.8334 317.5 122.5 c 128
 352.5 156.167 377 200.667 391 256 c 1
 445 256 l 1
155 155 m 256
 158.333 169 156.333 180.5 149 189.5 c 128
 141.667 198.5 131 203 117 203 c 256
 103 203 90.8333 198.5 80.5 189.5 c 128
 70.1667 180.5 63.3333 169 60 155 c 256
 56.6667 141 58.6667 129.667 66 121 c 128
 73.3333 112.333 84 108 98 108 c 256
 112 108 124.167 112.333 134.5 121 c 128
 144.833 129.667 151.667 141 155 155 c 256
EndSplineSet
EndChar

StartChar: uni0E31
Encoding: 3633 3633 262
Width: 0
VWidth: 1504
Flags: HW
LayerCount: 2
Fore
SplineSet
206 931 m 1
 190.667 863 156.333 807.167 103 763.5 c 128
 49.6667 719.833 -10.3333 698 -77 698 c 0
 -135 698 -179 710 -209 734 c 128
 -239 758 -249.667 789.667 -241 829 c 0
 -235.667 855 -221.5 877.5 -198.5 896.5 c 128
 -175.5 915.5 -151 925 -125 925 c 256
 -99 925 -78.5 915.667 -63.5 897 c 128
 -48.5 878.333 -43.3333 856 -48 830 c 0
 -55.3333 796 -76.3333 769 -111 749 c 1
 -97 745.644 -78.6667 744.311 -56 745 c 0
 -8 746.333 36.3333 765.667 77 803 c 1
 112.333 838.333 136.333 881 149 931 c 1
 206 931 l 1
-96 832 m 256
 -92.6663 846 -94.833 857.667 -102.5 867 c 128
 -110.167 876.333 -120.667 881 -134 881 c 256
 -147.333 881 -160 876.333 -172 867 c 128
 -184 857.667 -191.333 846 -194 832 c 256
 -197.333 818 -194.833 806.5 -186.5 797.5 c 128
 -178.167 788.5 -167.667 784 -155 784 c 256
 -141.667 784 -129.333 788.5 -118 797.5 c 128
 -106.667 806.5 -99.3334 818 -96 832 c 256
EndSplineSet
Substitution2: "<23,16000>  in Thai lookup 65 nested-substitutions 2 subtable" uni0E31.alt1
Substitution2: "Single Substitution lookup 58 subtable" uni0E31.alt1
EndChar

StartChar: uni0E32
Encoding: 3634 3634 263
Width: 475
VWidth: 1504
Flags: HW
LayerCount: 2
Fore
SplineSet
337 51 m 1
 325 3.66667 301 -32 265 -56 c 1
 223 -29 l 1
 257 -3 278.333 30.3333 287 71 c 2
 367 450 l 2
 373 480 367 504.833 349 524.5 c 128
 331 544.167 302.333 554 263 554 c 0
 227.667 554 197 542.167 171 518.5 c 128
 145 494.833 128 469.333 120 442 c 1
 65 442 l 1
 75 484 99.8334 521.167 139.5 553.5 c 128
 179.167 585.833 224.333 602 275 602 c 0
 333 602 374.333 587.833 399 559.5 c 128
 423.667 531.166 431 494 421 448 c 2
 337 51 l 1
EndSplineSet
Substitution2: "<23,16000>  in Thai lookup 65 nested-substitutions 8 subtable" uni0E45
EndChar

StartChar: uni0E33
Encoding: 3635 3635 264
Width: 475
VWidth: 1504
Flags: HW
LayerCount: 2
Fore
SplineSet
93 809 m 256
 85.6667 777 68.8333 750 42.5 728 c 128
 16.1667 706 -12.6667 695 -44 695 c 0
 -76 695 -101 706 -119 728 c 128
 -137 750 -142.333 777 -135 809 c 256
 -127.667 841 -110.667 868.333 -84 891 c 128
 -57.3333 913.667 -28.3333 925 3 925 c 0
 35 925 59.8333 913.667 77.5 891 c 128
 95.1667 868.333 100.333 841 93 809 c 256
44 809 m 256
 48 827 44.6667 842.5 34 855.5 c 128
 23.3333 868.5 10 875 -6 875 c 0
 -24 875 -40.8333 868.5 -56.5 855.5 c 128
 -72.1667 842.5 -82 827 -86 809 c 256
 -90 791 -86.6667 775.833 -76 763.5 c 128
 -65.3333 751.167 -51 745 -33 745 c 0
 -15.6667 745 0.5 751.167 15.5 763.5 c 128
 30.5 775.833 40 791 44 809 c 256
337 51 m 1
 325 3.66667 301 -32 265 -56 c 1
 223 -29 l 1
 257 -3 278.333 30.3333 287 71 c 2
 367 450 l 2
 373 480 367 504.833 349 524.5 c 128
 331 544.167 302.333 554 263 554 c 0
 227.667 554 197 542.167 171 518.5 c 128
 145 494.833 128 469.333 120 442 c 1
 65 442 l 1
 75 484 99.8334 521.167 139.5 553.5 c 128
 179.167 585.833 224.333 602 275 602 c 0
 333 602 374.333 587.833 399 559.5 c 128
 423.667 531.166 431 494 421 448 c 2
 337 51 l 1
EndSplineSet
Substitution2: "<23,16000>  in Thai lookup 65 nested-substitutions 2 subtable" uni0E33.alt1
Substitution2: "Single Substitution lookup 58 subtable" uni0E33.alt1
EndChar

StartChar: uni0E34
Encoding: 3636 3636 265
Width: 0
VWidth: 1504
Flags: HW
LayerCount: 2
Fore
SplineSet
5 684 m 1
 -100.333 725.333 -203.667 746 -305 746 c 0
 -341 746 -381.333 743 -426 737 c 1
 -414 789 -383.333 831 -334 863 c 0
 -290 892.333 -241.333 907 -188 907 c 0
 -53.3333 907 11 832.667 5 684 c 1
-41 742 m 1
 -67 823.333 -118.667 863.667 -196 863 c 0
 -266 863 -319 836.667 -355 784 c 1
 -333 787.333 -309 788.667 -283 788 c 0
 -187 788.664 -106.333 773.33 -41 742 c 1
EndSplineSet
Substitution2: "<23,16000>  in Thai lookup 65 nested-substitutions 2 subtable" uni0E34.alt1
Substitution2: "Single Substitution lookup 58 subtable" uni0E34.alt1
EndChar

StartChar: uni0E35
Encoding: 3637 3637 266
Width: 0
VWidth: 1504
Flags: HW
LayerCount: 2
Fore
SplineSet
5 684 m 1
 -100.333 725.333 -203.667 746 -305 746 c 0
 -341 746 -381.333 743 -426 737 c 1
 -414 789 -383.333 831 -334 863 c 0
 -290 892.333 -241.333 907 -188 907 c 0
 -108 907 -53 880.333 -23 827 c 1
 8 973 l 1
 57 973 l 1
 5 725 l 1
 6.33333 711.667 6.33333 698 5 684 c 1
-41 742 m 1
 -67 823.333 -118.667 863.667 -196 863 c 0
 -266 863 -319 836.667 -355 784 c 1
 -333 787.333 -309 788.667 -283 788 c 0
 -187 788.664 -106.333 773.33 -41 742 c 1
EndSplineSet
Substitution2: "<23,16000>  in Thai lookup 65 nested-substitutions 2 subtable" uni0E35.alt1
Substitution2: "Single Substitution lookup 58 subtable" uni0E35.alt1
EndChar

StartChar: uni0E36
Encoding: 3638 3638 267
Width: 0
VWidth: 1504
Flags: HW
LayerCount: 2
Fore
SplineSet
5 684 m 1
 -100.333 725.333 -203.667 746 -305 746 c 0
 -341 746 -381.333 743 -426 737 c 1
 -414 789 -383.333 831 -334 863 c 0
 -290 892.333 -241.333 907 -188 907 c 0
 -134 907 -90.3333 894 -57 868 c 1
 -58.3333 876 -58 884 -56 892 c 0
 -52 912 -41.3334 929.333 -24 944 c 128
 -6.66667 958.667 12 966 32 966 c 256
 52 966 67.6667 958.667 79 944 c 128
 90.3333 929.333 94 912 90 892 c 0
 84.6667 872 73.3333 854.667 56 840 c 128
 38.6667 825.333 20 818 0 818 c 0
 -4 818 -9.66667 819 -17 821 c 1
 -0.333334 785.667 7 740 5 684 c 1
-41 742 m 1
 -67 823.333 -118.667 863.667 -196 863 c 0
 -266 863 -319 836.667 -355 784 c 1
 -333 787.333 -309 788.667 -283 788 c 0
 -187 788.664 -106.333 773.33 -41 742 c 1
56 892 m 0
 58 903.333 56 912.667 50 920 c 128
 44 927.333 35.3333 931 24 931 c 256
 12.6667 931 2.83333 927.333 -5.5 920 c 128
 -13.8333 912.66 -19 903.326 -21 892 c 0
 -24.3333 880.66 -23 871.327 -17 864 c 128
 -11 856.667 -2.66667 853 8 853 c 0
 19.3333 853 29.3333 856.667 38 864 c 128
 46.6667 871.333 52.6667 880.667 56 892 c 0
EndSplineSet
Substitution2: "<23,16000>  in Thai lookup 65 nested-substitutions 2 subtable" uni0E36.alt1
Substitution2: "Single Substitution lookup 58 subtable" uni0E36.alt1
EndChar

StartChar: uni0E37
Encoding: 3639 3639 268
Width: 0
VWidth: 1504
Flags: HW
LayerCount: 2
Fore
SplineSet
-41 742 m 1
 -67 823.333 -118.667 863.667 -196 863 c 0
 -266 863 -319 836.667 -355 784 c 1
 -333 787.333 -309 788.667 -283 788 c 0
 -187 788.664 -106.333 773.33 -41 742 c 1
5 684 m 1
 -100.333 725.333 -203.667 746 -305 746 c 0
 -341 746 -381.333 743 -426 737 c 1
 -414 789 -383.333 831 -334 863 c 0
 -290 892.333 -241.333 907 -188 907 c 0
 -164.667 907 -144 905 -126 901 c 1
 -111 973 l 1
 -62 973 l 1
 -81 883 l 1
 -55 869.667 -35.6667 851 -23 827 c 1
 8 973 l 1
 57 973 l 1
 5 725 l 1
 6.33333 711.667 6.33333 698 5 684 c 1
EndSplineSet
Substitution2: "<23,16000>  in Thai lookup 65 nested-substitutions 2 subtable" uni0E37.alt1
Substitution2: "Single Substitution lookup 58 subtable" uni0E37.alt1
EndChar

StartChar: uni0E38
Encoding: 3640 3640 269
Width: 0
VWidth: 1504
Flags: HW
LayerCount: 2
Fore
SplineSet
-224 -165 m 0
 -220.667 -153.667 -222.167 -144.333 -228.5 -137 c 128
 -234.833 -129.667 -243.333 -126 -254 -126 c 256
 -265.333 -126 -275.5 -129.833 -284.5 -137.5 c 128
 -293.5 -145.167 -299.333 -154.333 -302 -165 c 0
 -304 -176.333 -302 -185.833 -296 -193.5 c 128
 -290 -201.167 -281.667 -205 -271 -205 c 256
 -259.667 -205 -249.5 -201.167 -240.5 -193.5 c 128
 -231.5 -185.833 -226 -176.333 -224 -165 c 0
-212 -301 m 2
 -220 -339 -234.667 -369 -256 -391 c 1
 -298 -364 l 1
 -282 -348.667 -270 -323 -262 -287 c 2
 -253 -242 l 1
 -261 -245.333 -270 -247 -280 -247 c 0
 -302 -247 -319.167 -239.167 -331.5 -223.5 c 128
 -343.833 -207.833 -347.667 -189 -343 -167 c 256
 -337.668 -145 -325.835 -126.167 -307.5 -110.5 c 128
 -289.167 -94.8333 -269 -87 -247 -87 c 256
 -225 -87 -207.667 -94.8333 -195 -110.5 c 128
 -182.334 -126.167 -178.667 -145 -184 -167 c 2
 -212 -301 l 2
EndSplineSet
Substitution2: "<23,16000>  in Thai lookup 65 nested-substitutions 6 subtable" uni0E38.alt1
Substitution2: "Single Substitution lookup 59 subtable" a
Substitution2: "Single Substitution lookup 58 subtable" uni0E38.alt1
EndChar

StartChar: uni0E39
Encoding: 3641 3641 270
Width: 0
VWidth: 1504
Flags: HW
LayerCount: 2
Fore
SplineSet
-382 -165 m 0
 -378.667 -153.667 -380.167 -144.333 -386.5 -137 c 128
 -392.833 -129.667 -401.333 -126 -412 -126 c 256
 -423.333 -126 -433.5 -129.833 -442.5 -137.5 c 128
 -451.5 -145.167 -457.333 -154.333 -460 -165 c 0
 -462 -176.333 -460 -185.833 -454 -193.5 c 128
 -448 -201.167 -439.667 -205 -429 -205 c 256
 -417.667 -205 -407.5 -201.167 -398.5 -193.5 c 128
 -389.5 -185.833 -384 -176.333 -382 -165 c 0
-190 -191 m 1
 -209 -290 l 1
 -223 -352 -266 -383.333 -338 -384 c 0
 -406 -384 -433.667 -353.667 -421 -293 c 2
 -411 -242 l 1
 -419 -245.333 -428 -247 -438 -247 c 0
 -460 -247 -477.167 -239.167 -489.5 -223.5 c 128
 -501.833 -207.833 -505.667 -189 -501 -167 c 256
 -495.668 -145 -483.834 -126.167 -465.5 -110.5 c 128
 -447.167 -94.8333 -427 -87 -405 -87 c 256
 -383 -87 -365.667 -94.8333 -353 -110.5 c 128
 -340.333 -126.167 -336.333 -145 -341 -167 c 2
 -370 -302 l 2
 -375.333 -325.333 -360.333 -337 -325 -337 c 0
 -291 -337 -271.333 -325.333 -266 -302 c 2
 -239 -171 l 2
 -231 -133 -216.667 -103 -196 -81 c 1
 -153 -108 l 1
 -167.667 -120 -180 -147.667 -190 -191 c 1
EndSplineSet
Substitution2: "<23,16000>  in Thai lookup 65 nested-substitutions 6 subtable" uni0E39.alt1
Substitution2: "Single Substitution lookup 59 subtable" b
Substitution2: "Single Substitution lookup 58 subtable" uni0E39.alt1
EndChar

StartChar: uni0E3A
Encoding: 3642 3642 271
Width: 0
VWidth: 1504
Flags: HW
LayerCount: 2
Fore
SplineSet
-190 -144 m 0
 -193.333 -155.333 -199.333 -165 -208 -173 c 128
 -216.667 -181 -226.667 -185 -238 -185 c 256
 -249.333 -185 -258.167 -181 -264.5 -173 c 128
 -270.833 -165 -272.333 -155.333 -269 -144 c 0
 -267 -132.667 -261.333 -123.333 -252 -116 c 128
 -242.667 -108.667 -232.333 -105 -221 -105 c 256
 -209.667 -105 -201.167 -108.667 -195.5 -116 c 128
 -189.833 -123.333 -188 -132.667 -190 -144 c 0
EndSplineSet
Substitution2: "<23,16000>  in Thai lookup 65 nested-substitutions 6 subtable" uni0E3A.alt1
Substitution2: "Single Substitution lookup 59 subtable" c
Substitution2: "Single Substitution lookup 58 subtable" uni0E3A.alt1
EndChar

StartChar: uni0E3F
Encoding: 3647 3647 272
Width: 618
VWidth: 1504
Flags: HW
LayerCount: 2
Fore
SplineSet
486 220 m 0
 462.667 114.667 385 54 253 38 c 1
 226 -89 l 1
 176 -89 l 1
 202 33 l 1
 177 33 l 2
 139.667 33 99.6667 37.6667 57 47 c 1
 188 663 l 1
 247.333 676.333 294.333 683 329 683 c 2
 340 683 l 1
 363 787 l 1
 412 787 l 1
 390 680 l 1
 498 664.667 542.333 611.333 523 520 c 0
 509 452.667 467 405.333 397 378 c 1
 426.333 366.667 449.333 348.333 466 323 c 0
 487.333 293.667 494 259.333 486 220 c 0
430 218 m 0
 440 263.333 428.667 298 396 322 c 1
 366 342 323.333 352 268 352 c 2
 179 352 l 1
 123 89 l 1
 141 83.6667 166.667 81 200 81 c 0
 254 81 301 91 341 111 c 0
 390.333 135 420 170.667 430 218 c 0
468 519 m 0
 477.332 560.333 464.666 591 430 611 c 0
 402 627 365 635 319 635 c 0
 299 635 272 631.333 238 624 c 1
 190 402 l 1
 295 402 l 2
 341 402 379.5 413.167 410.5 435.5 c 128
 441.5 457.834 460.667 485.668 468 519 c 0
EndSplineSet
EndChar

StartChar: uni0E40
Encoding: 3648 3648 273
Width: 305
VWidth: 1504
Flags: HW
LayerCount: 2
Fore
SplineSet
188 93 m 256
 191.333 107 188.833 119 180.5 129 c 128
 172.167 139 161 144 147 144 c 256
 133 144 120 139 108 129 c 128
 96 119 88.6667 107 86 93 c 256
 82.6667 79 84.8333 67 92.5 57 c 128
 100.167 47 111 42 125 42 c 256
 139 42 152.167 47 164.5 57 c 128
 176.833 67 184.667 79 188 93 c 256
238 93 m 256
 232 65 216.833 41 192.5 21 c 128
 168.167 1 142 -9 114 -9 c 0
 82.6667 -9 59.6667 2 45 24 c 0
 31.6667 43.3333 28.3333 66.3333 35 93 c 2
 132 552 l 2
 140 590 154.667 620 176 642 c 1
 218 615 l 1
 204 603 192.667 577.667 184 539 c 2
 107 182 l 1
 123 190 140 194 158 194 c 0
 186 194 207.833 184.167 223.5 164.5 c 128
 239.167 144.833 244 121 238 93 c 256
EndSplineSet
EndChar

StartChar: uni0E41
Encoding: 3649 3649 274
Width: 567
VWidth: 1504
Flags: HW
LayerCount: 2
Fore
SplineSet
188 93 m 256
 191.333 107 188.833 119 180.5 129 c 128
 172.167 139 161 144 147 144 c 256
 133 144 120 139 108 129 c 128
 96 119 88.6667 107 86 93 c 256
 82.6667 79 84.8333 67 92.5 57 c 128
 100.167 47 111 42 125 42 c 256
 139 42 152.167 47 164.5 57 c 128
 176.833 67 184.667 79 188 93 c 256
238 93 m 256
 232 65 216.833 41 192.5 21 c 128
 168.167 1 142 -9 114 -9 c 0
 82.6667 -9 59.6667 2 45 24 c 0
 31.6667 43.3333 28.3333 66.3333 35 93 c 2
 132 552 l 2
 140 590 154.667 620 176 642 c 1
 218 615 l 1
 204 603 192.667 577.667 184 539 c 2
 107 182 l 1
 123 190 140 194 158 194 c 0
 186 194 207.833 184.167 223.5 164.5 c 128
 239.167 144.833 244 121 238 93 c 256
448 93 m 256
 451.333 107 449 119 441 129 c 128
 433 139 422 144 408 144 c 256
 394 144 380.833 139 368.5 129 c 128
 356.167 119 348.667 107 346 93 c 256
 342.667 79 344.833 67 352.5 57 c 128
 360.167 47 371 42 385 42 c 256
 399 42 412.167 47 424.5 57 c 128
 436.835 67 444.668 79 448 93 c 256
498 93 m 256
 492 65 477 41 453 21 c 128
 429 1 403 -9 375 -9 c 0
 343.667 -9 320.333 2 305 24 c 0
 291.667 43.3333 288.333 66.3333 295 93 c 2
 393 552 l 2
 401 590 415.333 620 436 642 c 1
 478 615 l 1
 464 603 452.667 577.667 444 539 c 2
 367 182 l 1
 383 190 400 194 418 194 c 0
 446 194 467.833 184.167 483.5 164.5 c 128
 499.167 144.833 504 121 498 93 c 256
EndSplineSet
EndChar

StartChar: uni0E42
Encoding: 3650 3650 275
Width: 356
VWidth: 1504
Flags: HW
LayerCount: 2
Fore
SplineSet
238 90 m 256
 241.333 104 238.667 116 230 126 c 128
 221.333 136 210 141 196 141 c 0
 182.667 141 170 136 158 126 c 128
 146 116 138.333 104 135 90 c 256
 131.668 76 133.834 64 141.5 54 c 128
 149.167 44 160 39 174 39 c 256
 188 39 201.333 44 214 54 c 128
 226.667 64 234.667 76 238 90 c 256
287 90 m 256
 281 62 266 38 242 18 c 128
 218 -2 192 -12 164 -12 c 0
 132 -12 108.333 -1 93 21 c 0
 81 40.3333 77.6667 63.3333 83 90 c 2
 217 716 l 2
 223 744 207.167 771 169.5 797 c 128
 131.833 823 93.3333 836.667 54 838 c 1
 79.3333 932 135.667 979 223 979 c 0
 239 979 263.167 971.333 295.5 956 c 128
 327.833 940.667 350.333 933 363 933 c 0
 381 933 395 945.333 405 970 c 1
 447 958 l 1
 421.667 908 392.667 883 360 883 c 0
 344 883 318.833 891.333 284.5 908 c 128
 250.167 924.667 224.667 933 208 933 c 0
 164 933 136.333 914.333 125 877 c 1
 237 841.667 285 786 269 710 c 2
 156 179 l 1
 171.333 187 188 191 206 191 c 0
 234 191 256 181.167 272 161.5 c 128
 288 141.833 293 118 287 90 c 256
EndSplineSet
EndChar

StartChar: uni0E43
Encoding: 3651 3651 276
Width: 364
VWidth: 1504
Flags: HW
LayerCount: 2
Fore
SplineSet
295 90 m 256
 289 62 274 38 250 18 c 128
 226 -2 200.333 -12 173 -12 c 0
 141 -12 117 -1 101 21 c 1
 89 40.3333 85.3333 63.3333 90 90 c 2
 221 705 l 2
 225 722.333 233.667 742 247 764 c 0
 279 815.333 296.333 847 299 859 c 0
 304.331 884.333 300.164 905 286.5 921 c 128
 272.833 937 253.667 945 229 945 c 0
 191.667 945 160.333 933.333 135 910 c 1
 163 914 184.333 908 199 892 c 128
 213.667 876 218.667 855 214 829 c 0
 208.667 805.667 196.167 786 176.5 770 c 128
 156.833 754 136 746 114 746 c 256
 92 746 74.3333 754 61 770 c 128
 47.6666 786 44.3333 810 51 842 c 0
 59 883.333 80.5 918 115.5 946 c 128
 150.5 974 192.667 988 242 988 c 0
 278 988 308.167 976.833 332.5 954.5 c 128
 356.835 932.165 364.668 903.332 356 868 c 0
 352 846.667 338.333 817.5 315 780.5 c 128
 291.667 743.5 278 715 274 695 c 2
 164 179 l 1
 179.333 187 196.333 191 215 191 c 0
 242.333 191 264 181.167 280 161.5 c 128
 296 141.833 301 118 295 90 c 256
245 90 m 256
 248.333 104 245.667 116 237 126 c 128
 228.333 136 217 141 203 141 c 0
 189.667 141 177 136 165 126 c 128
 153 116 145.667 104 143 90 c 256
 139.668 76 141.834 64 149.5 54 c 128
 157.167 44 168 39 182 39 c 256
 196 39 209.167 44 221.5 54 c 128
 233.833 64 241.667 76 245 90 c 256
173 829 m 0
 175 840.333 173.167 850.167 167.5 858.5 c 128
 161.833 866.833 152.667 871 140 871 c 256
 126.667 871 115.333 866.667 106 858 c 128
 96.6667 849.333 91 839.667 89 829 c 0
 85.6667 817.66 87 807.827 93 799.5 c 128
 99 791.167 108.667 787 122 787 c 256
 135.333 787 146.333 791.167 155 799.5 c 128
 163.667 807.833 169.667 817.667 173 829 c 0
EndSplineSet
EndChar

StartChar: uni0E44
Encoding: 3652 3652 277
Width: 367
VWidth: 1504
Flags: HW
LayerCount: 2
Fore
SplineSet
298 90 m 256
 292 62 277 38 253 18 c 128
 229 -2 203.333 -12 176 -12 c 0
 144 -12 120 -1 104 21 c 1
 92 40.3333 88.3333 63.3333 93 90 c 2
 266 904 l 1
 125 748 l 1
 80 766 l 1
 89.3333 833.333 94.3333 911.333 95 1000 c 1
 141 1000 l 1
 137.666 912.667 133.333 847 128 803 c 1
 290 985 l 1
 303.333 983.667 313.5 977.667 320.5 967 c 128
 327.5 956.333 329.333 945 326 933 c 2
 167 179 l 1
 182.333 187 199.333 191 218 191 c 0
 245.333 191 267 181.167 283 161.5 c 128
 299 141.833 304 118 298 90 c 256
247 90 m 256
 250.333 104 247.833 116 239.5 126 c 128
 231.167 136 220 141 206 141 c 256
 192 141 179 136 167 126 c 128
 155 116 147.333 104 144 90 c 256
 140.667 76 143.167 64 151.5 54 c 128
 159.833 44 171 39 185 39 c 256
 199 39 212 44 224 54 c 128
 236 64 243.667 76 247 90 c 256
EndSplineSet
EndChar

StartChar: uni0E45
Encoding: 3653 3653 278
Width: 308
VWidth: 1504
Flags: HW
LayerCount: 2
Fore
SplineSet
107 -244 m 1
 95 -291.333 71 -326.667 35 -350 c 1
 -8 -323 l 1
 26 -297 47.6667 -264 57 -224 c 2
 200 450 l 2
 206 480 200 504.833 182 524.5 c 128
 164 544.167 135.333 554 96 554 c 0
 60.6667 554 30.3333 542.167 5 518.5 c 128
 -20.3333 494.833 -37 469.333 -45 442 c 1
 -101 442 l 1
 -91 484 -66.3333 521.167 -27 553.5 c 128
 12.3333 585.833 57.3333 602 108 602 c 0
 166 602 207.333 587.833 232 559.5 c 128
 256.667 531.166 264 494 254 448 c 2
 107 -244 l 1
EndSplineSet
EndChar

StartChar: uni0E46
Encoding: 3654 3654 279
Width: 600
VWidth: 1504
Flags: HW
LayerCount: 2
Fore
SplineSet
393 -206 m 1
 381 -253.333 356.667 -289 320 -313 c 1
 278 -286 l 1
 312 -260 332.667 -229 340 -193 c 2
 477 451 l 2
 488.332 502.333 473.666 542 433 570 c 1
 350 516 l 1
 280 572 l 1
 234 554 203.333 522.667 188 478 c 1
 205.333 488 222 493 238 493 c 0
 264 493 284.167 484 298.5 466 c 128
 312.833 448 317 426 311 400 c 0
 305.667 374 292.167 352.167 270.5 334.5 c 128
 248.833 316.833 225 308 199 308 c 0
 167.667 308 144.667 319.667 130 343 c 128
 115.333 366.333 110.666 393.333 116 424 c 0
 135.333 526 195.333 591.667 296 621 c 1
 360 572 l 1
 439 621 l 1
 518.333 587.667 549.333 531 532 451 c 2
 393 -206 l 1
263 400 m 256
 266.333 413.335 264.5 424.168 257.5 432.5 c 128
 250.5 440.833 240.333 445 227 445 c 256
 213.667 445 202.333 440.833 193 432.5 c 128
 183.666 424.167 177.333 413.333 174 400 c 256
 170.667 386.667 172.5 376 179.5 368 c 128
 186.5 360 196.333 356 209 356 c 256
 222.333 356 233.833 360 243.5 368 c 128
 253.168 376 259.668 386.667 263 400 c 256
EndSplineSet
EndChar

StartChar: uni0E47
Encoding: 3655 3655 280
Width: 0
VWidth: 1504
Flags: HW
LayerCount: 2
Fore
SplineSet
17 769 m 0
 11.6667 747 0 728.833 -18 714.5 c 128
 -36 700.167 -55 693 -75 693 c 0
 -117 693 -160.333 714.667 -205 758 c 1
 -234.333 748.667 -264.667 726.667 -296 692 c 1
 -330 717.333 -341.667 756.333 -331 809 c 0
 -315 887 -264.333 926.333 -179 927 c 2
 -80 927 l 2
 -30.6667 927 3 963 21 1035 c 1
 72 1035 l 1
 62.6667 991.667 44 955.5 16 926.5 c 128
 -12 897.5 -47.3333 883 -90 883 c 2
 -194 883 l 2
 -242 883 -271 860 -281 814 c 0
 -285 792 -283.667 772.333 -277 755 c 1
 -245.667 783 -216.667 799 -190 803 c 1
 -176 787.667 -155.333 769.667 -128 749 c 1
 -126.667 757 -125.667 763.667 -125 769 c 0
 -121 789 -110.667 805.667 -94 819 c 128
 -77.3333 832.333 -59 839 -39 839 c 256
 -19 839 -3.66667 832.167 7 818.5 c 128
 17.6667 804.833 21 788.333 17 769 c 0
-21 769 m 256
 -19 778.333 -20.5 786.167 -25.5 792.5 c 128
 -30.5 798.833 -37.6667 802 -47 802 c 256
 -56.3333 802 -64.8333 798.667 -72.5 792 c 128
 -80.1667 785.333 -85 777.667 -87 769 c 256
 -89 759.661 -87.5 751.828 -82.5 745.5 c 128
 -77.5 739.167 -70.6667 736 -62 736 c 256
 -52.6667 736 -44 739.167 -36 745.5 c 128
 -28 751.833 -23 759.667 -21 769 c 256
EndSplineSet
Substitution2: "<23,16000>  in Thai lookup 65 nested-substitutions 2 subtable" uni0E47.alt1
Substitution2: "Single Substitution lookup 58 subtable" uni0E47.alt1
EndChar

StartChar: uni0E48
Encoding: 3656 3656 281
Width: 0
VWidth: 1504
Flags: HW
LayerCount: 2
Fore
SplineSet
68 1023 m 1
 18 1023 l 1
 54 1190 l 1
 104 1190 l 1
 68 1023 l 1
EndSplineSet
Substitution2: "<23,16000>  in Thai lookup 65 nested-substitutions 5 subtable" uni0E48.alt3
Substitution2: "<23,16000>  in Thai lookup 65 nested-substitutions 3 subtable" uni0E48.alt1
Substitution2: "<23,16000>  in Thai lookup 65 nested-substitutions 2 subtable" uni0E48.alt3
Substitution2: "<23,16000>  in Thai lookup 65 nested-substitutions 0 subtable" uni0E48.alt2
Substitution2: "Single Substitution lookup 58 subtable" uni0E48.alt2
EndChar

StartChar: uni0E49
Encoding: 3657 3657 282
Width: 0
VWidth: 1504
Flags: HW
LayerCount: 2
Fore
SplineSet
262 1242 m 1
 230 1156 179.667 1095.33 111 1060 c 0
 57 1032 -12 1018 -96 1018 c 2
 -123 1018 l 1
 -117 1047 l 1
 -81 1061 -53 1080.67 -33 1106 c 1
 -51 1106 -65.8333 1111.67 -77.5 1123 c 128
 -89.1667 1134.34 -95 1148.68 -95 1166 c 0
 -95 1192 -84.6667 1213.83 -64 1231.5 c 128
 -43.3333 1249.17 -22 1258 0 1258 c 0
 17.3333 1258 31.5 1252.17 42.5 1240.5 c 128
 53.5 1228.83 59 1214 59 1196 c 0
 59 1190 58.3333 1185 57 1181 c 0
 47 1131 16.3333 1089.67 -35 1057 c 1
 85.6667 1067 166 1128.67 206 1242 c 1
 262 1242 l 1
15 1181 m 256
 17 1191 15.5 1199.5 10.5 1206.5 c 128
 5.5 1213.5 -1.66667 1217 -11 1217 c 0
 -21 1217 -30.1667 1213.5 -38.5 1206.5 c 128
 -46.8333 1199.5 -52 1191 -54 1181 c 256
 -56 1171 -54.3333 1162.67 -49 1156 c 128
 -43.6667 1149.33 -36 1146 -26 1146 c 256
 -16 1146 -7.16667 1149.33 0.5 1156 c 128
 8.16667 1162.67 13 1171 15 1181 c 256
EndSplineSet
Substitution2: "<23,16000>  in Thai lookup 65 nested-substitutions 5 subtable" uni0E49.alt3
Substitution2: "<23,16000>  in Thai lookup 65 nested-substitutions 3 subtable" uni0E49.alt1
Substitution2: "<23,16000>  in Thai lookup 65 nested-substitutions 2 subtable" uni0E49.alt3
Substitution2: "<23,16000>  in Thai lookup 65 nested-substitutions 0 subtable" uni0E49.alt2
Substitution2: "Single Substitution lookup 58 subtable" uni0E49.alt2
EndChar

StartChar: uni0E4A
Encoding: 3658 3658 283
Width: 0
VWidth: 1504
Flags: HW
LayerCount: 2
Fore
SplineSet
-167 1091 m 0
 -165 1101 -166.5 1109.5 -171.5 1116.5 c 128
 -176.5 1123.5 -184 1127 -194 1127 c 256
 -204 1127 -213.333 1123.5 -222 1116.5 c 128
 -230.667 1109.5 -236 1101 -238 1091 c 0
 -241.333 1081 -239.833 1072.67 -233.5 1066 c 128
 -227.167 1059.33 -219 1056 -209 1056 c 256
 -199 1056 -190.333 1059.33 -183 1066 c 128
 -175.667 1072.67 -170.333 1081 -167 1091 c 0
149 1239 m 1
 113.667 1089.67 26 1015 -114 1015 c 1
 -107 1048 l 1
 -63 1068 -36.3333 1100.33 -27 1145 c 0
 -19.6667 1179 -31.3333 1201 -62 1211 c 1
 -114 1164 l 1
 -146 1211 l 1
 -157.333 1209.67 -171 1204 -187 1194 c 0
 -199 1186 -208.333 1175.67 -215 1163 c 1
 -209.667 1165 -204.667 1166.5 -200 1167.5 c 128
 -195.333 1168.5 -190.333 1169 -185 1169 c 0
 -163.667 1169 -147.5 1161.5 -136.5 1146.5 c 128
 -125.5 1131.5 -122 1113.33 -126 1092 c 0
 -131.333 1070.67 -142.833 1052.83 -160.5 1038.5 c 128
 -178.167 1024.17 -197.333 1017 -218 1017 c 0
 -244 1017 -262.333 1025.5 -273 1042.5 c 128
 -283.658 1059.5 -285.325 1082.67 -278 1112 c 1
 -270.667 1149.34 -252 1182.17 -222 1210.5 c 128
 -192 1238.83 -161 1253 -129 1253 c 1
 -104 1208 l 1
 -60 1253 l 1
 -30.6667 1251.67 -9.5 1241.33 3.5 1222 c 128
 16.5 1202.67 20 1178 14 1148 c 0
 6 1112 -11.3333 1082.33 -38 1059 c 1
 -14 1061 9.66667 1075.67 33 1103 c 1
 66.3333 1137 89 1182.33 101 1239 c 1
 149 1239 l 1
EndSplineSet
Substitution2: "<23,16000>  in Thai lookup 65 nested-substitutions 5 subtable" uni0E4A.alt3
Substitution2: "<23,16000>  in Thai lookup 65 nested-substitutions 3 subtable" uni0E4A.alt1
Substitution2: "<23,16000>  in Thai lookup 65 nested-substitutions 2 subtable" uni0E4A.alt3
Substitution2: "<23,16000>  in Thai lookup 65 nested-substitutions 0 subtable" uni0E4A.alt2
Substitution2: "Single Substitution lookup 58 subtable" uni0E4A.alt2
EndChar

StartChar: uni0E4B
Encoding: 3659 3659 284
Width: 0
VWidth: 1504
Flags: HW
LayerCount: 2
Fore
SplineSet
158 1082 m 1
 78 1082 l 1
 66 1023 l 1
 20 1023 l 1
 32 1082 l 1
 -47 1082 l 1
 -38 1124 l 1
 41 1124 l 1
 54 1188 l 1
 101 1188 l 1
 87 1124 l 1
 167 1124 l 1
 158 1082 l 1
EndSplineSet
Substitution2: "<23,16000>  in Thai lookup 65 nested-substitutions 5 subtable" uni0E4B.alt3
Substitution2: "<23,16000>  in Thai lookup 65 nested-substitutions 3 subtable" uni0E4B.alt1
Substitution2: "<23,16000>  in Thai lookup 65 nested-substitutions 2 subtable" uni0E4B.alt3
Substitution2: "<23,16000>  in Thai lookup 65 nested-substitutions 0 subtable" uni0E4B.alt2
Substitution2: "Single Substitution lookup 58 subtable" uni0E4B.alt2
EndChar

StartChar: uni0E4C
Encoding: 3660 3660 285
Width: 0
VWidth: 1504
Flags: HW
LayerCount: 2
Fore
SplineSet
176 1214 m 1
 166 1182 145 1159 113 1145 c 1
 95 1135.67 71 1128 41 1122 c 0
 13 1116.67 -5.66667 1110.33 -15 1103 c 1
 5 1101 20.5 1092.67 31.5 1078 c 128
 42.5 1063.33 45.6667 1045.33 41 1024 c 1
 37 1002 25.8333 983.833 7.5 969.5 c 128
 -10.8333 955.167 -30.3333 948 -51 948 c 0
 -73 948 -90 955.167 -102 969.5 c 128
 -114 983.833 -118 1002 -114 1024 c 0
 -100 1090 -57.3333 1132.67 14 1152 c 2
 84 1172 l 2
 110 1180 125 1194 129 1214 c 1
 176 1214 l 1
3 1023 m 256
 5 1033 3.5 1042 -1.5 1050 c 128
 -6.5 1058 -14 1062 -24 1062 c 0
 -35.3333 1062 -45.6667 1058 -55 1050 c 128
 -64.3333 1042 -70 1033 -72 1023 c 256
 -74 1013 -72 1004 -66 996 c 128
 -60 988 -51.6667 984 -41 984 c 0
 -31 984 -21.6667 988 -13 996 c 128
 -4.33333 1004 1 1013 3 1023 c 256
EndSplineSet
Substitution2: "<23,16000>  in Thai lookup 65 nested-substitutions 5 subtable" uni0E4C.alt3
Substitution2: "<23,16000>  in Thai lookup 65 nested-substitutions 3 subtable" uni0E4C.alt1
Substitution2: "<23,16000>  in Thai lookup 65 nested-substitutions 2 subtable" uni0E4C.alt3
Substitution2: "<23,16000>  in Thai lookup 65 nested-substitutions 0 subtable" uni0E4C.alt2
Substitution2: "Single Substitution lookup 58 subtable" uni0E4C.alt2
EndChar

StartChar: uni0E4D
Encoding: 3661 3661 286
Width: 0
VWidth: 1504
Flags: HW
LayerCount: 2
Fore
SplineSet
93 809 m 256
 85.6667 777 68.8333 750 42.5 728 c 128
 16.1667 706 -12.6667 695 -44 695 c 0
 -76 695 -101 706 -119 728 c 128
 -137 750 -142.333 777 -135 809 c 256
 -127.667 841 -110.667 868.333 -84 891 c 128
 -57.3333 913.667 -28.3333 925 3 925 c 0
 35 925 59.8333 913.667 77.5 891 c 128
 95.1667 868.333 100.333 841 93 809 c 256
44 809 m 256
 48 827 44.6667 842.5 34 855.5 c 128
 23.3333 868.5 10 875 -6 875 c 0
 -24 875 -40.8333 868.5 -56.5 855.5 c 128
 -72.1667 842.5 -82 827 -86 809 c 256
 -90 791 -86.6667 775.833 -76 763.5 c 128
 -65.3333 751.167 -51 745 -33 745 c 0
 -15.6667 745 0.5 751.167 15.5 763.5 c 128
 30.5 775.833 40 791 44 809 c 256
EndSplineSet
Substitution2: "<23,16000>  in Thai lookup 65 nested-substitutions 2 subtable" uni0E4D.alt1
Substitution2: "Single Substitution lookup 58 subtable" uni0E4D.alt1
EndChar

StartChar: uni0E4E
Encoding: 3662 3662 287
Width: 0
VWidth: 1504
Flags: HW
LayerCount: 2
Fore
SplineSet
101 999 m 1
 78 961 l 1
 62 966.333 44 969 24 969 c 0
 -21.3333 969 -47 953.333 -53 922 c 0
 -60.3333 888.667 -39.6667 869 9 863 c 1
 -11 829 l 1
 -23 833 -35 835 -47 835 c 0
 -75 835 -99 828.667 -119 816 c 128
 -139 803.333 -150.333 789.667 -153 775 c 0
 -159 747.667 -139.667 734 -95 734 c 0
 -81.6667 734 -64.6667 738 -44 746 c 1
 -50 708 l 1
 -71.3333 700 -95.3333 696 -122 696 c 0
 -147.333 696 -167.5 703.333 -182.5 718 c 128
 -197.5 732.667 -202.333 752 -197 776 c 0
 -191.667 801.333 -177 822.5 -153 839.5 c 128
 -129 856.5 -104.667 865 -80 865 c 1
 -98 878.333 -104 897.333 -98 922 c 0
 -86 980 -41.6667 1009 35 1009 c 0
 61.6667 1009.66 83.6667 1006.33 101 999 c 1
EndSplineSet
Substitution2: "<23,16000>  in Thai lookup 65 nested-substitutions 2 subtable" uni0E4E.alt1
Substitution2: "Single Substitution lookup 58 subtable" uni0E4E.alt1
EndChar

StartChar: uni0E4F
Encoding: 3663 3663 288
Width: 676
VWidth: 1504
Flags: HW
LayerCount: 2
Fore
SplineSet
421 245 m 0
 427 271 422.833 293.5 408.5 312.5 c 128
 394.167 331.5 373.333 341 346 341 c 256
 318.667 341 293.833 331.5 271.5 312.5 c 128
 249.167 293.5 235 271 229 245 c 0
 223 217.667 227.5 194.833 242.5 176.5 c 128
 257.5 158.167 278.333 149 305 149 c 256
 332.333 149 357 158.167 379 176.5 c 128
 401 194.833 415 217.667 421 245 c 0
474 245 m 256
 464.667 203.667 442.5 168.333 407.5 139 c 128
 372.5 109.667 334.333 95 293 95 c 256
 251.667 95 219.5 109.833 196.5 139.5 c 128
 173.5 169.167 166.667 204.333 176 245 c 256
 185.333 286.333 207.5 321.5 242.5 350.5 c 128
 277.5 379.5 315.333 394 356 394 c 256
 397.334 394 429.667 379.5 453 350.5 c 128
 476.333 321.5 483.333 286.333 474 245 c 256
526 245 m 256
 538 301 528.833 348.667 498.5 388 c 128
 468.167 427.333 425 447 369 447 c 256
 313 447 261 427.333 213 388 c 128
 165 348.667 135 301 123 245 c 0
 111 187.667 120.167 139.5 150.5 100.5 c 128
 180.833 61.5 224.333 42 281 42 c 0
 337 42 388.833 61.8333 436.5 101.5 c 128
 484.167 141.167 514 189 526 245 c 256
579 245 m 0
 563.667 173.667 526 113.5 466 64.5 c 128
 406 15.5 341 -9 271 -9 c 0
 199.667 -9 144.667 15.5 106 64.5 c 128
 67.3333 113.5 55.6667 173.667 71 245 c 0
 86.3333 315 123.667 374.833 183 424.5 c 128
 242.333 474.167 307.667 499 379 499 c 0
 448.333 499 502.833 474 542.5 424 c 128
 582.171 374 594.338 314.333 579 245 c 0
EndSplineSet
EndChar

StartChar: uni0E50
Encoding: 3664 3664 289
Width: 675
VWidth: 1504
Flags: HW
LayerCount: 2
Fore
SplineSet
599 217 m 0
 585.667 153 548.667 99 488 55 c 128
 427.333 11 354.333 -11 269 -11 c 256
 183.667 -11 120.5 10.8333 79.5 54.5 c 128
 38.5 98.1667 24.6667 152.333 38 217 c 0
 52 281 88.8333 334.833 148.5 378.5 c 128
 208.167 422.167 280.667 444 366 444 c 256
 451.333 444 515 422.167 557 378.5 c 128
 599 334.833 613 281 599 217 c 0
539 217 m 256
 550.333 268.333 539.333 311.167 506 345.5 c 128
 472.667 379.833 422.333 397 355 397 c 256
 287.667 397 230 379.667 182 345 c 128
 134 310.333 104.333 267.667 93 217 c 256
 81.6667 165.667 92.8333 123 126.5 89 c 128
 160.167 55 210.667 38 278 38 c 256
 345.333 38 402.833 55 450.5 89 c 128
 498.167 123 527.667 165.667 539 217 c 256
EndSplineSet
EndChar

